<svg xmlns="http://www.w3.org/2000/svg" viewBox="0 0 902 902" xml:space="preserve"><path fill="#050405" d="M1 382v-2c2-3 4-6 8-8l1 1c4 9 8 17 15 24l17 21c3-6 1-11 2-15l-1 2c0 1 0 2-2 2l-2-2-1-4c0-2 0-3-3-2-1 1-2-1-3-2v-9c-2 1-1 5-6 4v-16l1-1-2 6-1 1-1 1h-1c-2-1-2-3-2-5v-6c0-9 4-16 9-23 5-6 10-12 17-15l7-2 1 1-8 17-2 4a105 105 0 0 1-2 13l1-4 8-15c3-4 6-9 11-12l2 1c2 3-2 5-2 7 2-3 3-6 7-8 2 1 2 3 2 5l-1 3v4l-1 3a98 98 0 0 0 3 28l2-10 3-21 3-6c3 1 2 2 1 4l3-12 2-5 3-1 1 2-1 6v37l-1 3 1 3 1-1 1-4c5-15 5-30 7-45l1-7c8-22 18-40 37-54 2-1 4-1 5-3l11-5 2-2 8-4 5-1 1 1c1 2 0 4-1 5l-4 3-2 3 1-1 3-1 2 2-1 4-3 4-2 3-5 12-1 3v1l1-1 4-3c2-2 3-4 6-4 2 4-2 7-3 10l-2 6-1 1c0 1 0 1 0 0 1-2 1-4 3-5 4-3 6-8 11-9l1 1c-3 7-7 12-9 20l-2 6-1 4-3 8-2 4-1 1 1-1 2-3 4-8 4-5h2v15l-1 5-1 1 2-2c3-2 6-4 11-5l2 2c1 3 3 5 2 9l-4 1c-11 3-17 10-25 17l-4 5-3 3v1l2-3 5-4 3-3 3-2h3c2 3 1 4 0 5l-7 10-1 1 1-1c3-3 7-7 12-9l1 2c1 2-1 4-1 6 2 1 6-3 6 2l1 2c4 1 3 4 1 8l-2 2v1l1-1 8-2h2c1 2 0 4-1 4l-7 8h-1 1c11-1 21-5 32-8l7-1h2c1 3 0 3-1 4l-6 4-4 2-9 3-3 2h-2 1l4-1 9-2c5 1 3 3 1 4-3 3-6 4-9 5l8-1 3 1-2 4-4 2-4 3 3-2c3-2 6-3 10-3l1 1c0 3-3 5-5 7l-6 7-1 1 1-1 19-3h3l5 1c0 4-3 3-5 4l-8 3-7 3-3 2-1 1-3 2-7 5c-2 1-3 3 0 4l8 3 3 2 7 4 5 4 18 19 3 3c3 1 4 3 6 5l3 2c2 2 4 3 7 3l2 1c13 7 25 9 39 5 3 0 4 0 6-2l1-1 3-1h1l1-1h1c2-3 2-6 5-8h1l1 2-1 3 1-3c1-3 1-6 4-9 3 0 2 2 2 4l-1 2 1-1c-1-3 3-5-1-8l-10-4-2-2-6-7c-5-9-9-18-7-28l2-5c9-10 20-11 31-12h17c5-1 8 0 12 3l2 1c2 3 4 6 4 10 2 8 2 15 1 23-2 6-4 12-10 17-4 3-4 8-6 12l-1 1v1-1l4-7h1c2 2 1 4 1 6l-2 5h1c-1-1 0-2 1-4 0-2 0-4 2-5h2l1 4-2 5c-1 1 0 2 1 2 4 1 5-2 6-4 2-4 3-9 3-14v-32c0-2 0-5-2-8-4-18-14-33-22-49l-3-4c-8-15-17-29-22-44-2-5-3-10-3-16l1-3h1l1 1c1 0 0 0 0 0v-1l1-1 1-1h1l-1-2-1-8 1-2 2-1 3 6 1 2v-8h3c2 2 2 5 2 6 1-4 0-9 4-13h1c2 4 1 7 1 11 0 3 2 4 4 4l2 1c1 5-4 5-6 7-1 1-2 1-1 2l2 1 9-3c4-5 3-10 3-15l-2-6-3-10-1-3c-5-11-7-22-11-34l1-1c2-2 4 0 5 1l12 10 6 6 7 9c7 9 12 20 16 31 3 12 8 24 14 35l1 4 1 1h-1l-1-3c-1-6-3-11-3-17l1-1c6 2 6 8 9 12l-4-17 1-1c5 1 7 3 9 7l1 1-1-1c-4-9-10-16-16-22-8-8-15-16-19-27l2-1c2-1 3 0 5 1l15 13c4 4 8 5 12 6l1 1c-4-2-6-5-9-8l-8-10-2-2-5-6c-1-1-4-2-3-4s3 0 5-1l-9-6-3-1-7-2c-2 0-4 0-4-2-1-2 1-2 3-3l2-1 3-1h10-4l-9-4c-1-1 1-2 1-4-10 0-21 4-31 1l-4-1c-6-6-12-11-17-18l-10-9-2-1-2-2-2-2c-6-3-11-8-17-10h-1c-2-2-3-2-5-2l-1-1c-5-5-12-6-18-9l-8-2-3 1-9-2c-8-2-16-2-23 2-11 1-21 3-31 7-12 7-25 12-38 20l-5 5 4-2 10-5h4l2 1c0 3-2 4-3 6-3 1-4 3-6 6l-4 2-2 2-3 4-3 2a92 92 0 0 0-7 6l-2 2c-5 3-9 7-15 9l-4 1-10 6-6 3-35 21-3 2-3 2c-7 5-11 12-15 19l-6 7-1 1v1l1-2 7-7 3-4 3-2 1-1c2-1 3-3 6-3v5l-2 5-2 2 2-1 1-3 3-3 3-2 3-4 12-10 7-3 1 1c1 2 0 3-1 4l-2 3-11 16c-7 10-17 17-27 23l-12 6c-5 3-9 7-13 12l-4 5-4 14-1 3c-2 0-3-2-3-3-2-8-1-15 2-23l8-13-6 1-2-2c0-3 2-5 4-6l14-12c3-2 6-3 8-6l1-1c-3 3-5 5-9 6l-10 4-1-1c-1-3 1-4 3-6 12-13 26-24 41-33 11-8 23-17 33-27 8-7 14-16 21-23a133 133 0 0 1 42-32l1-1c4-2 9-4 13-4 3 0 5-1 6-3 2-3 5-4 9-5l26-8 2-1h13a153 153 0 0 1 37 3h2l3 2 8 2c1 1 2 2 4 1 19 7 35 17 49 32 4 5 9 9 12 15 1 2 3 3 5 3l17 3c9 0 18 1 27 4 5 2 11 2 16 3 22 3 44 0 66 2l96 9a1058 1058 0 0 1 219 58c13 5 25 13 38 20 11 6 21 15 33 21 6 3 13 7 19 12l15 16 2 2c2 6 5 11 9 17v116c-2 21-7 41-11 62l-18 96-8 35c-4 16-12 30-26 39-25 18-50 34-79 45l-45 16a939 939 0 0 1-247 39c-25 1-50 0-75-1a695 695 0 0 1-308-78c-14-9-27-20-38-33a87 87 0 0 1-17-41L6 547c-2-12-4-24-4-36v-88l-1-41z"/><path fill="#FFF" d="M24 398c-7-7-11-15-15-24v-1c-3 2-4 6-8 7V5c0-3 0-4 4-4h894c4 0 4 1 4 4v387c-4-3-7-6-8-11-3-9-11-15-18-21-9-9-21-14-31-20l-19-13c-19-11-38-21-58-29a993 993 0 0 0-279-58c-24-2-48-2-72-2-7-1-15-1-21-3-16-5-32-5-49-8-4-1-7-2-10-6-14-21-34-36-59-45l-3-1-7-2-3-1-2-1c-8 0-16-2-23-3h-30a253 253 0 0 0-55 21l-3 2c-17 9-32 22-44 37-15 20-35 35-56 48-13 10-26 21-37 33v1l10-4 3 2-19 17v2l11-2c-10 12-17 24-11 40-1-5 1-11 4-16 2-1 3 0 4 2 1 5-1 10-1 15l1 3v2l1 3 2 4 1 4v2l1 1v-2l1-1h2l1 9c1 3 0 5-3 7zM3 511c3 26 7 52 12 77l15 88 7 27c5 17 16 31 30 42 25 21 54 36 84 47a731 731 0 0 0 235 45l73 2a1138 1138 0 0 0 246-36c30-10 59-20 86-34 20-10 38-22 55-35 11-9 16-22 19-35 7-28 11-57 17-86a2647 2647 0 0 0 21-105v390c0 4 0 5-5 5H6c-4 0-5 0-5-5V511h2z"/><path fill="#171719" d="M3 511H1V382c2 2 1 4 1 6a29794 29794 0 0 1 1 123z"/><path fill="#FFF" d="m555 466-10 36c-1-14 0-29 3-45v-3c0-1 0 0 0 0l1-2-1 2-2 3-9 30a211 211 0 0 1 5-56l-2 2-13 38c-1-16 3-32 9-47l1-5a10 10 0 0 1 1-1l-4 5-13 23h-2c3-25 15-46 31-64 15-16 33-28 53-39 21-11 45-14 69-12 13 1 25 4 38 7 24 7 40 24 51 46 12 24 13 49 4 74v2c17-18 18-39 12-62-5-14-13-26-23-38h2c16 11 25 25 27 44 2 12 1 24-1 37v2l1-2c9-15 12-31 9-49h2c8 18 7 35-1 53s-22 31-40 41a96 96 0 0 1-74 9c-12-4-23-10-32-19h-2s1 0 0 0c17 29 44 39 75 37-6 4-17 4-38 3 0 0-2 0 0 1 28 11 54 6 78-10 18-11 30-27 39-47h2c-2 10-6 20-11 29v3l-1 1a9 9 0 0 1-2 2 14 14 0 0 0-1 3l-2 2h-2l-1 1-1 1a16 16 0 0 1-1 2l-2 1c-4 0-5 3-6 4-18 11-37 17-58 19-25 3-47-3-66-20-7-6-13-13-19-21l-2-4c-1 7 8 23 16 31s19 14 30 18c-9 2-29-5-41-19a91 91 0 0 1-21-41c-4 31 12 65 52 70 26 3 52-1 78-7 22-5 40-17 57-30 1 2 4 0 4 3-9 11-22 17-35 23-32 14-66 21-102 18-10-1-21-4-30-9l-4-1-1-1 1 1 3 3c7 7 16 12 25 17v1c-41-6-64-45-56-88v-6 1l-2 4c-9 18-5 36 2 53 4 8 8 14 14 21l-1 1c-24-20-32-46-31-77a89 89 0 0 0-3 72c-12-8-21-43-18-62l-1-2-1 2-6 24c-2-12-1-24 1-37v-2l-1 2z"/><path fill="#FFF" d="m211 431 6-3c3 0 6-2 9-4l6-2c-1-3-3-2-5-1h-2c-2-1-3-2-4-5-1-5-1-11-7-14-3-1-2-3 0-5l4-3c-3-1-8 3-7-4l10-6 2-2 2-1 2-1c4-6 4-9-2-11l-2-1-7-5-5-2-3-1-4-3-2-3-1-1v-3l-2 1-9-3c-2 1-1 1 0 2s3 1 2 4l-2 2c0 3 5 3 3 7l-3 1c-2 0-2 1-1 2l4 5 3 1c1 2 0 5 2 7 5 2 10 0 14 2v4c-11 3-22 7-34 9l-1-2 10-11 2-1h1c1 0 1 0 0 0l-4 1-9 2v-3c0-3 2-4 3-6-2-1-5 2-7 0-1-1 1-2 2-4 1-1 3-2 0-2-4-1-3-3-3-6 1-3 2-6 0-9h-1l-1 1a25 25 0 0 1-2 1h-2l-3 1c-1-1-2 0-3 1l-3 3c-2 0-2-1-2-3 6-9 14-14 25-18 2 1 3 3 6 1l-4-9c1-1 1-2-1-2-4 0-6 5-10 6-3-1-2-3-2-5v-15l-1-1-2 5c-1 0-3 1-4-1l1-4 2-6c1-8 5-14 9-19v-2l1-1v-1c1 0 0 0 0 0l-1 1-5-3-1-2v-1l1-1c-6 0-8 4-8 9l-4 3c-1 0-2 0-2-2a48 48 0 0 1 7-16l2-5c2 0 3 0 2-2l-1-2c-2-2 1-4 0-5 0-2 2-2 3-4l2-3h1c1-1 0-1 0 0-3-1-6 0-8 3l-8 4-2 1-11 6c-2 0-4 0-5 3-18 13-29 31-36 52-3 2-3 4-2 7-1 16-2 31-7 47-2 1-3 1-5-1a794 794 0 0 1 2-46v-3l2-4c2 0 2-1 2-3l1-5 2-4v-1l1-1v-2c4-10 9-19 16-27l7-9 2-1 1-1 2-3 1-1s1 0 0 0l-1 1-2 1-2 1-1 1h-1c-3-1-2 1-3 3 0 2-1 3-3 3-1 1-3 0-2 2-1 4-3 6-6 7H95c-2-1-3-5-7-4l-3 1c-3-1-5 2-7 4l-12 10c-2 0-3-1-4-3l-1-1c0-3-2-4-3-6l1-1 4-2 35-22 6-3 10-6a540 540 0 0 1 21-12c3 0 4-1 5-3l1-1 1-1 2-2c3 0 3-2 4-4l1-2c1-1 3 0 3-2l12-11 2-2h-3c-2-1-3-1-5 1l-10 5v-4c15-10 31-18 48-24 7-2 13-4 21-3l1 1v1c-3 6-4 13-1 20l-4 1h-1v1h4l5 2 3 2 2 3c1 3 4 5 2 9-5 1-10-3-15-4l-2-1-4-1h-2s1 0 0 0h1l3 2 1 1 1-2 2 1c1 1 1 2 3 2l12 6c1 1 1 2 3 2l6 3 1 1v1s1 0 0 0l-1-2c-3-2-6-3-7-7 0-2 1-3 3-4 4-1 6 1 8 3 0 1 0 0 0 0l-5-6c-1-1-3-2-2-4 3-1 4-1 6 1 5 4 10 10 10 18-1 8 6 16 14 19 3 0 5 2 7 5 5 10 7 20 8 31 3 17 5 35 10 51l6 15 4 7c3 2 5 2 7-1 2-2 3-3 5-3 5 0 6-2 6-6l-1-6a204 204 0 0 1-14-54c1-8-3-17-5-25l-4-19c-2-4 1-6 4-8 8-4 10-9 5-16l-4-5c-4-4-8-4-13-2-6 3-13 2-17-4-6-8-13-14-18-22-2-3-5-5-9-5-2 0-5 0-5-4l6-1c3 0 5 2 8 3h1c3 1 6-2 10 0 7 2 14 4 20 10h-1c3-3 4 1 5 1v1c7 2 12 6 18 10l3 2 1 1 2 2c7 5 12 12 18 18l10 8c0 2 1 2 2 1 8 2 16 2 23 0l13 1c-1 3-3 2-5 3 2 3 4 2 6 4v2h-2l-3 1-6 3 12 3 2 1c4 1 7 4 11 6 1 1 2 2 1 3-1 2-2 1-3 0h-3l8 9 9 10-5 4c-7-5-12-11-20-15l-2-1-2-2-1-1v1h1l1 2v2c-3 1-6 0-8-2l-7-8c-2-2 0-3-1-5l-4-1-17-13h-1v1h1c4 11 6 23 11 35l1 2 3 10c0 2 0 4 2 6 2 6 1 12-3 18l-2-5c0-2-1-3-3-3l-2-1c-1-2-3-1-5-3v-16l-1-5v-2l-1-5-1-2c2-2 2-3-1-3l-1-1v-6l-2-1-1-1-2-2 1-5-1-3c-3-2-5-4-5-7-1-2-2-2-3-1-1 2-3 3-1 6l-1 3c-5 3-7 9-4 13 2 2 3 4 2 6-1 4 0 7 2 10l2 6 1 3c-1 2-3 4 0 5 1 1 2 2 1 3v1l-1 3v4l1 3-1 2v1h-2c-2-1-2 0-2 2 2 18 12 33 20 48l6 12c1 2 0 3 2 4 9 15 18 31 24 49h-4l-5-9c-3-2-6-4-11-4l-1-2v-1h-1l-1 1h-2l-1 1c-9 1-19 1-27 4-6 2-11 4-14 9-4-1-2 2-3 3-2 11 2 20 7 28 0 4 2 6 6 7l2 1c-4 6-6 12-6 19l-1 2c-4 2-3 7-7 9-15 5-29 3-42-4v-2 1c-3 0-5-2-8-3l-3-3-6-5-3-3-19-19c-1-2-2-4-4-4l-7-4c-1-1-1-2-3-2l-13-4c2-4 6-7 11-10l4-2v-1c1 1 2 0 3-1z"/><path fill="#FFF" d="M341 514c0-4-1-8 4-10 2-1 4-2 5-1 2 1 1 3 0 4l1 11c2 2 1 5 2 8 0-3-2-5 0-8v-7c1-5 3-7 8-8 11-2 21-5 31-4 27 4 51 12 74 26 7 5 12 12 16 20l-1 1c-4-4-8-9-14-12 0-1 0 0 0 0l-1-1v1l1 1 10 16h-2c-7-7-13-14-22-20l-4-2-2-2-1-1h-2 1l2 1 1 1 4 4c7 7 13 15 17 25h-2a96 96 0 0 0-35-30h-2l-4-2-2-1 5 3 2 1c8 7 17 14 22 24l5 10c-9-11-20-20-34-27l-2-1s-1 1 0 0v1c9 8 19 15 25 27h-2c-8-7-16-14-26-19 8 9 16 18 18 32l-17-19h-1c2 5 4 10 4 15l-7-11c-3-5-6-11-10-15-5-8-14-13-24-14 5 16 11 32 18 47 9 20 18 39 24 60-4 1-4-4-6-6l-1-1-1-1c-1 0 0 1 0 0l1 2c2 3 6 6 6 10h-2l-3-3-2-1-1-1 1 1 1 1 8 19h-1c-2 0-4-2-6-4l-1-1-1 1c4 8 9 15 12 23 4 6 6 12 5 20-2-1-2-3-2-5l-1-1s-1 1 0 0v1l1 4 1 5c0 1-3-1-2 2 0 1 0 3-2 4l-3-5-1-4 1 4 3 6-1 2c-2 3-3 0-4-1a350 350 0 0 1-15-41l-1-4-1-1v-1 1l1 5c2 20 9 39 13 59l-3-2c0 4 3 7 1 11-2 0-2-2-3-3l-2-3c0-1 0 0 0 0l1 3v2l-3 1h-1c1-1 0-2-1-3v-1c-2-2-2-5-2-7l1 7c-1 3 0 5 1 8h-2l-3-7-2-3-1-5 1 4 1 4v3h-2c-7-17-11-35-16-52l-4-17-1-4-2-5 1 4v5c3 22 6 44 12 66 2 4 2 9-1 13l-3 3c-2 0-2-2-3-3l-7-24c-1-1-2-2-1-4l-2-4 1 3 1 5 3 26c-6-5-14-31-14-48-2-4-1-8-2-12v-15c-1 8 2 17 1 27l1 32c-7-22-9-46-11-70-3 2-3 5-3 6l-2 41c0 4 0 7-2 11-3-11-5-21-5-32-3 8 0 16-2 24-3-4-2-10-4-15-2 2-1 5-2 7-3-6-2-12-3-17-2-21 0-41 1-62l-1-3v3l-6 17h-1l2-27v-5 1l-1 4-4 14h-1c1-13 3-25 3-39v-11 6l-1 5c-2 10-3 20-8 30a234 234 0 0 0 0-71v14c0 11 1 23-3 34l-2-45-1-7-1 8-1 11-2 1-3-32c-1-6 1-12 4-18 1-2 2-3 5-4 0 8-2 15 1 23 0-7 1-14 3-20 1-3 2-6 5-7 2-1 4-2 4 2l1 3c2 0 2-2 2-3 3-3 5-5 9-6 3 0 5 0 4 4v7c1 1 2 3 1 5l1-5z"/><path fill="#FFF" d="M860 367c22 17 36 39 40 66 2 14-3 27-9 39a170 170 0 0 1-98 91c-31 12-63 20-96 25-48 7-97 11-145 15a629 629 0 0 1-123-6l-3-8 8-1a3482 3482 0 0 0 264-18c30-4 61-10 90-22 42-18 74-47 94-89 8-16 7-33 0-50-5-14-14-28-23-41l1-1zM18 447c3-7 9-8 16-10-5-4-11-3-17-3 3-4 8-5 13-5-3-5-8-6-13-6 4-4 10-4 13 1l10 16c3 8 8 15 12 22l3 3c26 12 49 27 74 40 36 18 73 33 111 46l42 14c4 1 6 3 6 7v13l-4-13h-1v10c0 1 1 4-1 4-2 1 0-2-2-3 1 4-2 3-4 3l-34-10a941 941 0 0 1-201-90c-7-5-7-5 0-11v-1c-5 0-9 3-14 5 3-6 7-10 14-13v-1c-7 0-13 3-19 7 3-10 11-13 19-17-5-1-9-1-18 3h-2c4-6 10-10 18-12-8-2-14-1-20 1h-1z"/><path fill="#FFF" d="M850 380c-8 1-14 6-21 10 2-8 7-13 13-19-9 0-15 5-22 9 1-7 5-11 10-15-2-2-3 0-5 0l-4 2c1-5 4-8 7-12-10 3-17 8-22 16 0-9 5-17 9-25-6 1-7 2-19 16 0-9 3-17 7-25-7 3-11 8-15 14h-2c1-7 1-14 4-22-4 2-7 4-9 7l-8 10 2-20c-6 3-10 7-14 12-2-6 0-11 0-17-4 1-8 4-11 6-3 3-5 1-6-2-2-4-1-8-1-13-6 3-10 8-12 14-2-6-2-11-2-16 0-1 1-3-1-4l-3 2c-3 2-6 6-9 11v-15c0-3-1-4-4-2l-9 10-1-15c-6 3-9 8-12 14-2-5-1-9-1-13l-1-5-4 2-7 11c-2-6-2-11-2-16-7 3-9 10-11 17-4-7-2-14-2-20-6 3-9 8-11 14-2-3-2-6-2-8v-9c-6 4-9 9-11 16-2-7-1-13-1-20-6 4-9 9-11 16-3-5-2-10-2-14v-3c-1-1-3 0-3 1-4 3-7 6-9 11-2-6-2-10-2-16-5 4-9 9-10 15-3-5-3-11-3-17-5 3-7 8-9 13h-1c-2-4-1-9-3-14-6 3-8 9-10 16-3-6-2-12-3-18-5 3-8 7-9 12l-1 1c-2-4-2-8-2-12l-1-3-3 2c-3 3-5 7-6 13l-3-16c-6 4-8 10-10 15-2-5-2-10-3-16-5 4-7 9-9 15-3-5-1-11-4-16l-9 13-1-15c-5 3-7 8-8 13l-2-1-2-13c-5 5-7 10-10 15l-1-11c0-2 1-3-1-4l-3 3-8 11-1-15c-6 3-9 9-12 14l-1-14c-6 4-10 10-14 16l-1-7c1-5-1-5-5-4-9 2-19 0-28-3l28-2h2l-1-1-35-3c10-4 20-4 30-4l84 3a1018 1018 0 0 1 162 30c40 11 78 25 114 43 26 13 48 31 62 58l1 2c-8 3-17 5-25 11 2-9 8-14 15-19v-1z"/><path fill="#FFF" d="M577 631c0-3-2-2-3-2l-64 2c-22 1-43 3-64 2-2 0-6 0-6-3 0-2 4-2 6-2l4-1 6-2c-2 0-4 2-6 0l-10-1-3-1-2-6 5-1h90a1037 1037 0 0 0 230-27 333 333 0 0 0 69-25 425 425 0 0 1-154 54l-53 8c-2 2-5 2-8 3h-23a45 45 0 0 0-14 2zM202 505c1 1 2 3 0 3-1 1-2-1-2-2-3-5-6-10-11-14-1 2 2 5 1 8l-10-12-2-1 1-3 1-1h-4l-2-2c3-4 6-6 11-9-5 0-8 1-11 3-3 0-3-1-2-3l5-5c-5 1-10 2-14 5 0-6 6-7 8-11l-11 2c5-11 28-13 40-3v1l-7-1h-2l2 1a279 279 0 0 1 55 51l10 17-1 1-3-3-1-1s0 1 0 0v1l2 5 2 6h-1c-2-1-3-5-7-6l2 6h-2l-10-10v7a1702 1702 0 0 0-11-14c1 3 2 6 1 11-3-7-6-13-11-18 0 4 2 8 0 12a91 91 0 0 0-15-23l-1 1v1z"/><path fill="#FFF" d="M91 728a574 574 0 0 0 167 59c45 9 91 15 138 19 1 1 3 0 5 2l-2 1c-35 0-69 0-104-5l-54-12c-22-4-43-9-63-16-32-10-63-24-89-47l2-1zM32 497c48 30 99 54 152 74l105 36 3 2 1 3h-3l-14-1a786 786 0 0 1-208-85c-13-8-26-16-36-28v-1zm580 132h1a349 349 0 0 0 66-8c27-5 54-8 81-15 1-1 2 0 2 1-18 8-37 14-57 17-26 5-53 11-80 14a1911 1911 0 0 1-171 1c41-4 82-3 122-8h1l11-2 22-1 2 1z"/><path fill="#FFF" d="M88 278c1-2 2-4 4-1l3 4c1 1 0 2-1 3l-1 1-3 3c-2 1-3 3-5 3-3 1-4 4-5 7l-5 12c-1 2-3 5-2 9 5-12 10-21 17-31l3-3 1-1 4-3c2 0 5-2 6 2-1 7-4 12-6 18l-2 7v2l-1 2c1 3-2 5 0 9h-4l-1-1-1 5-2 4-2 5c-2 1-3 4-4 6l-6 29c-1 1-2 3-5 2-2-7-2-13-2-21l1-2v-4l1-2v-7h-2l-1-1-1 1-2 1-1 1c-9 7-14 17-19 27l-2-1c-1-3 0-6 1-10 1-1 2-2 1-3 2-6 6-12 10-17l1-1s1 0 0 0l-1 1c-10 3-17 8-24 16h-3c-2-3 0-4 2-6l6-7 1-1 1-1 1-1h1s0-1 0 0h-2l-1 2-1 1h-2c-2-1-3-2-2-4l10-7c16-7 28-20 37-34l2-4 3-3 2-3 3-3z"/><path fill="#FFF" d="M114 337c-2 19-1 39-3 58l-3 13h-1v-14l1-5-2 4c-1 7-5 12-8 18l-1-2c6-21 5-43 7-64 2-15 6-30 16-42 2-3 5-5 9-6-11 30-6 60-7 91 0 10 0 21-4 31-2 4-3 8-6 11-9 8-18 9-28 2l-6-5c-3-3-5-4-8 0l-6 4 8-18c6 7 13 13 22 17 5 1 12-3 15-9 5-9 6-19 6-29v-55c-1-4 0-7 1-11l1-5-1 4-2 12z"/><path fill="#FFF" d="M759 705a846 846 0 0 1-141 39 1413 1413 0 0 1-181 7c-1 0-4 1-5-1 0-3 3-3 6-3 20-2 40-2 60-2 48-2 96-4 143-12a677 677 0 0 0 118-28z"/><path fill="#FFF" d="m42 519 60 33c26 13 54 24 82 34l65 23 42 12c2 0 5 1 5 4-12 0-25-2-37-6a789 789 0 0 1-217-98v-2z"/><path fill="#FFF" d="M703 706a831 831 0 0 1-259 24c-1 0-3 1-3-1s0-4 3-4h5c40-1 80 0 120-2 31-1 62-6 92-11l42-8v2z"/><path fill="#FFF" d="M112 663c40 13 82 23 122 36 17 6 36 9 55 11l24 4 2 1c3 0 4 2 4 4-1 2-3 1-5 1-25-2-51-4-75-10-39-10-77-24-114-39l-14-7 1-1z"/><path fill="#FFF" d="M515 302c24-3 47-1 70 3a706 706 0 0 1 51 14c-21 0-41 3-61 6-11 2-22 0-33-2 10-2 20-1 31-3 0 0 2 0 0-1l-45-4-16-2c17-3 35-1 52-1v-2a40687 40687 0 0 0-49-8zM162 705l57 17c33 8 66 13 99 18 7 1 14 1 21 7a385 385 0 0 1-177-42z"/><path fill="#FFF" d="M498 327c-10-7-21-11-31-15 10-1 20 1 30 5 18 6 34 14 51 21l17 6v2c-27 3-52-3-76-14l-25-11a126 126 0 0 1 34 6z"/><path fill="#FFF" d="M166 620c-7-2-14-3-20-6-4-3-4-5 0-8 16-10 46-4 56 12l2 3c1 3 2 7-1 10s-6 1-8 0l-29-11z"/><path fill="#FFF" d="M404 362c3 10 5 20 1 31-2 6-6 10-13 11-7 0-11-3-15-9-5-9-6-20-7-31-3-23-3-47-7-70l-2-11h1c9 13 10 28 11 43 2 17 1 33 3 49 1 6 2 11 5 16 2 4 5 7 9 7 5-1 7-3 9-7 4-9 5-18 3-28l2-1z"/><path fill="#FFF" d="M517 660c3 2 6 4 4 8-1 4-5 5-8 5h-41c-3 0-6-1-6-4-1-4 1-6 4-8 10-7 21-11 33-7 5 1 10 3 14 6z"/><path fill="#FFF" d="M460 496c12 4 22 11 30 22 0-6-3-10-6-15 0-1-2-3-1-4 2-1 3 2 4 3a129 129 0 0 1 24 68l-18-27c-9-16-19-32-33-46v-1zm-7-166c17 2 32 7 46 17 11 7 22 14 35 17-6 7-13 7-20 6-9-2-17-7-25-11l-19-11v-1c7 1 13 3 20 6h2l-1-1c-11-10-24-15-38-20v-2z"/><path fill="#FFF" d="m708 653-37 7c-3 0-6 1-8-2s1-5 2-7c5-8 12-13 21-14 10-1 19 1 27 5 2 1 5 2 5 5-1 3-4 4-6 5l-4 1zm-104-2c8-1 16-1 22 6 4 5 4 8-2 9-14 3-29 4-43 5-3 0-5-1-6-4-1-2 1-4 2-6 8-6 16-10 27-10z"/><path fill="#FFF" d="m783 500 2-2 1-2 1-1 1-1 1-2 2-1c16-16 21-35 20-56l-1-14h2c17 42-8 83-45 97v-2l9-10 1-1 2-2 1-1 1-1 1-1h1z"/><path fill="#FFF" d="m366 272 8 1 2 1c6 12 14 22 23 31 5 5 9 10 12 17l-1 2-8-8-1-1-1 1 6 20h-2l-8-14c-2-1-3-3-3-5l1 5 4 17-1 1c-8-11-12-24-16-37-3-11-8-21-15-31z"/><path fill="#FFF" d="M470 364c12 1 22 7 32 12l13 6c2 1 3 3 1 5-3 6-7 8-14 6-7-1-14-5-20-9-10-6-21-13-32-17l-2-2c16 1 29 7 42 15l1-1 1 1-1-1c-6-6-13-10-21-14v-1zm13 110c-6-11-16-18-26-24 24 4 49 23 49 56l-22-21c-7-7-14-14-23-19 5-1 10 1 21 9l2 1 2 2v1c1 0 0-1 0 0l-1-2-2-3z"/><path fill="#FFF" d="M226 681c27 2 53 5 80 10 4 1 5 2 6 6s0 4-3 4l-24-4a448 448 0 0 1-59-16z"/><path fill="#FFF" d="M62 608a565 565 0 0 0 134 67c-19-1-36-10-53-18-23-10-47-21-67-37l-16-12h2z"/><path fill="#FFF" d="M514 693c-5-2-3-4 0-5 5-3 11-4 16-5 12-1 25-2 37 0l8 2c1 1 3 1 3 3s-2 2-3 2l-5 2-53 2-3-1z"/><path fill="#FFF" d="M319 251c-4-2-1-4 0-5 1-3 3-3 5-3l1 1c0 4 1 6 5 7 4 2 0 6 0 9l-2 4-1 1-2 6v1-1l3 1 1 3v1a14 14 0 0 1-2 2v2l2 1 1 2-1 1h1v-3l1-1a55 55 0 0 1 3-3h3c3 0 3 2 2 5l-1 1-1 1v1l-1 1h-1v2l-1 1v1l-1 2-1 1c0 2 0 4-2 6v7h-3l-2-6-1-1-1-2-1-1v-3l-1-4c-2-5-8-8-5-15 0-2 1-5-2-6l-2-1c-1-2 2-12 3-13h3c2 1 1 3 2 4l2 1v8l2-8c1-1 3-2 0-3l-3-2-1-4 1-1-2 2z"/><path fill="#FFF" d="M461 397c6-1 10 4 14 6l4 2 1 1c0 1 0 1 0 0l-3-4c-5-7-11-13-18-18v-3c15 6 26 16 38 26 3 1 5 4 7 6 1 3 1 4-2 4-11 2-20-2-29-9l-12-11z"/><path fill="#FFF" d="M763 633c-4 2-8 4-12 4-4 1-5-1-3-5 5-12 16-18 30-17 5 1 11 1 15 6l-30 12z"/><path fill="#F5F6F6" d="M65 552c14 1 23 8 26 21l1 6c-1 3-3 4-5 2-9-10-21-16-31-24-1-1-3-1-3-3l4-2h8zm223 84 3 1c7 2 12 8 11 15 0 3-2 3-4 3l-30-7c-2-1-4-2-4-4s2-3 3-4c6-4 13-4 21-4z"/><path fill="#FFF" d="M368 285c9 11 14 23 16 37 3 14 6 28 6 42v8c-2-1-2-2-2-3-7-22-10-44-15-66l-7-18h2z"/><path fill="#FFF" d="M623 678c15-4 30-5 46-5l6 1c1 0 3 1 3 3l-3 2-20 3-31 4h-4c-2 0-3-1-3-3-1-2 0-3 2-3l4-2z"/><path fill="#FFF" d="M476 423c10 6 17 14 23 24 1 3 4 6 3 8-2 2-6 0-9-1-6-3-10-7-15-11l-22-15 1-2c9 2 18 6 26 11l3 1c1 1 1 0 0 0l-1-1-9-12v-2z"/><path fill="#FFF" d="M366 429h3c5 18 5 36 0 54-1 3-2 6-5 7-2 1-4 2-3-2v-2l1-4 2-4-3 4h-1v-7l-1 2-2 5h-1l1-7-1-3 1-3c11-11 11-25 9-40z"/><path fill="#FFF" d="m823 490 10-14c-1 26-32 51-54 55 16-12 32-24 44-41z"/><path fill="#FFF" d="M785 743c-24 15-50 25-76 33l-18 5v-1c24-10 49-19 73-30a2030 2030 0 0 1 21-7z"/><path fill="#FFF" d="m730 660 27-9 5-1 3 2c1 1 0 3-1 3l-4 3a401 401 0 0 1-43 13c-1 0-3 1-3-1s1-2 2-3l14-7z"/><path fill="#FFF" d="M650 698c-28 6-56 11-85 8l-1-2 74-6 11-2 1 2z"/><path fill="#FFF" d="m350 335-2 11c0 4-3 8-7 11-3-5-6-10-7-17-1-4 1-8 4-10 4-3 9-5 13-9l-1 14z"/><path fill="#FFF" d="M211 390c1 2 1 7 5 2h2l2 4-2 1h-3c-1 1-2 1-2 3l1 1c2 1 2-1 3-1 3 4 2 10 6 14v2c-3 3 1 3 2 5-7 0-13 2-20 4l-1-2 12-14c-4-1-7 2-11 2v-1l8-6-17 2c5-4 11-5 16-9v-1h-2c-2 0-2-2-2-4l3-2z"/><path fill="#FFF" d="M190 649c13 0 23 5 33 11 2 1 3 2 3 4-1 2-3 1-5 2h-1l-38-13c2-3 5-4 8-4z"/><path fill="#FFF" d="M347 424c5-1 10-1 14 2 2 2 2 4 0 6-7 6-24 5-31-1-2-2-3-4 1-5l16-2z"/><path fill="#FFF" d="m91 605-22-15c-1 0-3-2-2-3 1-2 3-2 5-1l12 7c8 5 16 8 23 14l5 5c-8 1-15-3-21-7z"/><path fill="#FFF" d="M533 708a341 341 0 0 1-76-1v-1h13c19 0 39-1 58 1h5v1z"/><path fill="#F5F6F6" d="m24 398 3-6c3 0 2-2 2-3l4-5c0 5-1 11 2 15l1-2c0-1 0-2 2-2s1 2 1 3c0 3 0 6 2 8l3-6c1 7 2 13-2 21-5-9-11-16-18-23z"/><path fill="#FFF" d="m852 410 12-10c-7 1-13 3-19 6 2-4 4-7 15-15 4 4 5 9 8 13 1 2 1 3-1 4l-18 10c0-3 2-5 3-8z"/><path fill="#FFF" d="m726 691 70-25c-22 13-45 21-70 27v-2zm-516 63a441 441 0 0 1-80-35l64 27 16 6v2z"/><path fill="#FFF" d="M824 625c-9 7-18 13-28 18l-8 3-4-1c-1-2 1-3 2-4 7-5 15-8 23-12l14-4h1z"/><path fill="#FFF" d="m134 623 6 4c1 1 2 3 1 5-1 1-2 2-4 1-7-1-14-4-19-8-3-2-2-3 0-5h7l9 3z"/><path fill="#FFF" d="M242 652c2 1 5 2 6 4-7 4-17 2-38-7 7-2 20-1 32 3z"/><path fill="#FFF" d="M301 497c2-2 2-7 6-9 2 0 2-1 1-2-3-2-1-5 0-7 2-4 1-9 7-11l9 4a156 156 0 0 0-4 13l-1 1v-3l-1-4v-2l-1 1-2 3-1 3c-1 3-2 6-5 8l-1 2h-2 1c-1 3-3 2-6 3z"/><path fill="#FFF" d="m45 619 40 29-1 1c-15-8-28-17-40-29l1-1z"/><path fill="#FFF" d="m169 353 1-1c1-3 2-2 3 0 2 3 2 7 1 11-1 2-2 4 2 4l2 2-3 1c0-1 2-2 0-2-3 0-5 2-7 3l3-9c1-1 0-1-1-1l-12 10-1-1c2-6 6-10 9-15l2-1 1-1zm55 15c5-1 7 1 6 6 0 3 0 5-3 7h-1l-3 1-4 2-7 1v-4c3-3 6-3 9-5l-4-1-1-1c3-3 6-3 8-6z"/><path fill="#FFF" d="M842 585c-8 4-15 10-19 18-1 2-3 5-6 4-2-1 0-4 1-6 5-10 14-14 24-17v1z"/><path fill="#FFF" d="M266 668c-6 3-12 1-17-1-3-1-1-2 0-4 2-3 5-4 8-3 5 0 8 3 9 8z"/><path fill="#3C3C3C" d="M157 189c11-8 24-12 37-16l17-5c-4 3-8 4-12 5l-15 4c-3 1-6 2-6 4-2 4-5 4-7 5-5 0-9 0-13 3h-1z"/><path fill="#FFF" d="M469 689c-3 4-7 2-10 2l-7-1c-1 0-3 1-3-2 0-2 0-4 2-5 5-2 16 1 18 6z"/><path fill="#FFF" d="M297 666c6-1 11 3 10 8 0 2-1 3-3 3l-12-3c-2-1-2-2-1-3l6-5zm557-240c3-7 9-11 15-15l2 3c2 4 1 7-4 8s-9 3-13 6h-1l1-2z"/><path fill="#FFF" d="M158 636c-2 1-4 5-7 2-2-2-3-5-1-7 2-4 5-6 8-5 3 0 3 3 3 5s-1 4-3 5z"/><path fill="#FFF" d="M58 283c1 1 4 1 4 5l-1 2h-1l-2 2-1 1c-3 0-4 2-6 4l-3 3-2 3h-4c3-8 9-14 16-20z"/><path fill="#FFF" d="m169 645 11-8c1-1 1-2 3-2l1 4c0 4-2 7-8 8l-7 1c-3-1-2-2 0-3z"/><path fill="#F5F6F6" d="m31 331 2 4-1 3c-6 3-9 8-13 13l-5-2c3-8 10-13 17-18z"/><path fill="#FFF" d="M493 695c-4-3-6-8-4-13 0-2 1-3 3-3 2-1 3 1 3 3 2 5 3 9-2 13zm-221-31c2-4 5-8 8-6 4 2 1 6 0 9l-1 2c-1 1-2 3-4 3s-2-3-3-4v-4z"/><path fill="#FFF" d="M753 495c-11 7-22 10-35 9a5567 5567 0 0 1 35-9z"/><path fill="#FFF" d="M598 677c3 5 4 10 1 15-5-3-8-9-6-13 1-2 1-4 5-2z"/><path fill="#FFF" d="M346 309c1-2 2-2 4-2l1 4v6c-3 2-6 2-10 2-1-1-3-2-2-4l7-6z"/><path fill="#FFF" d="m866 425 3-1c1-1 3-3 3-1 1 2 3 6-1 7s-9 4-13 8c1-7 4-9 8-13z"/><path fill="#3C3C3C" d="M213 169c8-4 16-3 24-2 9 0 17 2 27 4-5 2-9-1-13-1-12-2-25-3-38-1z"/><path fill="#FFF" d="M338 284c2 1 2 3 2 5l-2 3c-2 5-2 10-3 16-2-3-3-5-3-9-2-2 0-4 0-7l1-2 1-3 1-1 1-2h2z"/><path fill="#FFF" d="M54 411c-1-8 1-16 3-25 4 10 3 18-3 25z"/><path fill="#FFF" d="m699 666 1 3c2 2 3 6 0 7-3 2-5-2-7-4v-3c-1-2-1-4 1-6 2-1 3 2 5 3z"/><path fill="#B8B8B8" d="M71 684z"/><path fill="#F5F6F6" d="m26 348 4 1c-4 7-8 14-9 23-1 1-3 1-4-1v-3c2-8 4-15 9-20z"/><path fill="#FFF" d="M169 282a120 120 0 0 0 6 4l-1 1c-4 2-7 6-10 10l-2-2 4-11 1-1 1-1h1z"/><path fill="#FFF" d="m40 563 10 6 1 2-2 1c-3 1-10-2-12-5-1-2 0-4 3-4z"/><path fill="#F5F6F6" d="M217 185v-1c7-6 16-5 25-3-1 2-3 1-6 1-6 1-12 4-19 3z"/><path fill="#FFF" d="M66 402c1 7 1 13-7 17l5-17h2z"/><path fill="#B8B8B8" d="m84 649 1-1c9 5 17 11 27 14l-1 2-27-15z"/><path fill="#FFF" d="M397 289c-1-4 1-5 4-4l9 8v1c-5 0-9-2-13-5z"/><path fill="#FFF" d="M161 288c-4-2-1-5 0-7 2-3 5-5 10-2l-2 1-1 2-1 1-1 1c-2 0-3 3-5 4z"/><path fill="#3C3C3C" d="M364 700z"/><path fill="#FFF" d="M62 290c2 0 2 2 4 3l-3 3c-2-1-2 1-3 2l-2 3c-3 0-3-1-2-3l2-5v-1l2-2h2z"/><path fill="#F5F6F6" d="m67 334 2 1 1 1h-1c-3 3-4 8-8 11 0-4 1-7 3-10v-1l1-1 1-1h1z"/><path fill="#B8B8B8" d="m317 477 1-3c1 1 2 2 1 4-1 1 0 3-2 5l-5 9c-2-3 2-5 1-8l1-3 2-3 1-1z"/><path fill="#FFF" d="M864 441c2-4 5-7 8-9 2 6 2 6-6 9h-2z"/><path fill="#F5F6F6" d="M70 371c2 0 2-2 5-2l-2 13-3-11zm11-30c0-3-1-6 4-7 0 4-2 9-4 14v-7z"/><path fill="#B8B8B8" d="M98 675z"/><path fill="#FFF" d="M207 392c2 0 2 2 3 4-3 2-7 1-10 2l-1-1 8-5z"/><path fill="#B8B8B8" d="M357 469v3l-2 3-3 7h-1c1-5 1-10 6-13z"/><path fill="#FFF" d="m162 318 3 1c0 4-2 6-5 9l-1-1 3-9z"/><path fill="#3C3C3C" d="M423 642a610 610 0 0 1-6-11l7 7c3 2 1 3 0 4h-1z"/><path fill="#F5F6F6" d="M148 211v4c-2 2-6 5-7 3-2-3 3-4 5-6l2-1z"/><path fill="#B8B8B8" d="m323 476 1-3c3-1 4 1 3 4l-2 5h-1l-1-6z"/><path fill="#FFF" d="m353 259 2-1c6-1 6-1 4 6l-6-5zm-92-75c-2 1-6-1-8 3l-2-2 1-3 9 2z"/><path fill="#B8B8B8" d="M427 710v-2l1-1c3-3-1-6 0-8 2-1 2 2 4 2 1 4-2 6-5 9z"/><path fill="#FFF" d="M362 482c1 1 2 2 0 4l-1 2-4 2 3-8h2zm440 26c-1-2-5 0-5-3 3 2 4-1 5-2s1-3 4-3l-4 8z"/><path fill="#3C3C3C" d="M315 563c-2-5-1-9-2-14 2 4 2 9 3 14h-1z"/><path fill="#F5F6F6" d="M41 303h4l-8 8-1 1c1-4 3-6 5-9z"/><path fill="#B8B8B8" d="M64 578c2-2 4-2 3 1-1 2-2 4-5 5-1-3 1-4 2-6zM29 308l-2-1 9-6v1l-7 6zm181 446v-2a141 141 0 0 1 11 5l-11-3z"/><path fill="#FFF" d="M163 255c0-5 3-6 8-4v1l-4 2-4 1z"/><path fill="#FFF" d="M313 466c-6 0-7 0-6-6l6 6z"/><path fill="#3C3C3C" d="M650 698v-1c3-2 7-2 10-2-3 1-6 3-10 3z"/><path fill="#B8B8B8" d="m172 472 1 3-5 6c0-4 2-6 4-9z"/><path fill="#FFF" d="M321 305c0-2 0-3 2-4l2 9-1 1h-1c-1-1-2-1-2-3v-3zM78 283c0-4 3-5 7-5v1l-7 4zm107 56v4c-3 0-4-1-5-3l5-1z"/><path fill="#939393" d="M114 337c-1-4 1-7 1-11l1-1v12h-2z"/><path fill="#3C3C3C" d="m395 322-4-8c3 2 4 5 5 8h-1z"/><path fill="#B8B8B8" d="M808 660c-3 4-7 5-11 6 2-3 5-3 8-5l3-1z"/><path fill="#FFF" d="M376 247c-2-1-5-1-6-4l10 2c-1 2-2 2-4 2z"/><path fill="#F5F6F6" d="M27 382h-3c-1-3 1-5 2-8 2 2 1 5 1 8z"/><path fill="#FFF" d="M138 269c-1-2-2-4 0-5 1-2 2 1 4 2l-4 3z"/><path fill="#B8B8B8" d="m872 447-6 2 6-7c2 2 1 3 0 5z"/><path fill="#FFF" d="M99 328c-3-2-3-4 1-7l-1 7z"/><path fill="#676767" d="M408 732c-4-2-1-6-1-9l2 9h-1z"/><path fill="#FFF" d="M154 357c1 1 2 1 2 3-1 1-3 1-3 3l-2-1c0-2 2-3 3-5z"/><path fill="#B8B8B8" d="m457 426-1 2-7-3v-1l8 2z"/><path fill="#FFF" d="m410 736 3-1c1 2 2 4 0 6-2-1-2-3-3-5z"/><path fill="#3C3C3C" d="M414 733c-3-2-2-4-3-7h1l3 7h-1zM313 484c2-1 2-1 1 1l-2 7h-3l4-8z"/><path fill="#939393" d="M108 708z"/><path fill="#FFF" d="m154 289 3 2-4 4c-1-2 1-4 1-6z"/><path fill="#3C3C3C" d="m352 518 2 10c-2-3-3-6-3-10h1z"/><path fill="#FFF" d="m762 607-1-1c2-1 5-3 9-3l-8 4z"/><path fill="#FFF" d="M104 255c0 4-2 4-6 3l6-3z"/><path fill="#FFF" d="M164 259c3 1 1 2 1 4l-2 2c-2 0-2-1-1-3l2-3z"/><path fill="#B8B8B8" d="M455 639v2c-3 1-6 0-8-1l8-1z"/><path fill="#FFF" d="m86 374 5 1v3h-4l-1-4z"/><path fill="#3C3C3C" d="m622 628-9 1c-1-2 0-2 1-2l8-1v2z"/><path fill="#939393" d="M417 809h-8l1-2h6l1 2z"/><path fill="#3C3C3C" d="M709 703c2-2 5-2 8-2l-8 3v-1z"/><path fill="#FFF" d="M226 424c-2 3-5 4-8 4l8-4z"/><path fill="#B8B8B8" d="m162 262 1 3c-1 2-3 2-5 3 0-3 2-4 4-6z"/><path fill="#FFF" d="m174 481 2 2-4 3 2-5z"/><path fill="#FFF" d="m86 379 4-1v2c0 1 0 4-2 3-3 0-2-2-2-4z"/><path fill="#FFF" d="M166 266c1 0 3 0 3 2-1 1-3 3-4 0l1-2z"/><path fill="#676767" d="M307 553v-9h1l1 7-2 2z"/><path fill="#939393" d="m304 565 2-1c0 2 0 5-2 7v-6z"/><path fill="#FFF" d="m339 315 2 3h-4c-1-2 0-2 2-3z"/><path fill="#F5F6F6" d="M159 211c-1-4 1-5 4-3v2l-4 1z"/><path fill="#FFF" d="m376 247 4-1 5 2h-9v-1z"/><path fill="#F5F6F6" d="M52 297c-1-3 1-4 5-5v1l-5 4z"/><path fill="#FFF" d="M339 305c2 0 5-1 5 3-2 0-5 2-5-3zm-39 126v-2c-1-1-2-2-1-3 1 0 2 0 3 2l-2 3zm-73-10c0-2 2-3 4-2 0 1 4 0 1 3-1-2-3 0-5-1z"/><path fill="#F5F6F6" d="M24 384c0 1 1 2-1 3l-2-1c-2-1 0-2 1-3h1l1 1z"/><path fill="#FFF" d="m349 413 1 2h-6v-1l3-1h2z"/><path fill="#3C3C3C" d="m253 525 3 4 1 3h-1l-4-6 1-1z"/><path fill="#B8B8B8" d="m151 362 1 1-4 4c0-2 1-3 3-5zm-21 357h-1l-6-2v-2l7 4z"/><path fill="#F5F6F6" d="m56 298 1 3-2 3h-2l3-6z"/><path fill="#3C3C3C" d="m534 423 4-6 1 1-3 5h-2z"/><path fill="#939393" d="m62 607-1 1c-3 0-4-2-5-3v-1l6 3z"/><path fill="#F5F6F6" d="m42 363 2 1-3 6 1-7z"/><path fill="#FFF" d="m162 295 1 2-3 4c-1-2 1-4 2-6z"/><path fill="#939393" d="M709 703v1l-6 2v-2l6-1z"/><path fill="#FFF" d="M181 329c1 0 2-3 4-1 1 2-1 3-3 3l-1-2zm78 164-1-1c0-1-1-3 2-4l1 1c1 2-1 2-2 3v1z"/><path fill="#B8B8B8" d="m785 743-1-1c1-2 3-3 6-3l-5 4z"/><path fill="#939393" d="M756 360h-2l-3-4c2 0 4 1 5 4z"/><path fill="#FFF" d="M140 234c0 2 0 4-4 3l4-3z"/><path fill="#939393" d="M205 410v1c-1 2-3 2-5 3l5-4z"/><path fill="#676767" d="M450 625h6l-6 2v-2z"/><path fill="#939393" d="M470 363v2l-6-3 6 1z"/><path fill="#FFF" d="M169 330c2 1 0 3 1 5l-2 1-1-1 2-5z"/><path fill="#B8B8B8" d="M162 705v2l-5-2v-1l5 1z"/><path fill="#3C3C3C" d="M417 809v-2l8 1-8 1z"/><path fill="#FFF" d="M151 222c2 0 4 0 3 2 0 2-2 0-4 0l1-2z"/><path fill="#FFF" d="M409 807v2c-2 0-4 1-6-1 2-2 4-1 6-1z"/><path fill="#FFF" d="M118 248c0 1 0 3-2 3-1 1-1 0-1-1 1-1 1-2 3-2z"/><path fill="#B8B8B8" d="M401 736h1l2 5c-3-1-2-3-3-5z"/><path fill="#FFF" d="m17 371 4 1v2l-3 1-1-4z"/><path fill="#676767" d="M332 292v7h-2l2-7z"/><path fill="#B8B8B8" d="M432 697c-2-2-2-3-2-6 2 1 2 3 3 5l-1 1z"/><path fill="#676767" d="m540 433 3-6c1 2-1 4-1 6h-2z"/><path fill="#FFF" d="M216 456c3-3 4-1 4 3l-4-3z"/><path fill="#FFF" d="M327 306h2c1 2 2 3 1 5-2-1-2-3-3-5z"/><path fill="#B8B8B8" d="M459 381v2l-5-3c2-1 3 0 5 1z"/><path fill="#FFF" d="M165 308c1 2 1 4-2 6l2-6z"/><path fill="#676767" d="m555 466 3-6-1 6h-2z"/><path fill="#FFF" d="M339 238c0 2-1 3-3 2-1 0-1-1 1-2h2zm7 142h-2v-3l2 3z"/><path fill="#676767" d="M341 514v6h-1l-1-6h2z"/><path fill="#B8B8B8" d="m59 348 2-2 1 2-3 4v-4z"/><path fill="#939393" d="M323 642h2l-2 5v-5z"/><path fill="#B8B8B8" d="m479 494 4 4-1 1-4-4 1-1z"/><path fill="#676767" d="m178 487 2 1c-2 0 0 2-1 3-2-1-2-2-1-4z"/><path fill="#3C3C3C" d="m448 527 5 4-1 1-4-4v-1z"/><path fill="#F5F6F6" d="M9 373c0-1-1-2 1-3h1c1 2 0 3-2 3z"/><path fill="#B8B8B8" d="M759 705v-1l5-3v2l-5 2zm71-141-1-1 5-3v1l-4 3z"/><path fill="#939393" d="m467 558 1-1c2 1 2 3 2 4-2 0-2-2-3-3zm148-12 1-1 4 4c-2 0-3-1-5-3zM157 703v1l-5-2 5 1z"/><path fill="#676767" d="M423 535c-2 0-4-1-5-3 3 0 4 1 6 3h-1z"/><path fill="#3C3C3C" d="m323 585 1 5h-2v-5h1z"/><path fill="#FFF" d="M354 299c-3-1-3-3-2-5l2 5z"/><path fill="#939393" d="M562 479c-1-2 0-4 1-6v6h-1z"/><path fill="#B8B8B8" d="M356 482h1l-1 6c-2-2-1-4 0-6z"/><path fill="#676767" d="M350 482h2l-2 5v-5z"/><path fill="#FFF" d="m97 409 1 2-2 3h-1l2-5z"/><path fill="#3C3C3C" d="m477 402 3 3v1c-2 0-3-1-4-3l1-1z"/><path fill="#939393" d="M519 446h2l-2 3v-3z"/><path fill="#676767" d="m359 477 2-5v5h-2z"/><path fill="#939393" d="M794 392h-1l-2-5 3 5z"/><path fill="#F5F6F6" d="m18 375 2-1 1 4c-1-1-3-1-3-3z"/><path fill="#939393" d="M442 260h4c-1 2-2 2-4 2v-2z"/><path fill="#FFF" d="M319 316c-2 0-2-2-1-3 0-1 1-1 2 1l-1 2z"/><path fill="#FFF" d="M423 642h1l1 4h-1l-3-4h2z"/><path fill="#B8B8B8" d="m257 532-1-3h1l2 3c0 2-1 1-2 0z"/><path fill="#676767" d="M482 545c2 1 1 3 2 4-2 0-2-2-3-3l1-1zM379 667l-1-5h1l2 5h-2z"/><path fill="#B8B8B8" d="m45 619-1 1-4-4h1l4 3zm113-292 2 1-2 3h-1l1-4z"/><path fill="#3C3C3C" d="M535 706h7l-7 2v-2z"/><path fill="#939393" d="M764 703v-1l5-3v1l-5 3z"/><path fill="#B8B8B8" d="m410 324 1-1 2 5-3-4z"/><path fill="#676767" d="M764 519c-1 2-2 2-3 2 0-2 1-2 3-3v1z"/><path fill="#F5F6F6" d="M148 226c0 2 1 4-3 4 0-2 1-3 3-4z"/><path fill="#3C3C3C" d="m403 733-2-4h2l1 4h-1z"/><path fill="#B8B8B8" d="m91 727-2 2-2-2v-1l4 1zm112-304 1 1c-1 2-2 2-4 2l3-3z"/><path fill="#939393" d="M200 462v-2c2 0 3 1 4 3l-4-1z"/><path fill="#B8B8B8" d="M476 423v2l-3-3v-1l3 2z"/><path fill="#3C3C3C" d="M564 704v1c-1 1-3 2-3 0-1-1 1-1 3-1z"/><path fill="#B8B8B8" d="M106 393c0-2 0-3 2-4v4h-2z"/><path fill="#3C3C3C" d="m407 668-2-5h2l1 5h-1z"/><path fill="#202020" d="m167 254 4-2v1l-3 2-1-1z"/><path fill="#939393" d="M515 301v2h-4c1-2 2-2 4-2z"/><path fill="#676767" d="m688 781-5 2c1-2 2-2 4-2h1z"/><path fill="#FFF" d="M239 478c3-1 3 0 3 2l-3-2z"/><path fill="#939393" d="M178 483c2 0 3-2 5-1-1 2-2 2-4 2l-1-1z"/><path fill="#B8B8B8" d="m753 496-1-1 4-2h1l-4 3z"/><path fill="#FFF" d="M206 450c2-3 3-2 3 1l-3-1z"/><path fill="#939393" d="M565 346v-2l3 1-3 1z"/><path fill="#FFF" d="M86 389v-1c0-2-1-4 1-5l1 1c1 1 0 3-1 5h-1z"/><path fill="#B8B8B8" d="M362 283h-1l-1-3 2 3z"/><path fill="#939393" d="M85 389h2l-1 4-1-4z"/><path fill="#676767" d="M93 673c-2 0-3 0-4-2l5 2h-1z"/><path fill="#3C3C3C" d="M325 299v1h-2l-1-2v-2h2l1 3z"/><path fill="#FFF" d="M208 432c0 3-2 3-4 3l4-3z"/><path fill="#676767" d="m37 302-1-1 3-2c0 2-1 2-2 3zm50 27 1-4h1v4h-2zm132 55 4-2h1l-3 2h-2z"/><path fill="#939393" d="M93 673h1l4 2h-1l-4-2zm100-212-4-2h4v2zm126 168h1c1 1 0 3-1 4v-4z"/><path fill="#F5F6F6" d="M60 299c0-2-1-4 3-3l-3 3z"/><path fill="#3C3C3C" d="m546 457 1-3h1v3h-2z"/><path fill="#939393" d="m424 659 1-1c1 1 2 2 1 3l-2-2z"/><path fill="#3C3C3C" d="m630 539 3 1v2l-3-3z"/><path fill="#FFF" d="m395 268-4-2 1-1c2-1 2 1 3 2v1z"/><path fill="#676767" d="m777 533-2 1c0-2 2-3 3-2l-1 1z"/><path fill="#202020" d="m318 483 1-5v5h-1z"/><path fill="#3C3C3C" d="m376 717 1 5h-1l-1-5h1z"/><path fill="#939393" d="M66 402h-2l1-3 1 3z"/><path fill="#F5F6F6" d="M44 350c3 1 2 2 0 3v-3z"/><path fill="#676767" d="m31 498-2-2c1-2 2 0 3 1l-1 1z"/><path fill="#FFF" d="M199 396v1l-3 2v-2l3-1z"/><path fill="#B8B8B8" d="M812 421h-1l-2-4h1l2 4zm-705-13h1l-2 3 1-3zm581 374v-1l3-2v2l-3 1z"/><path fill="#939393" d="M226 681v2l-4-1v-1h4zm575-227 1-3h1l-1 3h-1z"/><path fill="#B8B8B8" d="m500 275 2 1-1 2-1-3z"/><path fill="#FFF" d="m176 392 2 1c-1 1-2 2-3 1s0-1 1-2z"/><path fill="#939393" d="m252 181-1 3h-1c1-1-2-3 2-3z"/><path fill="#676767" d="m769 700 3-2c1 2-1 2-2 2h-1z"/><path fill="#3C3C3C" d="m276 175 3 1c-1 1-2 1-3-1z"/><path fill="#676767" d="M221 757v-1l4 2-4-1z"/><path fill="#939393" d="M410 295v-2l4 1c-1 2-2 1-4 1z"/><path fill="#676767" d="M228 521c-1-1-2-2-1-3s2 1 2 2l-1 1z"/><path fill="#B8B8B8" d="M801 460h-2c0-1 0-3 2-3v3zm-37 60v-2l3-2v2l-3 2z"/><path fill="#939393" d="m636 319 1-2c1 0 2 0 2 2h-3z"/><path fill="#3C3C3C" d="M573 319c1-1 2-1 4 1h-4v-1z"/><path fill="#B8B8B8" d="M42 519v2l-3-3v-1l3 2z"/><path fill="#939393" d="M404 362h-1c-1-1-2-2-1-3 2 0 1 2 2 3zM138 220c0 2-2 2-3 2h-1l2-2h2z"/><path fill="#FFF" d="M397 340h1l2 3h-2l-1-3z"/><path fill="#202020" d="m483 474 2 2v2l-3-3 1-1z"/><path fill="#676767" d="m600 471 2-4c0-1 0 0 0 0v4h-2z"/><path fill="#939393" d="M453 330v2l-3-2h3z"/><path fill="#B8B8B8" d="M658 561v-2l4 1c-1 2-2 1-4 1zm202-194-1 1-2-2v-2l3 3zM249 538h2v2c-1 1-1-1-2-2z"/><path fill="#676767" d="m682 517-4-2h4v2z"/><path fill="#3C3C3C" d="m376 274-2-1v-2l3 2-1 1z"/><path fill="#FFF" d="M177 380v2l-2 3v-2l2-3zm-42-142c1 0 2 2 0 2-1 1-1 0-1-1l1-1zm7-6s2 0 1 1h-2l1-1z"/><path fill="#FFF" d="M202 509c2 0 1 1 1 3-2-1-1-2-1-3z"/><path fill="#FFF" d="m309 210-1 2-1-2h2z"/><path fill="#FFF" d="M168 314c0-1-1-2 1-2v2h-1z"/><path fill="#FFF" d="M323 311h1l1 3v1l-2-2v-2z"/><path fill="#3C3C3C" d="M794 737c0 1-1 3-2 1-2-1 0-1 1-1h1z"/><path fill="#676767" d="M319 486h1c0 1 0 3-2 2l1-2z"/><path fill="#FFF" d="M335 247c0-1-1-2 2-3v2l-2 1z"/><path fill="#3C3C3C" d="m41 474 3-1c-1 1-1 2-3 2v-1z"/><path fill="#939393" d="M781 444v-3h2l-1 3h-1z"/><path fill="#3C3C3C" d="M222 680v2l-2-1c-1-1 1-1 2-1z"/><path fill="#FFF" d="M248 486c1 0 3 0 3 2l-3-2z"/><path fill="#B8B8B8" d="M726 691v1c-1 1-2 2-3 1l3-2z"/><path fill="#FFF" d="M306 208c-1 0-3 0-3-2l3 2z"/><path fill="#3C3C3C" d="m84 724-2-2 3 2h-1zm69-533c0-1 1-2 3-2 0 1-1 2-3 2z"/><path fill="#B8B8B8" d="m108 708-3-1v-1l3 1v1z"/><path fill="#939393" d="M160 463c0 2-1 2-3 2 0-2 1-2 3-2z"/><path fill="#3C3C3C" d="m774 601-1 2v-1l1-1z"/><path fill="#939393" d="m41 465 2-1c1 2 0 2-2 2v-1zm801 120v-1l2-1c1 1-1 1-2 2zM123 716c-2 0-3 0-3-2l3 1v1z"/><path fill="#676767" d="m355 475 2-3v3h-2z"/><path fill="#B8B8B8" d="M786 351h2l-2 3v-3zM53 304h1l-1 2h-1l1-2z"/><path fill="#939393" d="M470 346v2c-1 0-2 0-3-2h3z"/><path fill="#F5F6F6" d="M49 300c-1-2-1-3 2-3l-2 3z"/><path fill="#676767" d="M85 280v-1l3-1-3 3v-1z"/><path fill="#FFF" d="M162 273c0 1 0 2-2 3l2-3z"/><path fill="#939393" d="m338 292 2-3-1 3h-1z"/><path fill="#676767" d="m186 381 3-2c2 1 1 1 0 2h-3z"/><path fill="#F5F6F6" d="M83 284c0 1 0 3-2 3l2-3zm-20-4c0 1-1 2-3 2l3-2z"/><path fill="#3C3C3C" d="M10 327H8c-1-1 1-1 2-2v2z"/><path fill="#676767" d="m40 616-1-2 2 1-1 1z"/><path fill="#3C3C3C" d="M326 611v4h-1l1-4z"/><path fill="#FFF" d="M160 357c0-1 0-2 3-1l-3 1z"/><path fill="#202020" d="m493 355-3-2 1-1 2 2v1z"/><path fill="#FFF" d="M139 220h-2c0-1 1-3 2-2v2z"/><path fill="#3C3C3C" d="M331 625v-4c2 1 1 2 1 4h-1z"/><path fill="#FFF" d="M320 314h2v3c-2 1-2-1-2-3z"/><path fill="#FFF" d="M393 274c0 1 0 2-1 1l1-1z"/><path fill="#B8B8B8" d="M535 706v2h-2v-1l2-1z"/><path fill="#676767" d="m850 380 2-1-2 2v-1z"/><path fill="#B8B8B8" d="m167 335 1 1c0 1-1 2-2 1l1-2z"/><path fill="#F5F6F6" d="M70 342v2-2z"/><path fill="#3C3C3C" d="M163 210v-1h3l-2 2-1-1z"/><path fill="#B8B8B8" d="m404 337 2-1v2c-1 1-1-1-2-1z"/><path fill="#F5F6F6" d="M88 336v2-2z"/><path fill="#939393" d="M398 343h1l1 3-2-3z"/><path fill="#3C3C3C" d="m416 652 2 2h-1l-2-2h1z"/><path fill="#B8B8B8" d="m475 552 1-1 2 1-1 2-2-2z"/><path fill="#FFF" d="m88 329 1-1 2 1-2 1-1-1z"/><path fill="#676767" d="M196 675v-2c1 0 2 0 2 2h-2z"/><path fill="#F5F6F6" d="M69 348v2-2z"/><path fill="#939393" d="m174 383 1 1c-1 1-1 2-2 1s1-1 1-2z"/><path fill="#676767" d="m461 397-2-1v-1c1 0 2 0 2 2z"/><path fill="#B8B8B8" d="M196 397v1l-3 1 3-2z"/><path fill="#676767" d="M407 740h1l1 2-2-2z"/><path fill="#3C3C3C" d="M266 172h2-2z"/><path fill="#FFF" d="M153 260c0-1 0-2 2-1l-2 1zm226-4c-1 1-1 1-2-1l2 1z"/><path fill="#939393" d="M811 417h-1c-1-1-2-2-1-3l2 3z"/><path fill="#FFF" d="M211 431c0 1-1 2-3 1l3-1z"/><path fill="#939393" d="m561 284 1-1v2l-1-1z"/><path fill="#FFF" d="M361 420c0-1 0-2 1-1l-1 1zm10-171c0-1 0-2 2-1l-2 1zm-22 34c-1 0-2 0-1-2l1 2z"/><path fill="#FFF" d="m409 733 2 2c-1 0-2 0-2-2z"/><path fill="#939393" d="M112 683v-1c1 0 2 0 2 2l-2-1zm-41 1-1 1c-1 0-2-1-1-2l2 1z"/><path fill="#B8B8B8" d="M310 492h2l-2 2v-2z"/><path fill="#3C3C3C" d="m791 491-2 1 1-2 1 1z"/><path fill="#676767" d="M323 482h2l-1 2h-1v-2z"/><path fill="#3C3C3C" d="m120 687 3 1-3-1z"/><path fill="#676767" d="M170 361c0-1 1-2 2-1l-1 2-1-1z"/><path fill="#939393" d="m478 554 1 2h-1v-2z"/><path fill="#676767" d="m400 314 2 2h-1l-1-1v-1zM94 414h2l-2 2v-2zm108 88 2 2h-2v-2z"/><path fill="#939393" d="M460 495v2l-2-1v-1h2z"/><path fill="#3C3C3C" d="m152 702-3-1h3v1z"/><path fill="#676767" d="m260 534-1 1 1-1z"/><path fill="#939393" d="M157 332c-1 1-1 2-2 1l1-1h1zm99 206 1 2-1-1v-1zm326 6-1-1v-2l1 2v1zm0-1 1 1h-1v-1zM20 458h2l-1 1-1-1zm387-118-1-1 1 1z"/><path fill="#3C3C3C" d="m467 535-2-1 1-1h1v2z"/><path fill="#676767" d="m808 660-2 1 2-1z"/><path fill="#B8B8B8" d="M801 454h1l-1 2v-2z"/><path fill="#676767" d="M51 306h2c0 1-1 2-2 0zm123-19 1-1v2l-1-1z"/><path fill="#939393" d="M368 285h-1l-1-1c1-1 1 0 2 1zm-49 348v1-1z"/><path fill="#3C3C3C" d="M777 601v-1 1z"/><path fill="#939393" d="m56 604-2-1 2 1z"/><path fill="#676767" d="m325 317 1-1-1 1z"/><path fill="#939393" d="m36 312-1 1v-1h1zm120 19h2l-1 1h-1v-1z"/><path fill="#B8B8B8" d="M478 554v1l-2-1 1-1 1 1z"/><path fill="#3C3C3C" d="m419 556-1-1c1-1 1 0 2 1h-1z"/><path fill="#B8B8B8" d="m426 648 1 2-1-2zm-2-2h1l1 1-2-1zm21-84h1c1 1 2 1 1 2l-2-2z"/><path fill="#202020" d="M225 758h1-1z"/><path fill="#B8B8B8" d="m864 442-1 1v-2l1 1z"/><path fill="#3C3C3C" d="M323 311v2h-1l-1-2h2z"/><path fill="#F5F6F6" d="m27 374 1-1-1 1z"/><path fill="#676767" d="M757 493h-1c1-1 1-2 1 0z"/><path fill="#B8B8B8" d="m478 493-2-1 2 1z"/><path fill="#939393" d="M87 725v2c-1-1-3-1 0-2z"/><path fill="#676767" d="m323 484-1 1 1-1zM120 687l-2-1 2 1z"/><path fill="#3C3C3C" d="m147 700 2 1-2-1z"/><path fill="#676767" d="m58 353 1 1-1-1z"/><path fill="#3C3C3C" d="M125 689h-2v-1h2v1zm2 1h-2v-1l2 1z"/><path fill="#676767" d="m855 363 2 1h-1l-1-1z"/><path fill="#FFF" d="M172 376c0-1 0-2 1-1l-1 1z"/><path fill="#3C3C3C" d="M138 696v-1 1zm9 4-1-1 1 1z"/><path fill="#676767" d="m721 694-1-1h2l-1 1zM473 420v2c-1 0-2-1 0-2z"/><path fill="#939393" d="M587 286h1v1l-1-1z"/><path fill="#3C3C3C" d="M127 690h1-1z"/><path fill="#939393" d="m36 312 1-1-1 1c-1 0 0 0 0 0zm48 412h1-1z"/><path fill="#FFF" d="m281 194-1-1 1 1z"/><path fill="#676767" d="m775 698-1-1 1 1z"/><path fill="#939393" d="m118 714 1-1-1 1z"/><path fill="#3C3C3C" d="m134 694-1-1 1 1zm-2-1-1-1 1 1zm3 1 1 1-1-1z"/><path fill="#939393" d="M366 283h-1 1z"/><path fill="#3C3C3C" d="m129 692 1-1v1h-1zm683-33-1-1 1 1zM66 681l-1-1h1v1z"/><path fill="#676767" d="m810 659-1 1 1-1z"/><path fill="#3C3C3C" d="M63 679h1-1zm0 0z"/><path fill="#939393" d="M66 681h1v1l-1-1c-1 0 0 0 0 0z"/><path fill="#FFF" d="M160 301z"/><path fill="#3C3C3C" d="m796 735 1 1-1-1zm-2 2c0-1 1-2 0 0zM64 336v1h-1l1-1z"/><path fill="#676767" d="m118 686-1-1h1v1z"/><path fill="#3C3C3C" d="m154 272-1-1 1 1z"/><path fill="#939393" d="m116 684-1 1 1-1z"/><path fill="#3C3C3C" d="M816 657c-1 0 0 0 0 0z"/><path fill="#939393" d="m67 682 1 1h-1v-1z"/><path fill="#3C3C3C" d="m813 657 1 1-1-1z"/><path fill="#939393" d="m204 463 1 1h-1v-1z"/><path fill="#FFF" d="M157 370c0 1-1 1 0 0zm10 2 1-1-1 1z"/><path fill="#B8B8B8" d="M452 379c0-1 1 0 0 0zm413 72z"/><path fill="#FFF" d="m18 447-1 1v-1h1z"/><path fill="#676767" d="m855 363-1-1h1v1z"/><path fill="#B8B8B8" d="m162 473-1 1v-1h1zm694-109h1v1l-1-1zM162 473c0-1 0-2 1-1l-1 1zm-14-106-1 1 1-1z"/><path fill="#676767" d="M471 419v1l-1-1h1z"/><path fill="#FFF" d="M864 442v-1h1l-1 1z"/><path fill="#F5F6F6" d="M24 382v1h-1l1-1z"/><path fill="#B8B8B8" d="M200 426s0 1 0 0z"/><path fill="#676767" d="m457 394 1 1-1-1z"/><path fill="#939393" d="m837 559-1 1 1-1zm0 0 1-1-1 1z"/><path fill="#3C3C3C" d="m840 557-1 1 1-1zm0 0v-1 1zm2-1 1-1-1 1z"/><path fill="#939393" d="M834 561c1-1 2-2 1 0h-1zm-214-12 1 1h-1v-1z"/><path fill="#FFF" d="M581 541v1-1z"/><path fill="#FFF" d="M396 268h-1 1z"/><path fill="#3C3C3C" d="m51 600 1 1-1-1z"/><path fill="#FFF" d="M824 625zM322 321l1-1-1 1z"/><path fill="#939393" d="m53 602 1 1-1-1z"/><path fill="#3C3C3C" d="M52 601h1v1l-1-1zm-1-1z"/><path fill="#939393" d="m134 222-1 1 1-1z"/><path fill="#B8B8B8" d="m157 269-1 1 1-1zm291 296-1-1 1 1zM157 269l1-1-1 1z"/><path fill="#FFF" d="m482 499 1-1c1 1 0 1-1 1z"/><path fill="#676767" d="M202 505v-1 1z"/><path fill="#939393" d="m458 495-1-1h1v1z"/><path fill="#B8B8B8" d="m478 493 1 1h-1v-1z"/><path fill="#FFF" d="M307 494h-1v-1l1 1z"/><path fill="#676767" d="M759 492v-1 1z"/><path fill="#B8B8B8" d="m39 518-1-1h1v1z"/><path fill="#171719" d="M27 347c-4 6-7 13-9 21h-2l2-17a37 37 0 0 1 17-16h1c-3 4-7 7-9 12z"/><path fill="#FFF" d="M16 368h2l-1 2-1-2z"/><path fill="#050405" d="M16 311v-1 1z"/><path fill="#F5F6F6" d="M15 357c0 1 0 0 0 0z"/><path fill="#050405" d="M23 383h1v1l-1-1z"/><path fill="#B8B8B8" d="m807 770-1 2-1-1c1-1 1-2 2-1z"/><path fill="#939393" d="m851 738 1-2v3c-1 1-1 0-1-1z"/><path fill="#3C3C3C" d="M888 624c0 1 0 2-1 1 0-1-1-2 1-3v2z"/><path fill="#B8B8B8" d="m827 760-1-1v-1l1 2zm0-3 1-1v1h-1zm0 3z"/><path fill="#0E0F0F" d="M694 350c22 13 40 32 53 55l1 2c0 1 1 3 2 2 2 0 0-2 0-3-3-15-9-29-18-41l-6-8c12 3 28 25 32 46 5 22 2 44-12 63l2-22c0-19-6-35-16-49a315 315 0 0 0-38-45z"/><path fill="#0A0A0A" d="M664 352c21 13 41 28 56 48 8 12 14 26 16 40 1 10-1 20-7 29h-2c3-13 2-25-3-37-7-17-19-32-31-46a578 578 0 0 0-29-34z"/><path fill="#0E0F0F" d="M654 369c12 12 26 22 39 33 8 6 15 13 20 21 7 13 9 27 4 41l-1 1c0-11-1-22-6-32-5-9-13-16-20-22-15-12-27-25-37-41l1-1zm-23 6c14 27 33 48 57 65h-3c-23-8-38-24-48-46l-7-18 1-1z"/><path fill="#171719" d="M671 482c22 7 44 5 66-1h4v1c-12 6-24 10-37 11-12 0-23-3-34-10l1-1z"/><path fill="#0E0F0F" d="M617 398a515 515 0 0 0 37 46c-15-7-24-18-31-32l-6-12v-2zm-7-39c-4 14-3 27-2 40-9-17-10-36 4-46l-2 6z"/><path fill="#171719" d="M583 381c3-11 5-15 11-19-6 14-9 29-8 45-3-8-4-17-3-26zm32 45c9 10 14 23 19 36h-1c-9-11-13-23-20-35l2-1z"/><path fill="#202020" d="m609 435 9 22c-7-5-13-18-13-28 2 1 2 4 4 6zm-36-20 7 32c-6-10-7-20-8-32h1z"/><path fill="#3C3C3C" d="m590 428 7 22c-5-6-6-14-8-22h1z"/><path fill="#939393" d="M556 419z"/><path fill="#3C3C3C" d="M570 390c0-5 1-9 5-13l-4 13h-1z"/><path fill="#676767" d="m622 350-3 11h-2l4-11h1zm9 25-1 1-1-7 2 6zm-14 22v2l-3-6 3 4z"/><path fill="#3C3C3C" d="M741 482v-1l5-2v1l-5 2z"/><path fill="#676767" d="M569 390h1v5c-2-1-1-3-1-5zm22 38h-1l-1-6 2 6z"/><path fill="#B8B8B8" d="M557 419h-2l2-5v5z"/><path fill="#3C3C3C" d="M615 426h-1c-1-1-2-1-2-3v-1l3 4z"/><path fill="#939393" d="M617 361h2l-1 4h-1v-4z"/><path fill="#676767" d="M573 415h-1v-4l1 4zm81-46-1 1-2-3v-1l3 3zm111 92c-1 1-2 3-3 2s1-2 2-3l1 1z"/><path fill="#939393" d="m670 483-3-1c2-2 2-1 4 0l-1 1z"/><path fill="#676767" d="M779 503c1 1 0 1-1 2h-2c0-1 1-2 3-2zm-134-27-2-3c1-1 1 0 2 1v2z"/><path fill="#939393" d="M716 465h1l-1 2c-2 0-1-1 0-2zm-55-115c-2 0-2-1-3-2 1-1 2 0 3 1v1zm-31 189-2-1v-1l2 1v1z"/><path fill="#202020" d="M664 351v2l-2-2h2z"/><path fill="#676767" d="M746 480v-1l2-1-2 2z"/><path fill="#939393" d="M650 365c-1 0-2-1-1-2l1 1v1zm-27-15h-2l2-2v2z"/><path fill="#676767" d="M633 462h1l1 2-2-2z"/><path fill="#B8B8B8" d="m602 467 1-2v2h-1z"/><path fill="#3C3C3C" d="M727 469h2l-1 2h-2l1-2z"/><path fill="#676767" d="M549 454h-1l1-3v3z"/><path fill="#B8B8B8" d="m541 414-1 2v-1l1-1z"/><path fill="#939393" d="m690 348-2-2 2 1v1z"/><path fill="#050405" d="m765 461-1-1v-1l1 1v1z"/><path fill="#939393" d="m781 444-1 1v-1h1z"/><path fill="#B8B8B8" d="m550 448-1 2 1-2z"/><path fill="#3C3C3C" d="M694 349v2l-2-1 1-1h1z"/><path fill="#676767" d="m611 421 1 1v1l-1-1v-1z"/><path fill="#3C3C3C" d="M604 428h1v1l-1-1z"/><path fill="#676767" d="M725 356h-1v-1l2 1h-1z"/><path fill="#3C3C3C" d="m693 349-3-1h1l2 1zm96 143c1 1 0 1-1 2-1-1 0-1 1-2z"/><path fill="#676767" d="m630 349 1 1-1-1z"/><path fill="#3C3C3C" d="m727 471-2 1 1-1h1z"/><path fill="#FFF" d="M559 394v-1 1z"/><path fill="#939393" d="M598 453h1-1z"/><path fill="#676767" d="M761 465v-1 1zm-126-1h1-1z"/><path fill="#202020" d="m617 458 1-1-1 1z"/><path fill="#676767" d="M761 465z"/><path fill="#939393" d="m597 451 1 1-1-1z"/><path fill="#B8B8B8" d="M550 448v-1 1z"/><path fill="#676767" d="m724 355-1-1h1v1zm25 122 1 1-1-1z"/><path fill="#0E0F0F" d="M725 356h1v1l-1-1z"/><path fill="#050405" d="M645 476v-1h1v1h-1z"/><path fill="#0E0F0F" d="m654 443 1 1h-1v-1z"/><path fill="#676767" d="m651 366-1-1c-1 0 0 0 0 0h1v1zm-8 106-1-1 1 1z"/><path fill="#B8B8B8" d="M541 414v-1 1z"/><path fill="#FFF" d="M559 394s0 1 0 0z"/><path fill="#939393" d="M539 417v1-1zm1-2v1-1z"/><path fill="#B8B8B8" d="m542 412 1-1-1 1z"/><path fill="#676767" d="m611 421-1-1 1 1z"/><path fill="#939393" d="m628 537-1-1h1v1z"/><path fill="#B8B8B8" d="m786 496-1 1 1-1z"/><path fill="#939393" d="M658 348z"/><path fill="#676767" d="m780 502-1 1 1-1zm1-1-1 1 1-1z"/><path fill="#939393" d="M690 347h1l-1 1v-1z"/><path fill="#676767" d="m782 500-1 1 1-1zm1 0h-1 1z"/><path fill="#B8B8B8" d="m787 495-1 1 1-1z"/><path fill="#3C3C3C" d="m788 494-1 1 1-1z"/><path fill="#202020" d="M661 350h1v1l-1-1c-1 0 0 0 0 0z"/><path fill="#676767" d="m634 344 1-1v1h-1zm-1 1 1-1v2l-1-1zm0 0-1 1 1-1z"/><path fill="#939393" d="m623 348 1-1v1h-1z"/><path fill="#676767" d="m631 347 1 1-1-1z"/><path fill="#050405" d="M776 505h1l-1 1v-1z"/><path fill="#FFF" d="M217 185c6 0 12-4 19-3 1 3 4 3 6 3 4-1 6 2 8 4 6 9 14 15 19 24 3 5 11 6 16 3 3-3 6-3 9-1 7 2 12 10 12 17 0 5-2 8-7 9-5 2-6 3-4 9l4 20c6 16 4 33 9 49 3 9 5 18 9 26l2 9c-1 5-3 6-8 5-2 0-2 0-3 2-2 5-6 5-10 2l-5-8c-6-15-9-31-12-47-3-13-2-27-7-40l-5-11-4-3c-10-3-17-12-17-22 0-8-5-12-11-17h-3c-4 0-7-2-10-3l-3-2-5-4c-3-7-3-14 1-21z"/><path fill="#0A0A0A" d="M215 337c-6-2-12-4-19-4h-2v-1l3-2 19-4c4-4 9-3 14-4l-5-2-1-2 2-2c1-2 4-1 5-2l1-2c3 0 6 2 10 0 2 0 3 3 6 1l2 1c0 3 3 2 5 3v7l11-7 2-3c1-4 2-7 5-9 1 7-1 14-6 19 0 3-2 5 2 5 1 0 3 0 3 2l-5 5-2 2-13 13-1 1c1-5-1-8-4-11l-1-1v-1h-18l-6-1c-2 1-4-1-7-1z"/><path fill="#0E0F0F" d="M234 297c-2-2-5-2-9-2h-10l-2 1c-3-1-6 2-9 0 0-4 2-4 4-5l5-2c5-2 9-3 14-3l4-1c1 0 1 0 0 0h-4l-13 1-10 2-2-1v-2h2c1-2 1-4 4-3l2-1c2-3 5-3 7-4 12-2 23 0 33 8l2 4c2 5 3 9 2 14 1 2 0 3-1 4h-1c-2-4-2-9-7-12l-1-1 1 1c2 4 3 8 2 12-1 1-1 3-3 3 1-4 0-8-4-11-3 0-4 0-6-2z"/><path fill="#FFF" d="M299 378c2-4 5-2 7 0 4 2 10 3 8 11l2 2c0 2-1 2-2 3l-4 1-8 1h-4c-1-2 0-3 1-4l5-3 2-1-1 1c-6 2-13 3-17 9l-3 2c-9-3-11-11-5-16 1-1 7-3 8-2l-1 2v1-1c3-2 6-4 10-4l2-1 1-1h-1z"/><path fill="#0E0F0F" d="m248 415-2 1a523 523 0 0 0-6-17l1-5v-2a15 15 0 0 1 2-3l3-4v-1l2-2c2-2 3-4 6-5l1 1c1 2 0 4-1 6a44 44 0 0 1-4 5l4-5c2-2 4-5 7-5v2c0 2-3 4-1 7l1 2v2l-1 3c-2 2 0 2 2 3l-1 3c0 3-4 3-5 6v1l-1 1-3 2v1a167 167 0 0 0-2 2l-2 1z"/><path fill="#FFF" d="M302 416c0 3-1 5-3 4l-10-5c-4-2-5-5-3-10v-3c0-2 1-2 2-3 1-2 2-3 5-3l1 3-1 4h-1 2l2 2v4l-1 1-1 1-1 1 1-2 2-1c4-1 7-6 13-6l4 2c0 3-3 3-4 4-3 2-7 3-7 7z"/><path fill="#FFF" d="M254 324c-1-3 1-4 1-7l1-2c5-5 5-12 5-20l1-1c2 0 4-4 5 1l1 2c0 2-1 3-2 3h-1l1 2c2 3-1 6-1 9l3-9c3 0 5-1 5 3l-4 9-2 3c-3 4-8 7-13 9v-2z"/><path fill="#171719" d="m204 271 10-2c5-4 9-2 15-1l11 4c3 0 4 1 5 3v2l-4 1c-10-3-19-3-30-4l-13 3v-1c1-3 3-4 6-5zM96 308c1-9 4-16 8-24l6-9 2-1 4-4c0-2 1-3 3-3h1l1-1 1-1 1 2v1l-1 1c-10 11-18 23-24 37l-2 2z"/><path fill="#FFF" d="M211 274c11-3 22 0 34 4h1l2 1 3 1 1 3v2l-2 1c-12-10-25-10-39-5-4-2 1-4 0-7z"/><path fill="#171719" d="M264 404v2c-1 4-4 6-7 9 3-2 5-4 9-3 1 2 0 3-1 5l-6 7-5 4c-4 0-4-4-6-6v-6l2-2 1-2 3-3 1-1c3-2 5-5 9-5v1zm-15 62c8 7 19 11 30 13 1-1 2 0 3 1h7v1l-9 2h-2c-6 0-11-1-17-4l-4-2a367 367 0 0 0-12-9l2-2h2z"/><path fill="#FFF" d="m255 377-6 6h-2c-2-3 1-5 2-7l4-5 2-2 3-2 1-1c0-1 0-2 2-2l1 2c-1 3 0 5 3 6l2 4c0 1-1 3-4 3l-2-1-5 6h-3l2-6 1-1v-1s0-1 0 0v1h-1z"/><path fill="#F5F6F6" d="m156 247-1 1h-2c-3 0-4-2-5-4l1-3 5-4c4-3 8-7 14-9 3-1 4 1 3 4 0 2-2 3-3 4-4 3-9 6-12 11z"/><path fill="#FFF" d="M271 419c4 3 5 8 10 11-1 2-3 1-5 1l-2 1-1 1-5 2h-3v-3l5-5 1-1-1 1c-4 2-6 6-11 5-1-2 0-3 1-4l8-8 1-1h2z"/><path fill="#171719" d="M156 247c-1-1-2-1 0-2 4-5 9-9 15-13l14-5v2l-9 5c-1 1-1 2-3 2l-17 11z"/><path fill="#0E0F0F" d="M224 368c0 4-4 4-7 5-2 2-5 3-8 3-5 0-9 0-13-3l-3-1c1-3 3-2 5-2l10-1c3 0 5 0 8-2 2 0 5-2 6 1h2z"/><path fill="#202020" d="M277 468c-12 0-22-5-31-13v-1c3 0 5 2 8 3l2 1c4 3 9 4 13 6 3-1 4 0 5 2l3 1v1z"/><path fill="#FFF" d="M243 310c4-3 3-7 2-10l-2-6h2c5 3 7 7 7 13v1l-1 1v2l-1 1-2 1c-2 4-4 3-6-1l1-2z"/><path fill="#202020" d="M216 368c-1 3-4 2-6 2-6 0-12-1-17-4-1 0-3 0-4-2l4-1c5-3 9 0 15 0a178 178 0 0 0 6 0l3 2c1 1 2 2-1 3z"/><path fill="#FFF" d="m253 307 1-3c3 0 5 0 4-4 0-1-1-3 2-4 3 4 1 8 0 12l-3 6-2 3h-2c-3 2-4 1-4-2l1-4 1-2 2-2z"/><path fill="#171719" d="M217 375h8c-4 3-8 4-13 5s-10 1-15-1c3-4 7-2 11-3 3 0 6-2 9-1z"/><path fill="#FFF" d="m252 447-7 4c0 1-1 2-2 1l-4-1c-1 0-2 0-2-2l3-3c3-1 3-1 0-4l-1-4h3l2 2 1 1 1 1 6 5z"/><path fill="#202020" d="m252 448-6-6c5 1 9 4 14 6l9 3 2 1 2 1v1c-7 0-14-2-21-6zm2-77-7 12v1l-4 6-1 2-1 2-1-3v-2l4-11 2-3 2-1c0-2 1-3 3-3l2-1 1 1z"/><path fill="#FFF" d="m225 319 9 2v1l-18 4c1-4 1-6-1-9h7l3 2z"/><path fill="#202020" d="m237 234-5-3-4-2a259 259 0 0 0-17-11c6 1 11 3 17 6 2-1 2 1 3 2l6 7v1z"/><path fill="#FFF" d="m189 363 20 7-16 2c-1 0-3 0-3-2 1-2 0-2-2-3-4-2-1-3 1-4z"/><path fill="#202020" d="m224 211 9 4c3 3 7 6 9 10v2c-3-1-4-5-8-5l-9-7-1-2v-2zm-56 17a463 463 0 0 1-15 9c5-6 11-10 18-14h3l-6 5zm134 188-4 2c4-7 9-10 15-12l5-1h2c-3 3-6 4-10 6l-2 2-6 3zm-30 10-8 9c4 0 6-3 10-3 1 3-2 3-3 5l-1 1c-4 0-7-2-11-4v-1c3 0 4-3 6-4l6-3h1z"/><path fill="#FFF" d="m214 289-9 6h-2l-1-6 1-2 10-2c1 1 2 2 1 4zm-5 75-16-1c0-2-1-3-3-4-1 0-2-1-2-3 7 0 13 3 19 4l2 1v3zm-62-120 6 3v1l-1 1-1 1-2 1c-1 4-3 3-5 1-3-3-2-7-1-10 1-2 2 0 3 1v1h1zm71-4c-1 3-5 4-8 1l-8-2-4-2c-1-1-2-2 0-3 1-1 1 0 3 1l7 1c4 1 7 1 10 4z"/><path fill="#0E0F0F" d="m210 261 6-1 6-1 5 1c1-1 2 0 4 1l4 2v1l-9-1h-16v-2z"/><path fill="#171719" d="m269 420-10 12h-3l-1-1-1-2 4-4 6-5 4-3 2 1v1l-1 1z"/><path fill="#202020" d="m208 361-19-5c0-2 1-2 3-1 4-2 8 0 12 1l4 3v2zm86 49 2-4c1-3 3-3 5-5l6-3 4 1v2l-2 1a420 420 0 0 1-15 8z"/><path fill="#FFF" d="M330 281h-5c-1-1 0-1 1-2l1-1 1-2 1-2v-1l1-1a19 19 0 0 1 2-2l2-1 1 2 2 3-2 3-2 2-1 1-1 1h-1z"/><path fill="#FFF" d="m204 356-12-1c0-2-1-3-3-4s-2-3-2-5c1-1 1-1 2 1l11 5 1 1 1 1 2 2zm65 61c-2 0-2 2-3 3-3 0-3-1-2-3l3-5v-1h2c3 0 6 1 4 5l-4 1z"/><path fill="#3C3C3C" d="m196 195-12 3v-2a60 60 0 0 1 25-5l-11 3-2 1z"/><path fill="#FFF" d="M220 263h5c-1 3 3 2 4 5-5 0-9-1-14 1-1-5 4-3 5-6z"/><path fill="#FFF" d="m311 400-4 1v-2c0-2 0-3 2-4l4-1 4-1c0 2 4 6-3 6l-3 1zm-45 12c-3 0-5 2-7 4-2 1-2 3-5 2l9-12c3 1 3 2 3 5v1zm-57-36-12 3c-3-1-1-4-1-6l13 2v1z"/><path fill="#F5F6F6" d="M225 215c3 2 7 3 9 6-1 2-3 3-3 5l-3-2c1-4-4-5-3-9z"/><path fill="#FFF" d="M272 331c0-3-2-1-3-1l-6-1 4-4c4-1 5 3 7 4 2 0 1 2 0 3s-1 0-2-1z"/><path fill="#FFF" d="M260 389c-1 0-2 3-3 1v-3l4-6c0 2 1 2 3 1 1-1 2 0 3 1 0 2 0 3-3 3-2 0-2 2-4 3z"/><path fill="#3C3C3C" d="M269 302c-2 4-2 9-6 13l3-13v-1l1-2 1-1 1 4zm-13 13c3-6 5-12 4-19v-1h2c1 8 0 15-6 21v-1z"/><path fill="#FFF" d="m328 273-2-1c-1-3 1-5 2-6h6l1 2a110 110 0 0 1-4 4l-1 1h-2z"/><path fill="#FFF" d="M202 285v1l-3 3-1 1-4 3c1-9 1-9 8-8zm53 143v3c-5-1-7-4-7-9 1 0 4-1 3 2 0 1 1 3 3 3l1 1zm-63-203c2-2 2 1 3 2l-1 3c-3 0-5 1-8-1 0-3 2-2 4-2l2-2z"/><path fill="#FFF" d="m204 271-6 4c-1 2-2 2-3 2 0-4 5-8 8-8l1 2z"/><path fill="#FFF" d="m264 403-9 5c0-4 3-5 5-7l4 1v1zm6 34c0-2 3-3 4-5l1-1c1 3 4 6-1 8l-4-2zm-8-39c-2 0-3 2-6 1 0-3 3-4 4-7 2 2 4 3 2 6zm-46-30c3-4-2-2-2-4l2-2c3 0 6 2 6 6h-6z"/><path fill="#3C3C3C" d="m218 240-9-3-1-1 14 3v2l-4-1zm111 26-3 5-1 1h-1l2-7 1-2 3-2 1 1-2 4z"/><path fill="#FFF" d="M184 311c-3 2-4-1-4-3-1-3 1-2 2-1l5-2v2l-1 1-1 2-1 1z"/><path fill="#676767" d="M201 353c-4 0-8-3-12-5 3-1 6 0 9 2 2 0 3 1 3 3z"/><path fill="#3C3C3C" d="m286 385 2-2 3-2 2-1 5-2v1a246 246 0 0 1-12 6z"/><path fill="#FFF" d="M189 283c-2 0-4 0-4-2 1-4 4-2 6-2l1 1-1 1-2 2z"/><path fill="#FFF" d="m234 297 5 2c0 2-1 3-3 3-2-1-2-3-2-5z"/><path fill="#939393" d="m216 206 5 3v2l-5-2c-2 0-4 1-4-3h4z"/><path fill="#F5F6F6" d="M212 205c0 3 2 3 4 4-2 2-4 1-6-1-1-1-1-3 2-3z"/><path fill="#FFF" d="m329 266 2-3h1l2 1 1 1-1 1h-5zm-83 201 1 1c-5 2-5-3-6-6h1l1 1 3 4z"/><path fill="#B8B8B8" d="M215 362c2 3 0 2-1 2h-5v-2l2-2 4 2z"/><path fill="#FFF" d="M322 296v2c-1 0-3 0-4-2l3-3h1v3z"/><path fill="#676767" d="m319 251 1-2h1l-1 4c1 3 0 4-1 6-2-1 0-3-1-5l1-3z"/><path fill="#FFF" d="m119 267-3 3c-1-1-2-3 0-4 1-1 2-1 3 1zm82 86-2-2c1-1 1-4 4-3l-1 5h-1zm30-39a1021 1021 0 0 0-4 2v-2h4zm-16 23 7 1c-3 4-5 0-7-1z"/><path fill="#939393" d="M211 218v2h-1v1l-4-2v-2l5 1z"/><path fill="#FFF" d="m336 275-1-4c2 0 3 0 4 2 1 1 0 2-2 2h-1zm-87 191h-2l-1-2c1-2 3-3 5-1 1 2-2 1-2 3zm16-128 1-2c3 0 4 2 3 4-2 2-2-2-4-2zm-68-8-2 2c-3-1-3-2-2-4 2-2 3 1 4 2z"/><path fill="#FFF" d="m245 274-4-1c0-2 1-3 3-3 2 1 1 3 1 4z"/><path fill="#FFF" d="m274 465-4-1c0-2 1-3 3-2 2 0 1 2 1 3zm-30-52 2 3c0 1-1 2-2 1-2-1-3-2 0-4z"/><path fill="#F5F6F6" d="M206 217v2h-1l-4-1v-1c2-2 3 0 5 0z"/><path fill="#676767" d="M184 196v1c-2 1-3 3-6 2l6-3z"/><path fill="#FFF" d="M257 189h3l-1 3c-2 0-2-1-2-3z"/><path fill="#B8B8B8" d="m207 235 1 1c-2 1-4 1-7-1h6z"/><path fill="#FFF" d="M265 402h3v3c-1 1-2 0-2-1l-1-2z"/><path fill="#FFF" d="m252 283-1-2 2-2c2-1 2-1 2 1l-3 3z"/><path fill="#FFF" d="M184 311v-1l1-2a30 30 0 0 0 1-1h2c0 2 0 4-4 4z"/><path fill="#939393" d="M222 241v-2c2 0 3 1 5 3-2 1-3 0-5-1z"/><path fill="#F5F6F6" d="m94 284 1-3h3c0 2-1 3-3 3h-1z"/><path fill="#3C3C3C" d="m194 277 3-1 1 1-5 3v-1l1-2z"/><path fill="#676767" d="m288 399-2 2c-1 1-2 2-2-1l3-2 1 1z"/><path fill="#FFF" d="M241 339c-1-1-3-2 1-2l3 2h-4z"/><path fill="#B8B8B8" d="m206 263-1 1-2 1h-3c1-2 4-2 6-3v1z"/><path fill="#FFF" d="M189 381v-2c2 0 2-2 3-1l1 1c0 2-2 2-4 2z"/><path fill="#FFF" d="M231 314h-4c0-2 0-2 5-2l-1 2z"/><path fill="#939393" d="M260 389c1-2 1-4 4-3l-2 4-2-1z"/><path fill="#3C3C3C" d="m153 237 1 1-4 3v-1l3-3zm72 82c-1 0-3 0-3-2h3v2z"/><path fill="#FFF" d="m222 259-6 1c2-3 4-1 6-1zm-2 36h5c-1 3-3 2-5 0z"/><path fill="#676767" d="M150 240v1l-2 3h-2v-1l4-3z"/><path fill="#939393" d="M277 469v-2c2-1 4 1 6 1l1 1h-7zm-7-31c1-1 3-1 4 1h-4v-1z"/><path fill="#676767" d="m191 227-5 2h-1v-2l6-1v1zm15 36v-1l4-1v1c-1 2-2 1-4 1z"/><path fill="#F5F6F6" d="m173 236 3-2c0 3 0 5-3 2z"/><path fill="#FFF" d="m250 287 2-2c2 1 1 2 0 4l-2-2z"/><path fill="#FFF" d="M201 296v3c0-2-5-2-1-5h1v2z"/><path fill="#676767" d="m246 464 1 2-1 1-3-4c1-1 2 0 3 1z"/><path fill="#B8B8B8" d="M289 481v-1c1-2 4-1 6-1l-3 2h-3z"/><path fill="#FFF" d="M322 293h-1v-4c3-1 2 1 2 3l-1 1z"/><path fill="#939393" d="M90 325h-2l2-6 1 1v1l-1 4z"/><path fill="#FFF" d="m112 273-1 2c-1 0-3 0-2-1 0-1 1-2 3-1zm139 98-3 2c0-2 0-4 3-2z"/><path fill="#F5F6F6" d="m95 312-1-2 2-1c3 2 0 2-1 3zm83-92c0-1 0-2 2-2l1 1c-1 1-1 2-3 2v-1z"/><path fill="#FFF" d="m231 261-4-1c1-3 3-1 4 1z"/><path fill="#FFF" d="m253 279-2 2-2-1v-1c1-2 2 0 4 0z"/><path fill="#F5F6F6" d="M209 192v-1l3 1h-3zm30 43 2 2-1 1c-2 0-2-1-2-2l1-1z"/><path fill="#FFF" d="m271 452-2-1c0-1 1-2 2-1v2zm-75-257 2-1c0 1 1 3-1 3-1 1-1-1-1-2z"/><path fill="#939393" d="M171 253v-2l4-1-4 3z"/><path fill="#202020" d="M332 271c-1-2 1-2 2-2h1l-3 2z"/><path fill="#FFF" d="m208 282-4 2c0-2 1-4 4-2z"/><path fill="#FFF" d="m240 266 3 1v1l-3-1v-1z"/><path fill="#FFF" d="M282 479h-3c1-3 2-2 3 0z"/><path fill="#F5F6F6" d="m228 229 3 1c-2 3-2 1-3-1z"/><path fill="#B8B8B8" d="m269 417 3-1-1 3h-1l-1-2z"/><path fill="#676767" d="M308 486c1 0 1-2 2 0l-3 4v-2l1-2z"/><path fill="#FFF" d="M372 270c-2 0-3-1-2-3l2 1v2z"/><path fill="#939393" d="M201 299v-2l2-1 1 1v1l-2 2-1-1zm61-4h-1l-1-4h1l1 3v1z"/><path fill="#3C3C3C" d="M199 289c0-2 2-2 3-3l1 1-1 1-3 1z"/><path fill="#FFF" d="M349 413h-1l2-2c1 1 0 2-1 2zm-109-24v2c-1 0-2 1-2-1l2-1zm107 24-3 1c0-2 1-2 3-1z"/><path fill="#676767" d="M210 360c1 1 1 2-1 2l-1-1v-2l2 1z"/><path fill="#F5F6F6" d="m213 221 2 1-1 1c-1 1-1-1-1-2z"/><path fill="#FFF" d="M202 300c0-1 0-2 2-2 1 2 0 2-2 2z"/><path fill="#FFF" d="M256 432h3v2c-1 0-2 0-3-2z"/><path fill="#939393" d="m321 305 1 3h-1v-3z"/><path fill="#676767" d="M221 211v-1h3v2l-3-1zm22 241h2l1 1v2l-3-3z"/><path fill="#FFF" d="m257 477 3 2c-1 0-2 0-3-2zm-7-37 1-2 1 1c-1 1-1 2-2 1z"/><path fill="#B8B8B8" d="m273 455 1-2 2 1-3 1z"/><path fill="#939393" d="m311 400 3-1c0 1-1 2-3 2v-1z"/><path fill="#FFF" d="m240 398 1 3c-2 0-2-1-1-3z"/><path fill="#939393" d="M189 283c-1-2 0-2 2-2l-2 2zm80 15h-2v-3c1 0 2 1 2 3z"/><path fill="#FFF" d="m317 393-3 1v-1l2-1 1 1z"/><path fill="#3C3C3C" d="m123 267-1-1v-1l3-1-2 3zm131 104v-1l2-2v1l-2 2zm-19-106v-2l3 1v1h-3z"/><path fill="#939393" d="M261 379c0-2 1-2 2-2v2l-2 1v-1z"/><path fill="#FFF" d="m293 379-2 2c0-1 0-3 2-2z"/><path fill="#3C3C3C" d="M249 279v1l-3-2c1-2 2 0 3 1z"/><path fill="#FFF" d="M261 291h-1v-1l1 1z"/><path fill="#FFF" d="M284 469v-1l2 1h-2z"/><path fill="#FFF" d="m203 265 2-1c0 1 0 2-2 1z"/><path fill="#F5F6F6" d="M62 290h-2c0-1 0-2 2-2v2z"/><path fill="#939393" d="M239 235h-1l-1-1v-1c2 0 2 1 2 2z"/><path fill="#FFF" d="M278 483h2c0 1 0 3-2 0z"/><path fill="#676767" d="M178 220v1l-2 1h-2l4-2z"/><path fill="#F5F6F6" d="M122 269v-1l1 1h-1z"/><path fill="#FFF" d="m246 375-1 3c-1-1-1-2 1-3z"/><path fill="#FFF" d="M169 263h-1c-1 0-1 0 0 0h1z"/><path fill="#FFF" d="m256 458-2-1c1-1 2-1 2 1z"/><path fill="#939393" d="M298 380v-1l1-1h2l-3 2z"/><path fill="#FFF" d="M290 481h2c0 1-1 2-2 0z"/><path fill="#202020" d="M336 275h1v2h-2c-1-1 0-1 1-2z"/><path fill="#FFF" d="m246 340 1 1h-1v-1zm-18-1 2-1c0 2-1 2-2 1z"/><path fill="#B8B8B8" d="M188 307h-2l1-2c1 0 2 0 1 2z"/><path fill="#FFF" d="m98 306 1 1-1-1zm96 27h2l-1 2-1-2z"/><path fill="#F5F6F6" d="m210 221-1 1h-1l2-1z"/><path fill="#676767" d="M272 204c1 1 3 2 2 3s-1-1-2-1v-2zm49 104h1l1 3h-1l-1-3zm-79-81v-1l2 2c-1 1-1 0-2-1z"/><path fill="#FFF" d="m213 296 2-1c0 1-1 2-2 1z"/><path fill="#FFF" d="m285 196-1 1 1-1z"/><path fill="#939393" d="M167 209h-2c1-1 2-2 3-1l-1 1z"/><path fill="#FFF" d="M358 413v2-2z"/><path fill="#676767" d="m276 431-2 1c-1-2 1-1 2-1z"/><path fill="#FFF" d="m179 283 1-2v1c1 1 0 1-1 1z"/><path fill="#FFF" d="M203 384v-1l1 1h-1zm121 20v-1l1 1h-1zm-16 9 1-2c1 1 1 3-1 2z"/><path fill="#F5F6F6" d="m127 262 1-1c1 1 0 2-1 2v-1z"/><path fill="#FFF" d="M201 294h-1v-2l1 2z"/><path fill="#676767" d="M321 405h-2l2-1v1zM174 223h-2l2-1h1l-1 1z"/><path fill="#939393" d="M265 402v2l-1-1v-1h1z"/><path fill="#B8B8B8" d="m250 414-2 2v-1l2-1z"/><path fill="#F5F6F6" d="m176 201-1-1 1 1z"/><path fill="#939393" d="M225 382h-2l3-1-1 1z"/><path fill="#3C3C3C" d="M127 262v1l-2 1 2-2z"/><path fill="#FFF" d="M122 265v1h-1l-1-1h2z"/><path fill="#939393" d="M256 369v-1l2-1-2 2zm-88-87c-1-1 0-1 1-2v2h-1z"/><path fill="#676767" d="m149 251 2-1-2 1z"/><path fill="#F5F6F6" d="M191 227v-1l1-1-1 2z"/><path fill="#939393" d="M374 270v2l-1-1v-1h1z"/><path fill="#F5F6F6" d="M200 215v-1 1z"/><path fill="#676767" d="m96 309-1 1 1-2v1z"/><path fill="#FFF" d="M250 451v1-1z"/><path fill="#676767" d="M338 284h-2l2-1v1zm-94 156c-1 1-1 0-2-1l2 1z"/><path fill="#FFF" d="M277 210v1-1z"/><path fill="#3C3C3C" d="M240 266h-2v-1l2 1c1 0 0 0 0 0zm6 12h-1v-2l1 2z"/><path fill="#FFF" d="m251 352 1-1v2l-1-1z"/><path fill="#050405" d="m168 354-2 1 2-1z"/><path fill="#676767" d="M242 462h-1v-1c1-1 1 0 1 1z"/><path fill="#939393" d="m267 198 2 1-1 1-1-1v-1z"/><path fill="#0E0F0F" d="m205 297-2-1v-1h1l1 2z"/><path fill="#676767" d="m338 283 1-1-1 1zm-162 2 1-1v1h-1z"/><path fill="#F5F6F6" d="M214 212c0-1 0 0 0 0z"/><path fill="#939393" d="M192 280v-1l1 1h-1zm-23 0 1-1-1 1z"/><path fill="#FFF" d="M266 193c0 1 0 0 0 0z"/><path fill="#939393" d="m266 197 1 1-1-1z"/><path fill="#676767" d="M179 283z"/><path fill="#939393" d="m191 281 1-1-1 1z"/><path fill="#FFF" d="M235 304c-1 0 0 0 0 0z"/><path fill="#676767" d="M272 205c-1 0-2-1 0-1v1zm-2-3 1 1h-1v-1z"/><path fill="#939393" d="M268 200h1v1l-1-1z"/><path fill="#FFF" d="M275 209c-1 0 0 0 0 0z"/><path fill="#676767" d="M269 201h1v1l-1-1c-1 0 0 0 0 0zm-94 85v-1h1l-1 1z"/><path fill="#939393" d="m198 290 1-1-1 1zm68-93-1-1 1 1z"/><path fill="#FFF" d="M201 296v-1 1z"/><path fill="#FFF" d="m334 264-1-1 1 1z"/><path fill="#676767" d="m243 463-1-1 1 1z"/><path fill="#FFF" d="M252 450c1 0 0 0 0 0z"/><path fill="#939393" d="M226 381h1-1z"/><path fill="#676767" d="M201 353h1v1l-1-1z"/><path fill="#FFF" d="M295 479v-1 1z"/><path fill="#FFF" d="M200 265h1l-1 1v-1z"/><path fill="#F5F6F6" d="m120 265 1 1v1l-1-2z"/><path fill="#939393" d="m259 366-1 1 1-1z"/><path fill="#FFF" d="M260 470c1 0 0 0 0 0zm75-223z"/><path fill="#3C3C3C" d="m152 249 1-1-1 1z"/><path fill="#676767" d="m151 250 1-1-1 1z"/><path fill="#171719" d="M266 412v-1h1l-1 1z"/><path fill="#B8B8B8" d="M269 411h-1 1z"/><path fill="#202020" d="m246 442-1-1 1 1z"/><path fill="#676767" d="m245 441-1-1 1 1z"/><path fill="#FFF" d="M337 242c1 0 0 0 0 0z"/><path fill="#B8B8B8" d="m169 353-1 1 1-1z"/><path fill="#3C3C3C" d="M153 248v-1l2 1h-2z"/><path fill="#FFF" d="M333 260c-1 0 0 0 0 0zm-168-36c-1 0 0 0 0 0zm60 93h-1l2-1-1 1z"/><path fill="#939393" d="M372 270v-1h1v1h-1z"/><path fill="#F5F6F6" d="M89 327v-1 1z"/><path fill="#FFF" d="M157 228c1 0 0 0 0 0z"/><path fill="#F5F6F6" d="M245 229c1 0 0 0 0 0z"/><path fill="#B8B8B8" d="M170 352v1-1z"/><path fill="#171719" d="m366 518 5 11c1-2 0-3 2-5l18 61-1 1-13-25 1-1 1 1 1-1-11-23-5-19h2zm-43 21c6 17 12 34 15 51l3 18h-2c-5-22-12-44-16-66v-3z"/><path fill="#3C3C3C" d="m353 609 2 8c-4-7-6-15-8-24l4 7 2 9zm29-28 7 13v2l-8-13c-1-1 0-2 1-2z"/><path fill="#676767" d="m340 637-2 11h-1l2-11h1zm-4 18v10c-1-4-2-7 0-10zm17 7c-2-3 1-6 1-8v7l-1 1z"/><path fill="#B8B8B8" d="M340 664v13-13z"/><path fill="#939393" d="M403 729h-2l-1-7c2 2 2 4 3 7zm-79-144h-2v-8l2 8z"/><path fill="#3C3C3C" d="m425 524 5 2v1c-3 0-4-2-7-3h2z"/><path fill="#676767" d="M366 518h-2l-1-5c2 1 2 3 3 5z"/><path fill="#939393" d="m356 621 2 7c-2-2-2-5-3-7h1z"/><path fill="#3C3C3C" d="m336 649 2-1-1 8c-3-3-1-5-1-7z"/><path fill="#939393" d="m428 706-1 2-2-6 3 4zm-48-44h-1c-2-2-1-4 0-6l1 6zm45 40-2-5c2 1 2 3 2 5zm-49 15h-1c-2-1-1-3 0-5l1 5z"/><path fill="#3C3C3C" d="m378 560-1 1-2-4-1-1c2 0 3 2 4 4z"/><path fill="#FFF" d="m388 734 2 4c-2-1-2-2-2-4z"/><path fill="#676767" d="M407 663h-1c-1-1-2-3-1-4l2 4zm-84-124v2l-1-3c0-1 0-2 1-1v2z"/><path fill="#B8B8B8" d="m341 611 1 2c-2 1-2-1-2-2h1z"/><path fill="#676767" d="m414 635 2 2v1c-2 0-2-1-3-2l1-1zm-73-24h-1l-1-3h1l1 3z"/><path fill="#B8B8B8" d="m374 709-1 1v-2h1v1z"/><path fill="#939393" d="M416 652c-2 0-3-1-2-2s2 0 2 1v1zm-11 6-1-3 1 3z"/><path fill="#050405" d="m323 517 1-3h1v4h-1l-1-1z"/><path fill="#676767" d="m382 581-1 1-2-2 1-1 2 2z"/><path fill="#3C3C3C" d="M356 621c-1-1-2-2-1-3l1 3z"/><path fill="#939393" d="M340 636v-2 2zm49-39v-2l2 2-1 1-1-1zm-10-37 1 1v1l-2-2h1z"/><path fill="#B8B8B8" d="m411 723-1-1c1-1 1 0 1 1z"/><path fill="#939393" d="M378 654h-1 1zm66-129c-1 0-2 0-1-1h1v1z"/><path fill="#676767" d="m421 522 1 1h-1v-1zm4 2h-1l-1-1 2 1z"/><path fill="#939393" d="m445 525 2 1v1h-2v-2zm-91 4 1 1c-1 1-1 0-1-1z"/><path fill="#3C3C3C" d="m465 533-2-2 2 1v1z"/><path fill="#939393" d="m390 598 1 2-1-1v-1zm-64 13v-1 1z"/><path fill="#050405" d="M416 723v1-1z"/><path fill="#B8B8B8" d="M411 723h1-1zm19-32h-1 1zm-2 5-1 1 1-1z"/><path fill="#939393" d="M340 637h-1l1-1v1z"/><path fill="#676767" d="m414 627 1 1h-1v-1zm0 8-1-1 1 1z"/><path fill="#3C3C3C" d="m417 631-1-1 1 1z"/><path fill="#B8B8B8" d="m411 632 1 1-1-1zm-1-2h1-1z"/><path fill="#676767" d="m416 630-1-1h1v1z"/><path fill="#B8B8B8" d="M410 630z"/><path fill="#050405" d="m353 662 1-1-1 1z"/><path fill="#FFF" d="M388 734z"/><path fill="#B8B8B8" d="M340 664s0-1 0 0z"/><path fill="#939393" d="m400 721-1-1 1 1zm13-73 1 1-1-1z"/><path fill="#050405" d="M416 638h1v1l-1-1c-1 0 0 0 0 0z"/><path fill="#3C3C3C" d="m418 553-1 1 1-1z"/><path fill="#939393" d="m375 557-1-1 1 1zm-1-2-1-1 1 1z"/><path fill="#676767" d="M322 535c0-1 0 0 0 0z"/><path fill="#3C3C3C" d="M465 533v-1h1l-1 1zm-133 87z"/><path fill="#939393" d="M391 600h1-1zm70-71 1 1h-1v-1z"/><path fill="#676767" d="M379 579s-1-2 1-1l-1 1zm0-3-1 1 1-1z"/><path fill="#939393" d="M461 529h-1 1z"/><path fill="#3C3C3C" d="M447 527h1v1l-1-1c-1 0 0 0 0 0z"/><path fill="#050405" d="M431 528h-2l1-1h1v1z"/><path fill="#939393" d="M445 526h-1v-1h1v1z"/><path fill="#676767" d="m414 627-1-1 1 1z"/><path fill="#939393" d="M611 628c-11 2-22 2-34 3-2-3 1-2 2-2l27-1 5-1v1z"/><path fill="#3C3C3C" d="M611 629v-1c1-1 1 0 1 1h-1z"/><path fill="#B8B8B8" d="m249 528 1 2-1 1v-3z"/><path fill="#939393" d="M186 472v-1h1l-1 1z"/><path fill="#676767" d="m202 502-2-1 2 1z"/><path fill="#B8B8B8" d="M247 527c1-1 0 0 0 0z"/><path fill="#939393" d="m252 526 1-1-1 1zm0-3-1 1 1-1z"/><path fill="#676767" d="M226 517h1-1z"/><path fill="#939393" d="m218 514-1-1 1 1zm-2-2 1-1-1 1z"/><path fill="#171719" d="M91 288c-8 10-13 22-20 33 0-8 3-15 8-22 1-3 3-6 5-7l6-5 1 1z"/><path fill="#F5F6F6" d="m84 292-5 6c0-3 2-5 4-7 1-2 1 0 1 1z"/><path fill="#676767" d="m91 288-1-1 3-2-2 3z"/><path fill="#F5F6F6" d="m91 320-1-1c0-1 0-2 2-1 1 0 1 1-1 2z"/><path fill="#676767" d="M69 325c1-1 0-3 2-3 1 1 0 3-2 4v-1z"/><path fill="#939393" d="M70 336v-1s1-2 2-1l-2 2z"/><path fill="#F5F6F6" d="M44 330h1c1 1 0 1-1 1v-1z"/><path fill="#3C3C3C" d="m40 332-2 2h-1l2-1 1-1z"/><path fill="#939393" d="M66 334v1h-2l2-1z"/><path fill="#171719" d="M37 334v1-1h-1 1z"/><path fill="#3C3C3C" d="m36 334 1 1h-2l1-1z"/><path fill="#F5F6F6" d="M69 325v1h-1l1-1z"/><path fill="#939393" d="m56 331 1-1v1h-1z"/><path fill="#676767" d="m93 285 1-1c0-1 0 0 0 0l-1 1z"/><path fill="#939393" d="m39 333 1-1-1 1z"/><path fill="#050405" d="m56 332-1 1h-1l1-1h1z"/><path fill="#939393" d="M73 333h-1 1zm-6 1h-1 1z"/><path fill="#3C3C3C" d="M64 335h1l-1 1v-1z"/><path fill="#939393" d="M44 330v1h-1l1-1zm-3 1 1 1-1-1zm15 0v1h-1l1-1z"/><path fill="#B8B8B8" d="M117 325h-1v-6l1 6z"/><path fill="#939393" d="m497 327 3 1h-3v-1z"/><path fill="#050405" d="M492 520v2h-1c0-1-1-1 1-2zm-2-2 1 1-1-1z"/><path fill="#202020" d="m493 354 1 2-1-1v-1z"/><path fill="#FFF" d="M391 313v-1h1l-1 1zm-1-3c0-1 0 0 0 0zm-1-2c0 1 0 0 0 0zm1-1c-1 0 0 0 0 0z"/><path fill="#676767" d="m400 314-1-1 1 1zm97 69h-2v-2l2 2z"/><path fill="#3C3C3C" d="M492 379c1 1 2 1 0 2v-2z"/><path fill="#050405" d="M492 379v1h-1v-1h1z"/><path fill="#3C3C3C" d="M495 381v1c-1 0-2 0 0-1z"/><path fill="#676767" d="m497 383 1 1h-1v-1z"/><path fill="#202020" d="m485 477 1 2-1-1v-1zm1 2 1 1-1-1z"/><path fill="#3C3C3C" d="m324 255 3-2-5 14-1 1 1-9c-1-2 0-3 2-4z"/><path fill="#F5F6F6" d="m324 255-2 4h-3l1-5 4 1z"/><path fill="#FFF" d="M324 272h1l-1 3h-1c-1-1 0-2 1-3zm-3-4 1-1c0 1 1 3-1 3v-2zm9 16-2 3v-3h2zm-5 15-1-3c2 0 2 1 1 3z"/><path fill="#939393" d="M322 249h-2l1-2 1 2z"/><path fill="#202020" d="M330 284h-1v-2l2-1-1 3z"/><path fill="#676767" d="m322 293 1-1v4l-1-3z"/><path fill="#FFF" d="m327 263-1 2c-1-1-1-2 1-2z"/><path fill="#202020" d="M333 279c-2-2 1-2 2-2l-2 2z"/><path fill="#676767" d="M334 287c1 1 0 2-1 3-1-1 0-2 1-3zm-6-14h1v1l-1 2v-3zm5 17-1 2 1-2zm3-6c1 1 0 1-1 2-1-1 0-1 1-2zm-8-8-1 2 1-2zm-1 2-1 1 1-1z"/><path fill="#202020" d="m332 280 1-1-1 1z"/><path fill="#676767" d="m335 286-1 1 1-1z"/><path fill="#202020" d="m331 281 1-1-1 1z"/><path fill="#3C3C3C" d="m480 406 1 1-1-1z"/><path fill="#050405" d="m485 437 1 1v1l-2-1 1-1zm1 1 1 1h-1v-1z"/><path fill="#FFF" d="m362 482 3-6c0 3 1 5-3 6z"/><path fill="#050405" d="m361 488 1-2-1 2zm-145-79v-1h1l-1 1z"/><path fill="#B8B8B8" d="M312 480c-1-3 1-5 3-7 0 3-2 5-3 8v-1z"/><path fill="#676767" d="M316 478c0 1 1 2-1 3l1-3zm-9 14-1 1v-1h1zm5-12v1l-1 1 1-2zm5-3-1 1 1-1zm-6 7-1-1 1 1z"/><path fill="#B8B8B8" d="M209 377v-2l8-2v2c-2 2-5 1-8 2z"/><path fill="#F5F6F6" d="m60 290-1 3-1-1c0-1 0-2 2-2z"/><path fill="#050405" d="M58 292v1h-1v-1h1zm108-8 1-1-1 1z"/><path fill="#939393" d="m167 283 1-1-1 1z"/><path fill="#676767" d="m751 414 1 3-1-2v-1z"/><path fill="#B8B8B8" d="M750 413v-2c2 0 1 1 1 2h-1z"/><path fill="#676767" d="m750 413 1 1c1 0 0 0 0 0 1 0 0 0 0 0l-1-1z"/><path fill="#FFF" d="M267 317c0-1 0-2 2-3l-2 3z"/><path fill="#676767" d="M250 311c1 1 0 2-1 3l-1-1 2-2z"/><path fill="#FFF" d="M254 324v1c-2 1-1 0 0-1z"/><path fill="#FFF" d="m214 290-1-5c4-2 9-1 14-1v2l-13 4z"/><path fill="#FFF" d="M227 286v-1l6 1h-6z"/><path fill="#676767" d="m253 307-2 2 1-2h1z"/><path fill="#939393" d="M245 294h-1l-1-1 2 1zm-2-1-1-1h1v1z"/><path fill="#202020" d="m288 399-1-1c4-6 11-8 18-10v1l-6 4c-1 1-3 1-2 3h3c3-2 6-2 10-3v1l-2 2c-4 5-9 6-14 7l-3 1c-1-1 0-2 1-2l2-3v-3l-6 3zm6-11-8 5c1-5 8-9 17-10-2 3-6 3-9 5z"/><path fill="#676767" d="M310 395v-1c1-2 2-1 4-1v1l-4 1z"/><path fill="#3C3C3C" d="M305 389v-1l3-1v2h-3z"/><path fill="#676767" d="M282 395c1-1 1-3 3-2 1 1-1 1-1 2h-2z"/><path fill="#939393" d="M308 389v-1h2l-2 1zm-3-6-1-1 1 1z"/><path fill="#B8B8B8" d="M280 391v-1 1z"/><path fill="#676767" d="m283 395-1 1v-1h1z"/><path fill="#B8B8B8" d="m283 387 1-1v1h-1z"/><path fill="#3C3C3C" d="m286 385-1 1 1-1z"/><path fill="#B8B8B8" d="m283 387-1 1v-1h1zm-1 1v1-1z"/><path fill="#FFF" d="M252 384h3l-5 7-1-1 3-6z"/><path fill="#B8B8B8" d="m249 403 5-8v1c0 3-2 5-5 8v-1zm-6-13c0-3 2-5 4-6 0 3-2 4-4 6zm12 19c-1 2-2 3-4 3 0-2 2-3 3-4l1 1z"/><path fill="#FFF" d="M254 396v-1l2-5 1 1c0 2-1 3-3 5z"/><path fill="#B8B8B8" d="m249 390 1 1c0 1-1 2-2 1l1-2z"/><path fill="#676767" d="m246 396-1 1 1-1z"/><path fill="#B8B8B8" d="M251 412c1 1 0 1-1 2-1-1 0-1 1-2zm-9-20 1-2-1 2z"/><path fill="#939393" d="M249 404h-1v-1l1 1zm-1 1-1 1v-1h1z"/><path fill="#B8B8B8" d="m247 384 1-1-1 1zm1 10-1-1 1 1z"/><path fill="#FFF" d="m255 409-1-1h1v1z"/><path fill="#FFF" d="m294 404 13-8v4c-4 3-7 3-10 6l-3-2zm0-8 2 1c1 1 0 1-1 2-2 0-2-1-1-3z"/><path fill="#676767" d="m289 405 1-1v1h-1zm5 6-1 1h-1l2-2v1zm-2 2-1 1v-1h1zm0 0v-1h1l-1 1z"/><path fill="#202020" d="M294 411v-1h1l-1 1z"/><path fill="#FFF" d="M266 301v1l-2-2 1-1 1 2z"/><path fill="#0A0A0A" d="M256 315v1l-1 1c-1-1 0-1 1-2z"/><path fill="#FFF" d="m264 417 1 3-5 5-2-1 6-7z"/><path fill="#B8B8B8" d="m258 424 1 1-3 3-2-1 4-3zm-5-4 1-1v1h-1zm0 0-1 1v-1h1z"/><path fill="#676767" d="m255 377 2-2v2h-2zm2-2 1-1-1 1zm-1 2v1l-1-1h1z"/><path fill="#FFF" d="m269 420 1-1-1 1z"/><path fill="#939393" d="M271 426h1-1z"/><path fill="#676767" d="M251 309c1 1 0 1-1 2l1-2z"/><path fill="#FFF" d="M211 364h2-2z"/><path fill="#F5F6F6" d="M145 244h2c0 1 0 3-2 3v-3z"/><path fill="#202020" d="M331 272c-1-1 0-1 1-1l-1 1zm-2 2v-1h1l-1 1zm1-1 1-1-1 1z"/><path fill="#B8B8B8" d="m185 308-1 1 1-1zm1-1-1 1 1-1z"/><path fill="#939393" d="m380 562 1 1h-1v-1z"/></svg>
