<svg fill="none" stroke-linecap="square" stroke-miterlimit="10" xmlns="http://www.w3.org/2000/svg" viewBox="0 0 701 430"><path fill="#fff" d="M0 0h701v430H0V0Z"/><path stroke="#333" stroke-linecap="butt" d="M55.5 342.5h624"/><path stroke="#ccc" stroke-linecap="butt" d="M55.5 293.5h624m-624-50h624m-624-49h624m-624-49h624m-624-49h624"/><clipPath id="a"><path d="M55.5 96.2h624v246.3h-624V96.2Z"/></clipPath><path clip-path="url(#a)" d="M112 343H86v-3c0-1.1.9-2 2-2h22a2 2 0 0 1 2 2Z"/><path fill="#ff6d01" clip-path="url(#a)" d="M112 343H86v-3c0-1.1.9-2 2-2h22a2 2 0 0 1 2 2Z"/><path clip-path="url(#a)" d="M197 343h-26v-13c0-1.1.9-2 2-2h22a2 2 0 0 1 2 2Z"/><path fill="#ff6d01" clip-path="url(#a)" d="M197 343h-26v-13c0-1.1.9-2 2-2h22a2 2 0 0 1 2 2Z"/><path clip-path="url(#a)" d="M282 343h-26v-33c0-1.1.9-2 2-2h22a2 2 0 0 1 2 2Z"/><path fill="#ff6d01" clip-path="url(#a)" d="M282 343h-26v-33c0-1.1.9-2 2-2h22a2 2 0 0 1 2 2Z"/><path clip-path="url(#a)" d="M367 343h-26v-96c0-1.1.9-2 2-2h22a2 2 0 0 1 2 2Z"/><path fill="#ff6d01" clip-path="url(#a)" d="M367 343h-26v-96c0-1.1.9-2 2-2h22a2 2 0 0 1 2 2Z"/><path clip-path="url(#a)" d="M451 343h-26v-79c0-1.1.9-2 2-2h22a2 2 0 0 1 2 2Z"/><path fill="#ff6d01" clip-path="url(#a)" d="M451 343h-26v-79c0-1.1.9-2 2-2h22a2 2 0 0 1 2 2Z"/><path clip-path="url(#a)" d="M536 343h-26v-99c0-1.1.9-2 2-2h22a2 2 0 0 1 2 2Z"/><path fill="#ff6d01" clip-path="url(#a)" d="M536 343h-26v-99c0-1.1.9-2 2-2h22a2 2 0 0 1 2 2Z"/><path clip-path="url(#a)" d="M621 343h-26V212c0-1.1.9-2 2-2h22a2 2 0 0 1 2 2Z"/><path fill="#ff6d01" clip-path="url(#a)" d="M621 343h-26V212c0-1.1.9-2 2-2h22a2 2 0 0 1 2 2Z"/><path clip-path="url(#a)" d="M140 343h-26v-2c0-1.1.9-2 2-2h22a2 2 0 0 1 2 2Z"/><path fill="#34a853" clip-path="url(#a)" d="M140 343h-26v-2c0-1.1.9-2 2-2h22a2 2 0 0 1 2 2Z"/><path clip-path="url(#a)" d="M225 343h-26v-14c0-1.1.9-2 2-2h22a2 2 0 0 1 2 2Z"/><path fill="#34a853" clip-path="url(#a)" d="M225 343h-26v-14c0-1.1.9-2 2-2h22a2 2 0 0 1 2 2Z"/><path clip-path="url(#a)" d="M310 343h-26V144c0-1.1.9-2 2-2h22a2 2 0 0 1 2 2Z"/><path fill="#34a853" clip-path="url(#a)" d="M310 343h-26V144c0-1.1.9-2 2-2h22a2 2 0 0 1 2 2Z"/><path clip-path="url(#a)" d="M395 343h-26v-37c0-1.1.9-2 2-2h22a2 2 0 0 1 2 2Z"/><path fill="#34a853" clip-path="url(#a)" d="M395 343h-26v-37c0-1.1.9-2 2-2h22a2 2 0 0 1 2 2Z"/><path clip-path="url(#a)" d="M479 343h-26v-51c0-1.1.9-2 2-2h22a2 2 0 0 1 2 2Z"/><path fill="#34a853" clip-path="url(#a)" d="M479 343h-26v-51c0-1.1.9-2 2-2h22a2 2 0 0 1 2 2Z"/><path clip-path="url(#a)" d="M564 343h-26v-76c0-1.1.9-2 2-2h22a2 2 0 0 1 2 2Z"/><path fill="#34a853" clip-path="url(#a)" d="M564 343h-26v-76c0-1.1.9-2 2-2h22a2 2 0 0 1 2 2Z"/><path clip-path="url(#a)" d="M649 343h-26V175c0-1.1.9-2 2-2h22a2 2 0 0 1 2 2Z"/><path fill="#34a853" clip-path="url(#a)" d="M649 343h-26V175c0-1.1.9-2 2-2h22a2 2 0 0 1 2 2Z"/><path fill="#000" d="M43 342.3q0-1.6.3-2.5.3-1 1-1.4.6-.5 1.5-.5.7 0 1.2.3.5.2.9.8l.5 1.2q.2.8.2 2 0 1.6-.3 2.5-.3 1-1 1.4-.5.5-1.5.5-1.2 0-2-.9-.8-1-.8-3.4Zm1 0q0 2 .6 2.8.5.7 1.2.7t1.2-.7q.5-.7.5-2.8 0-2.2-.5-2.8-.5-.8-1.2-.8t-1.2.7q-.5.7-.5 2.9Zm-9.5-46.1v1H29v-.7q.3-.6.8-1.1L31 294q1.4-1.2 1.9-1.9.5-.6.5-1.2 0-.7-.5-1-.5-.5-1.2-.5t-1.2.4q-.4.5-.5 1.3l-1-.1q0-1.2.8-1.9.7-.6 2-.6 1.2 0 2 .7.6.7.6 1.7l-.2 1q-.2.5-.7 1l-1.6 1.6-1.2 1-.5.6h4.2ZM36 295l1.1-.1q.1.8.6 1.2.4.4 1 .4.8 0 1.3-.6.6-.5.6-1.5 0-.9-.5-1.4-.5-.5-1.4-.5-.5 0-.9.2t-.6.6l-1-.1.8-4.4h4.3v1h-3.4l-.5 2.3q.8-.6 1.6-.6 1.1 0 2 .8.7.8.7 2t-.7 2q-.8 1-2.2 1-1.2 0-2-.6-.7-.6-.8-1.7Zm7-2q0-1.5.3-2.5.3-.9 1-1.4.6-.5 1.5-.5.7 0 1.2.3t.9.8q.3.5.5 1.3.2.7.2 2 0 1.5-.3 2.4-.3 1-1 1.5-.5.5-1.5.5-1.2 0-2-1T43 293Zm1 0q0 2.1.6 2.8.5.7 1.2.7t1.2-.7q.5-.7.5-2.8 0-2.1-.5-2.8-.5-.7-1.2-.7t-1.2.6q-.5.8-.5 2.9Zm-15-47.3h1.1q.1.7.6 1.1.4.4 1 .4.8 0 1.3-.5.6-.6.6-1.5 0-1-.5-1.5t-1.4-.5q-.5 0-.9.2l-.6.6-1-.1.8-4.4h4.3v1h-3.4l-.5 2.3q.8-.5 1.6-.5 1.1 0 2 .7.7.8.7 2t-.7 2q-.8 1.1-2.2 1.1-1.2 0-2-.6-.7-.7-.8-1.8Zm7-2q0-1.5.3-2.4.3-1 1-1.5.6-.5 1.5-.5.7 0 1.2.3t.9.8l.5 1.3q.2.8.2 2 0 1.5-.3 2.5-.3.9-1 1.4-.5.5-1.5.5-1.2 0-2-.9-.8-1-.8-3.5Zm1 0q0 2.1.6 2.8.5.7 1.2.7t1.2-.7q.5-.7.5-2.8 0-2-.5-2.8-.5-.7-1.2-.7t-1.2.6q-.5.8-.5 3Zm6 0q0-1.5.3-2.4.3-1 1-1.5.6-.5 1.5-.5.7 0 1.2.3t.9.8l.5 1.3q.2.8.2 2 0 1.5-.3 2.5-.3.9-1 1.4-.5.5-1.5.5-1.2 0-2-.9-.8-1-.8-3.5Zm1 0q0 2.1.6 2.8.5.7 1.2.7t1.2-.7q.5-.7.5-2.8 0-2-.5-2.8-.5-.7-1.2-.7t-1.2.6q-.5.8-.5 3Zm-15-52.5v-1h5.6v.8q-.8 1-1.6 2.4t-1.2 3q-.4 1-.4 2.3h-1.1q0-1 .4-2.5.3-1.4 1-2.7l1.6-2.3H29Zm7 5.3 1.1-.1q.1.8.6 1.2.4.4 1 .4.8 0 1.3-.6.6-.6.6-1.5 0-1-.5-1.4-.5-.6-1.4-.6-.5 0-.9.3-.4.2-.6.6l-1-.2.8-4.4h4.3v1h-3.4l-.5 2.3q.8-.5 1.6-.5 1.1 0 2 .8.7.8.7 2 0 1.1-.7 2-.8 1-2.2 1-1.2 0-2-.6-.7-.7-.8-1.8Zm7-2q0-1.6.3-2.5.3-1 1-1.4.6-.5 1.5-.5.7 0 1.2.3.5.2.9.8l.5 1.2q.2.8.2 2 0 1.6-.3 2.5-.3 1-1 1.4-.5.5-1.5.5-1.2 0-2-.9-.8-1-.8-3.4Zm1 0q0 2 .6 2.8.5.7 1.2.7t1.2-.7q.5-.7.5-2.8 0-2.2-.5-2.8-.5-.8-1.2-.8t-1.2.7q-.5.7-.5 2.9Zm-18-45.1h-1v-6.7l-1 .7-1.2.6v-1l1.5-1q.7-.6 1-1.2h.7v8.6Zm3-4.2q0-1.5.3-2.5.3-.9 1-1.4.6-.5 1.5-.5.7 0 1.2.3t.9.8q.3.5.5 1.3.2.7.2 2 0 1.5-.3 2.4-.3 1-1 1.5-.5.5-1.5.5-1.2 0-2-1t-.8-3.4Zm1 0q0 2.1.6 2.8.5.7 1.2.7t1.2-.7q.5-.7.5-2.8 0-2.1-.5-2.8-.5-.7-1.2-.7t-1.2.6q-.5.8-.5 2.9Zm6 0q0-1.5.3-2.5.3-.9 1-1.4.6-.5 1.5-.5.7 0 1.2.3t.9.8q.3.5.5 1.3.2.7.2 2 0 1.5-.3 2.4-.3 1-1 1.5-.5.5-1.5.5-1.2 0-2-1t-.8-3.4Zm1 0q0 2.1.6 2.8.5.7 1.2.7t1.2-.7q.5-.7.5-2.8 0-2.1-.5-2.8-.5-.7-1.2-.7t-1.2.6q-.5.8-.5 2.9Zm6 0q0-1.5.3-2.5.3-.9 1-1.4.6-.5 1.5-.5.7 0 1.2.3t.9.8q.3.5.5 1.3.2.7.2 2 0 1.5-.3 2.4-.3 1-1 1.5-.5.5-1.5.5-1.2 0-2-1t-.8-3.4Zm1 0q0 2.1.6 2.8.5.7 1.2.7t1.2-.7q.5-.7.5-2.8 0-2.1-.5-2.8-.5-.7-1.2-.7t-1.2.6q-.5.8-.5 2.9Zm-18-45h-1v-6.8l-1 .8-1.2.5v-1q.9-.4 1.5-1 .7-.6 1-1.2h.7v8.7Zm8.5-1v1H29v-.8l.8-1.1L31 97l1.9-1.8q.5-.7.5-1.3 0-.6-.5-1-.5-.5-1.2-.5t-1.2.5q-.4.4-.5 1.2h-1q0-1.3.8-2 .7-.6 2-.6 1.2 0 2 .7.6.7.6 1.7l-.2 1q-.2.5-.7 1L32 97.6l-1.2 1-.5.7h4.2Zm1.5-1.3h1.1q.1.7.6 1.1.4.4 1 .4.8 0 1.3-.5.6-.6.6-1.5 0-1-.5-1.5t-1.4-.5q-.5 0-.9.2l-.6.6-1-.1.8-4.4h4.3v1h-3.4l-.5 2.3q.8-.5 1.6-.5 1.1 0 2 .7.7.8.7 2t-.7 2q-.8 1.1-2.2 1.1-1.2 0-2-.6-.7-.7-.8-1.8Zm7-2q0-1.5.3-2.4.3-1 1-1.5.6-.5 1.5-.5.7 0 1.2.3t.9.8l.5 1.3q.2.8.2 2 0 1.5-.3 2.5-.3.9-1 1.4-.5.5-1.5.5-1.2 0-2-.9-.8-1-.8-3.5Zm1 0q0 2.1.6 2.8.5.7 1.2.7t1.2-.7q.5-.7.5-2.8 0-2-.5-2.8-.5-.7-1.2-.7t-1.2.6q-.5.8-.5 3Zm39.4 261.3v3.3h-1.1V352h3.1q1.4 0 2.2.7.8.7.8 1.9t-.8 1.9q-.7.7-2.2.7h-2Zm0-1h2q1 0 1.4-.4.5-.4.5-1.2 0-.8-.5-1.2-.4-.5-1.3-.5h-2v3.3Zm8 4.3h-1.2v-9h1.1v9Zm5.6 0-.1-.7q-.8.8-1.8.8t-1.6-.5q-.6-.5-.6-1.4 0-1 .8-1.5.7-.5 2.1-.5h1v-.5q0-.6-.3-1-.3-.3-1-.3-.6 0-1 .3-.3.3-.3.7H93q0-.5.3-.9t1-.7q.5-.3 1.2-.3 1.1 0 1.7.6.6.5.7 1.5v3q0 .8.2 1.3v.1H97Zm-1.8-.8q.6 0 1-.3.5-.3.7-.7v-1.3H96q-2 0-2 1.2 0 .5.4.8.3.3.8.3Zm6.1.8h-1v-6.3h1v6.3Zm-1.2-8q0-.3.2-.5t.5-.2q.3 0 .4.2.2.2.2.5l-.2.4q-.1.2-.4.2-.3 0-.5-.2l-.2-.4Zm4 1.7v.8q.8-1 2-1 2 0 2 2.3v4.2h-1v-4.2q0-.7-.4-1-.3-.3-1-.3-.5 0-.9.3-.4.2-.6.7v4.5h-1v-6.3h1Zm15.8 6.3h-1.2v-4h-4.3v4h-1.1V352h1.1v3.6h4.3V352h1.2v8.5Zm8.3-7.6h-2.8v7.6h-1v-7.6h-2.8v-1h6.6v1Zm2.5-1 2.8 7 2.8-7h1.5v8.6h-1.1v-6.9l-2.7 6.9h-.9l-2.8-6.9.1 3.6v3.3h-1.1V352h1.4Zm9.7 7.7h4v.9h-5.1V352h1.1v7.6Zm30.7-7.6 2.8 7 2.8-7h1.5v8.5H177v-6.9l-2.7 6.9h-.9l-2.8-6.9.1 3.6v3.3h-1.1V352h1.4Zm13.8 5.4q0 1.4-.7 2.3-.6 1-1.8 1-1.1 0-1.8-.8v3h-1v-8.7h1v.7q.6-.9 1.8-.9 1.1 0 1.8 1 .7.8.7 2.3v.1Zm-1.1-.1q0-1.1-.5-1.7-.4-.6-1.2-.6-1 0-1.5.8v3q.5 1 1.5 1 .8 0 1.2-.7.5-.6.5-1.8Zm7.2.3h1.2v1H191v1.9h-1v-2h-4v-.6l3.8-6h1.2v5.7Zm-3.7 0h2.6v-4.1l-.1.2-2.5 4Zm12.2 1.4 2.5-7h1.2l-3.2 8.5h-1l-3-8.5h1.2l2.4 7Zm6.2 1.5h-1v-6.3h1v6.3Zm-1.2-8q0-.3.2-.5t.5-.2q.3 0 .4.2.2.2.2.5l-.2.4q-.1.2-.4.2-.3 0-.5-.2l-.2-.4Zm2.8 4.8q0-1.5.7-2.4.6-.9 1.8-.9 1 0 1.7.8v-3.3h1.1v9h-1v-.7q-.7.8-1.8.8t-1.8-.9q-.7-.9-.7-2.3v-.1Zm1 .1q0 1 .5 1.7.4.6 1.2.6 1 0 1.5-1V356q-.5-1-1.5-1-.8 0-1.2.7-.5.6-.5 1.8Zm8.9 3.2q-1.3 0-2.2-.8-.7-.9-.7-2.3v-.2q0-1 .3-1.7.4-.7 1-1.1.7-.5 1.4-.5 1.3 0 2 .9.6.8.6 2.3v.4h-4.3q0 1 .6 1.6.5.5 1.3.5.6 0 1-.2t.7-.6l.6.5q-.7 1.2-2.3 1.2Zm-.2-5.7q-.6 0-1 .5-.5.5-.6 1.4h3.1v-.1q0-.9-.4-1.3-.4-.5-1-.5Zm3.2 2.4q0-1 .4-1.7.4-.8 1-1.1.7-.5 1.5-.5 1.3 0 2.1 1 .8.8.8 2.3v.1q0 1-.3 1.7-.4.7-1 1.1-.7.4-1.6.4-1.3 0-2-.9-.9-.9-.9-2.4Zm1.1.1q0 1 .5 1.7.5.6 1.3.6.9 0 1.3-.6.5-.7.5-1.8 0-1-.5-1.7t-1.3-.7q-.8 0-1.3.7-.5.6-.5 1.8Zm42.4-1.1 2.2-4.3h1.3l-3 5.3v3.2h-1v-3.2l-3-5.3h1.3l2.2 4.3Zm4 1q0-1 .3-1.7.4-.8 1-1.1.7-.5 1.5-.5 1.3 0 2.1 1 .8.8.8 2.3v.1q0 1-.3 1.7-.4.7-1 1.1-.7.4-1.6.4-1.3 0-2-.9-.9-.9-.9-2.4Zm1 .1q0 1 .5 1.7.5.6 1.3.6.9 0 1.3-.6.5-.7.5-1.8 0-1-.5-1.7t-1.3-.7q-.8 0-1.3.7-.5.6-.5 1.8Zm10.1 2.5q-.6.7-1.8.7-1 0-1.6-.6-.5-.6-.5-1.7v-4.1h1v4q0 1.5 1.2 1.5 1.3 0 1.7-1v-4.5h1.1v6.3h-1v-.6Zm4.6-7.3v1.6h1.2v.8h-1.2v4q0 .3.2.5.1.2.5.2h.5v.8l-.8.1q-.7 0-1.1-.4-.4-.5-.4-1.3V355h-1.2v-.8h1.2v-1.6h1.1Zm6.4 7.3q-.6.7-1.8.7-1 0-1.6-.6-.5-.6-.5-1.7v-4.1h1v4q0 1.5 1.2 1.5 1.3 0 1.7-1v-4.5h1.1v6.3h-1v-.6Zm8.5-2.5q0 1.5-.7 2.4-.6.8-1.8.8-1.2 0-1.8-.8v.7h-1v-9h1v3.4q.7-.9 1.8-.9 1.2 0 1.8 1 .7.8.7 2.3v.1Zm-1-.1q0-1.1-.5-1.7-.4-.6-1.2-.6-1.1 0-1.6 1v2.7q.5 1 1.6 1 .7 0 1.2-.6.4-.6.4-1.8Zm5.3 3.3q-1.3 0-2.2-.8-.8-.9-.8-2.3v-.2q0-1 .4-1.7t1-1.1q.7-.5 1.4-.5 1.2 0 2 .9.6.8.6 2.3v.4h-4.3q0 1 .6 1.6.5.5 1.3.5.6 0 1-.2t.7-.6l.6.5q-.8 1.2-2.3 1.2Zm-.2-5.7q-.6 0-1 .5-.5.5-.6 1.4h3.1v-.1q0-.9-.4-1.3-.4-.5-1-.5Zm-33 16.7h-3.7v3h4.3v.9h-5.4V367h5.4v.9h-4.3v2.7h3.7v1Zm3-2.4v.7q.8-.9 2-.9 1.3 0 1.8 1 .3-.4.8-.7.5-.3 1.2-.3 2 0 2.1 2.3v4.2h-1v-4.2q0-.7-.4-1-.3-.3-1-.3-.6 0-1 .3-.4.4-.5 1v4.2h-1v-4.2q0-1.3-1.4-1.3-1.1 0-1.5.9v4.6h-1v-6.3h1Zm15.4 3.2q0 1.5-.7 2.4-.6.8-1.8.8-1.2 0-1.8-.8v.7h-1v-9h1v3.4q.7-.9 1.8-.9 1.2 0 1.8 1 .7.8.7 2.3v.1Zm-1-.1q0-1.1-.5-1.7-.4-.6-1.2-.6-1.1 0-1.6 1v2.7q.5 1 1.6 1 .7 0 1.2-.6.4-.6.4-1.8Zm5.3 3.3q-1.3 0-2.2-.8-.8-.9-.8-2.3v-.2q0-1 .4-1.7t1-1.1q.7-.5 1.4-.5 1.2 0 2 .9.6.8.6 2.3v.4h-4.3q0 1 .6 1.6.5.5 1.3.5.6 0 1-.2t.7-.6l.6.5q-.8 1.2-2.3 1.2Zm-.2-5.7q-.6 0-1 .5-.5.5-.6 1.4h3.1v-.1q0-.9-.4-1.3-.4-.5-1-.5Zm3.3 2.4q0-1.5.7-2.4.6-.9 1.8-.9 1 0 1.7.8v-3.3h1.1v9h-1v-.7q-.7.8-1.9.8-1 0-1.7-.9t-.7-2.3v-.1Zm1 .1q0 1 .5 1.7.4.6 1.2.6 1 0 1.5-1V371q-.5-1-1.5-1-.8 0-1.2.7-.5.6-.5 1.8ZM256.4 387q0-1.3.3-2.5.4-1.2 1-2.2.8-1 1.6-1.4l.2.7q-.9.6-1.4 2-.6 1.3-.6 3v.5q0 2.3.8 4 .5 1 1.2 1.5l-.2.6q-.8-.4-1.5-1.4-1.4-2-1.4-4.8Zm6.7-.3q-1.4-.4-2.1-1-.7-.6-.7-1.5 0-1 .8-1.7t2.1-.7q1 0 1.6.4.7.3 1 1 .5.5.5 1.2H265q0-.7-.5-1.2-.5-.4-1.4-.4-.8 0-1.3.4-.4.3-.4 1 0 .5.4.8.5.4 1.5.7 1 .3 1.7.7.6.3.9.8.3.5.3 1.1 0 1-.8 1.7-.9.6-2.2.6-.9 0-1.7-.3-.7-.4-1.1-1-.4-.5-.4-1.3h1.1q0 .8.6 1.3.6.4 1.5.4t1.4-.4q.4-.3.4-1 0-.6-.4-1-.4-.3-1.6-.6Zm5.8-4v1.5h1.2v.8h-1.2v4q0 .3.2.5.1.2.5.2h.5v.8l-.8.1q-.7 0-1.1-.4-.4-.5-.4-1.3V385h-1.2v-.8h1.2v-1.6h1.1Zm6.4 7.8-.1-.7q-.8.8-1.8.8t-1.6-.5q-.6-.5-.6-1.4 0-1 .8-1.5.7-.5 2.1-.5h1v-.5q0-.6-.3-1-.3-.3-1-.3-.6 0-1 .3-.3.3-.3.7h-1.1q0-.5.3-.9t1-.7q.5-.3 1.2-.3 1 0 1.7.6.6.5.7 1.5v3q0 .8.2 1.3v.1h-1.2Zm-1.8-.8q.6 0 1-.3.5-.3.7-.7v-1.3h-.9q-2 0-2 1.2 0 .5.4.8.3.3.8.3Zm6-5.5v.8q.7-1 1.9-1 2 0 2 2.3v4.2h-1v-4.2q0-.7-.4-1-.3-.3-1-.3-.5 0-.9.3-.4.2-.6.7v4.5h-1v-6.3h1Zm5.7 3q0-1.4.7-2.3.6-.9 1.8-.9 1 0 1.7.8v-3.3h1.1v9h-1v-.7q-.7.8-1.9.8-1 0-1.7-.9t-.7-2.3v-.1Zm1 .2q0 1 .5 1.7.4.6 1.2.6 1 0 1.5-1V386q-.5-1-1.5-1-.8 0-1.2.7-.5.6-.5 1.8Zm10.1 3.1-.1-.7q-.8.8-1.8.8t-1.6-.5q-.6-.5-.6-1.4 0-1 .8-1.5.7-.5 2.1-.5h1v-.5q0-.6-.3-1-.3-.3-1-.3-.6 0-1 .3-.3.3-.3.7h-1.1q0-.5.3-.9t1-.7q.5-.3 1.2-.3 1 0 1.7.6.6.5.7 1.5v3q0 .8.2 1.3v.1h-1.2Zm-1.8-.8q.6 0 1-.3.5-.3.7-.7v-1.3h-.9q-2 0-2 1.2 0 .5.4.8.3.3.8.3Zm8-4.6h-.5q-1.1 0-1.5.9v4.5h-1v-6.3h1v.7q.5-.9 1.5-.9l.5.1v1Zm.7 2.2q0-1.5.7-2.4.6-.9 1.8-.9 1 0 1.7.8v-3.3h1.1v9h-1v-.7q-.7.8-1.9.8-1 0-1.7-.9t-.7-2.3v-.1Zm1 .1q0 1 .5 1.7.4.6 1.2.6 1 0 1.5-1V386q-.5-1-1.5-1-.8 0-1.2.7-.5.6-.5 1.8Zm-29.6 16.4q0-.4-.3-.7l-1.2-.4-1.3-.4-.7-.6q-.2-.3-.2-.8 0-.8.6-1.3.7-.6 1.7-.6 1.1 0 1.8.6.6.6.6 1.4h-1q0-.4-.4-.7-.4-.4-1-.4t-1 .3q-.2.3-.2.7 0 .4.3.6.3.2 1.1.3.8.2 1.3.5.5.2.7.6.3.3.3.8 0 .9-.7 1.4-.7.5-1.7.5-.8 0-1.4-.2-.6-.3-1-.8l-.2-1h1q0 .5.5.8.4.3 1 .3.7 0 1-.2.4-.3.4-.7Zm3.5 1.7h-1v-6.3h1v6.3Zm-1.2-8q0-.3.2-.5t.5-.2q.3 0 .4.2.2.2.2.5l-.2.4q-.1.2-.4.2-.3 0-.5-.2l-.2-.4Zm4 7.1h3.7v.9h-5v-.8l3.5-4.6h-3.4v-1h4.8v.8l-3.6 4.7Zm7.7 1q-1.3 0-2.2-.8-.8-.9-.8-2.3v-.2q0-1 .4-1.7t1-1.1q.7-.5 1.4-.5 1.2 0 2 .9.6.8.6 2.3v.4h-4.3q0 1 .6 1.6.5.5 1.3.5.6 0 1-.2t.7-.6l.6.5q-.8 1.2-2.3 1.2Zm-.2-5.7q-.6 0-1 .5-.5.5-.6 1.4h3.1v-.1q0-.9-.4-1.3-.4-.5-1-.5Zm6 2.2q0 1.3-.3 2.5-.4 1.2-1 2.2-.8 1-1.5 1.4l-.3-.6q1-.7 1.5-2.1.5-1.5.5-3.3v-.2q0-1.2-.2-2.3l-.7-1.9-1-1.3.2-.6q.7.4 1.4 1.4.7 1 1 2.2.4 1.2.4 2.6Zm52.3-43.8h-3.6l-.8 2.2h-1.1l3.2-8.5h1l3.3 8.5h-1.2l-.8-2.2Zm-3.2-1h2.9l-1.5-4-1.4 4Zm7.3-3.1v.8q.8-1 2-1 2 0 2 2.3v4.2h-1v-4.2q0-.7-.4-1-.3-.3-1-.3-.5 0-.9.3-.4.2-.6.7v4.5h-1v-6.3h1Zm7.2 6.3h-1v-6.3h1v6.3Zm-1.2-8q0-.3.2-.5t.5-.2q.3 0 .4.2.2.2.2.5l-.2.4q-.1.2-.4.2-.3 0-.5-.2l-.2-.4Zm4 1.7v.7q.8-.9 2-.9 1.3 0 1.8 1 .3-.4.8-.7.5-.3 1.2-.3 2 0 2.1 2.3v4.2h-1v-4.2q0-.7-.4-1-.3-.3-1-.3-.6 0-1 .3-.4.4-.5 1v4.2h-1v-4.2q0-1.3-1.4-1.3-1.1 0-1.5.9v4.6h-1v-6.3h1Zm14 6.3q-.2-.2-.2-.7-.8.8-1.8.8t-1.6-.5q-.6-.5-.6-1.4 0-1 .8-1.5.7-.5 2.1-.5h1v-.5q0-.6-.3-1-.3-.3-1-.3-.6 0-1 .3-.3.3-.3.7h-1.1q0-.5.3-.9t1-.7q.5-.3 1.2-.3 1 0 1.7.6.6.5.7 1.5v3q0 .8.2 1.3v.1h-1.2Zm-1.9-.8q.6 0 1-.3.5-.3.7-.7v-1.3h-.9q-2 0-2 1.2 0 .5.4.8.3.3.8.3Zm6.4-7v1.5h1.2v.8h-1.2v4q0 .3.2.5.1.2.5.2h.5v.8l-.8.1q-.7 0-1.1-.4-.4-.5-.4-1.3V355H377v-.8h1.2v-1.6h1.1Zm5.2 8q-1.3 0-2.2-1-.8-.8-.8-2.2v-.2q0-1 .4-1.7t1-1.1q.7-.5 1.4-.5 1.2 0 2 .9.6.8.6 2.3v.4h-4.3q0 1 .6 1.6.5.5 1.3.5.6 0 1-.2t.7-.6l.6.5q-.8 1.2-2.3 1.2Zm-.2-5.8q-.6 0-1.1.5-.4.5-.5 1.4h3.1v-.1q0-.9-.4-1.3-.4-.5-1-.5Zm3.3 2.4q0-1.5.6-2.4.7-.9 1.9-.9 1 0 1.7.8v-3.3h1.1v9h-1v-.7q-.7.8-1.9.8-1 0-1.8-.9-.6-.9-.6-2.3v-.1Zm1 .1q0 1 .5 1.7.4.6 1.2.6 1 0 1.5-1V356q-.5-1-1.5-1-.8 0-1.2.7-.5.6-.5 1.8Zm-43 14.9q0-1.5.6-2.4.7-.9 1.9-.9 1.1 0 1.8.9v-.7h1v6.1q0 1.3-.7 2t-2 .7q-.7 0-1.3-.3-.7-.3-1-.8l.6-.6q.6.8 1.7.8.7 0 1.2-.4.4-.5.4-1.3v-.5q-.6.7-1.8.7-1 0-1.8-.9-.6-.9-.6-2.4Zm1 .1q0 1 .5 1.7.4.6 1.2.6 1 0 1.5-1V371q-.5-1-1.5-1-.8 0-1.2.7-.4.6-.4 1.8Zm9.3-2.3h-.5q-1.1 0-1.5.9v4.5h-1v-6.3h1v.7q.5-.9 1.5-.9l.5.1v1Zm4.8 5.4-.1-.7q-.8.8-1.8.8t-1.6-.5q-.6-.5-.6-1.4 0-1 .8-1.5.7-.5 2.1-.5h1v-.5q0-.6-.3-1-.3-.3-1-.3-.6 0-1 .3-.3.3-.3.7h-1.1q0-.5.3-.9t1-.7q.5-.3 1.2-.3 1 0 1.7.6.6.5.7 1.5v3q0 .8.2 1.3v.1h-1.2Zm-1.8-.8q.6 0 1-.3.5-.3.7-.7v-1.3h-.9q-2 0-2 1.2 0 .5.4.8.3.3.8.3Zm4.7-2.4q0-1.5.6-2.4.7-.9 1.9-.9 1 0 1.7.8v-3.3h1.1v9h-1v-.7q-.7.8-1.9.8-1 0-1.8-.9-.6-.9-.6-2.3v-.1Zm1 .1q0 1 .5 1.7.4.6 1.2.6 1 0 1.5-1V371q-.5-1-1.5-1-.8 0-1.2.7-.5.6-.5 1.8Zm7.4 3.1h-1v-6.3h1v6.3Zm-1.2-8q0-.3.2-.5t.5-.2q.3 0 .4.2.2.2.2.5l-.2.4q-.1.2-.4.2-.3 0-.5-.2l-.2-.4Zm5.7 8.1q-1.3 0-2.2-.8-.8-.9-.8-2.3v-.2q0-1 .4-1.7t1-1.1q.7-.5 1.4-.5 1.2 0 2 .9.6.8.6 2.3v.4h-4.3q0 1 .6 1.6.5.5 1.3.5.6 0 1-.2t.7-.6l.6.5q-.8 1.2-2.3 1.2Zm-.2-5.7q-.6 0-1.1.5-.4.5-.5 1.4h3.1v-.1q0-.9-.4-1.3-.4-.5-1-.5Zm4.5-.7v.8q.8-1 2-1 2 0 2 2.3v4.2h-1v-4.2q0-.7-.4-1-.3-.3-1-.3-.5 0-.9.3-.4.2-.6.7v4.5h-1v-6.3h1Zm7.5-1.6v1.6h1.2v.8h-1.2v4q0 .3.2.5.1.2.5.2h.5v.8l-.8.1q-.7 0-1.1-.4-.4-.5-.4-1.3V370H386v-.8h1.2v-1.6h1.1Zm-47.1 19.8q0 1.5-.7 2.4-.6.8-1.8.8-1.2 0-1.8-.8v.7h-1v-9h1v3.4q.7-.9 1.8-.9 1.2 0 1.8 1 .7.8.7 2.3v.1Zm-1-.1q0-1.1-.5-1.7-.4-.6-1.2-.6-1.1 0-1.6 1v2.7q.5 1 1.6 1 .7 0 1.2-.6.4-.6.4-1.8Zm6.5 3.2-.1-.7q-.8.8-1.8.8t-1.6-.5q-.6-.5-.6-1.4 0-1 .8-1.5.7-.5 2.1-.5h1v-.5q0-.6-.3-1-.3-.3-1-.3-.6 0-1 .3-.3.3-.3.7h-1.1q0-.5.3-.9t1-.7q.5-.3 1.2-.3 1 0 1.7.6.6.5.7 1.5v3q0 .8.2 1.3v.1h-1.2Zm-1.8-.8q.6 0 1-.3.5-.3.7-.7v-1.3h-.9q-2 0-2 1.2 0 .5.4.8.3.3.8.3Zm7.5 0q.5 0 1-.3.4-.4.5-.9h1q0 .5-.4 1-.3.5-1 .8-.5.3-1.1.3-1.3 0-2.1-.8-.8-1-.8-2.4v-.2q0-1 .4-1.6.3-.8 1-1.1.6-.5 1.5-.5 1 0 1.7.7.7.6.8 1.6h-1q0-.6-.5-1-.4-.4-1-.4-.9 0-1.3.6-.5.6-.5 1.8v.2q0 1 .5 1.6.4.6 1.3.6Zm5.2-2.1-.7.7v2.2h-1v-9h1v5.4l.6-.6 2-2.1h1.3l-2.5 2.6 2.8 3.7h-1.3l-2.2-3Zm4-.3q0-1.5.6-2.4.7-.9 1.9-.9 1.1 0 1.8.9v-.7h1v6.1q0 1.3-.7 2t-2 .7q-.7 0-1.3-.3-.7-.3-1-.8l.6-.6q.6.8 1.7.8.7 0 1.2-.4.4-.5.4-1.3v-.5q-.6.7-1.8.7-1 0-1.8-.9-.6-.9-.6-2.4Zm1 .1q0 1 .5 1.7.4.6 1.2.6 1 0 1.5-1V386q-.5-1-1.5-1-.8 0-1.2.7-.4.6-.4 1.8Zm9.3-2.3h-.5q-1.1 0-1.5.9v4.5h-1v-6.3h1v.7q.5-.9 1.5-.9l.5.1v1Zm.6 2.2q0-1 .4-1.7.4-.8 1-1.1.7-.5 1.5-.5 1.3 0 2.1 1 .8.8.8 2.3v.1q0 1-.3 1.7-.4.7-1 1.1-.7.4-1.6.4-1.3 0-2-.9-.9-.9-.9-2.4Zm1.1.1q0 1 .5 1.7.5.6 1.3.6.9 0 1.3-.6.5-.7.5-1.8 0-1-.5-1.7t-1.3-.7q-.8 0-1.3.7-.5.6-.5 1.8Zm10.1 2.5q-.6.7-1.8.7-1 0-1.6-.6-.5-.6-.5-1.7v-4.1h1v4q0 1.5 1.2 1.5 1.3 0 1.7-1v-4.5h1.1v6.3h-1v-.6Zm4.1-5.7v.8q.8-1 2-1 2 0 2 2.3v4.2h-1v-4.2q0-.7-.4-1-.3-.3-1-.3-.5 0-.9.3-.4.2-.6.7v4.5h-1v-6.3h1Zm5.8 3q0-1.4.6-2.3.7-.9 1.9-.9 1 0 1.7.8v-3.3h1.1v9h-1v-.7q-.7.8-1.9.8-1 0-1.8-.9-.6-.9-.6-2.3v-.1Zm1 .2q0 1 .5 1.7.4.6 1.2.6 1 0 1.5-1V386q-.5-1-1.5-1-.8 0-1.2.7-.5.6-.5 1.8Zm-30.8 15.4q-.2 1.3-1 2-.9.8-2.3.8-1.5 0-2.4-1-.9-1.1-.9-3v-.8q0-1.2.4-2 .4-1 1.2-1.5.8-.5 1.8-.5 1.4 0 2.2.8.8.8 1 2.1h-1.2q-.1-1-.6-1.5-.5-.4-1.4-.4-1 0-1.7.8-.6.8-.6 2.2v.9q0 1.4.6 2.2.6.8 1.6.8t1.5-.4q.5-.5.6-1.5h1.2Zm4.2-1.1q-1.4-.4-2.1-1-.7-.6-.7-1.5 0-1 .8-1.7t2.1-.7q1 0 1.6.4.7.3 1 1 .5.5.5 1.2H370q0-.7-.5-1.2-.5-.4-1.4-.4-.8 0-1.3.4-.4.3-.4 1 0 .5.4.8.5.4 1.5.7 1 .3 1.7.7.6.3.9.8.3.5.3 1.1 0 1-.8 1.7-.9.6-2.2.6-.9 0-1.7-.3-.7-.4-1.1-1-.4-.5-.4-1.3h1q0 .8.7 1.3.6.4 1.5.4t1.4-.4q.4-.3.4-1 0-.6-.4-1-.4-.3-1.6-.6Zm7 0q-1.4-.4-2.1-1-.7-.6-.7-1.5 0-1 .8-1.7t2.1-.7q1 0 1.6.4.7.3 1 1 .5.5.5 1.2H377q0-.7-.5-1.2-.5-.4-1.4-.4-.8 0-1.3.4-.4.3-.4 1 0 .5.4.8.5.4 1.5.7 1 .3 1.7.7.6.3.9.8.3.5.3 1.1 0 1-.8 1.7-.9.6-2.2.6-.9 0-1.7-.3-.7-.4-1.1-1-.4-.5-.4-1.3h1q0 .8.7 1.3.6.4 1.5.4t1.4-.4q.4-.3.4-1 0-.6-.4-1-.4-.3-1.6-.6Zm48-44.5v3.3h-1V352h3.1q1.4 0 2.2.7.8.7.8 1.9t-.8 1.9q-.7.7-2.2.7h-2Zm0-1h2q1 0 1.4-.4.5-.4.5-1.2 0-.8-.5-1.2-.5-.5-1.3-.5h-2v3.3Zm9.4 4.4q-1.3 0-2.2-.8-.8-.9-.8-2.3v-.2q0-1 .4-1.7t1-1.1q.7-.5 1.4-.5 1.2 0 2 .9.6.8.6 2.3v.4h-4.3q0 1 .6 1.6.5.5 1.3.5.6 0 1-.2t.7-.6l.6.5q-.8 1.2-2.3 1.2Zm-.2-5.7q-.6 0-1.1.5-.4.5-.5 1.4h3.1v-.1q0-.9-.4-1.3-.4-.5-1-.5Zm6.6.2h-.5q-1.1 0-1.5.9v4.5h-1v-6.3h1v.7q.5-.9 1.5-.9l.5.1v1Zm2.1 5.4h-1v-9h1v9Zm3 0h-1v-6.3h1v6.3Zm-1.2-8q0-.3.2-.5t.5-.2q.3 0 .4.2.2.2.2.5l-.2.4q-.1.2-.4.2-.3 0-.5-.2l-.2-.4Zm4 1.7v.8q.8-1 2-1 2 0 2 2.3v4.2h-1v-4.2q0-.7-.4-1-.3-.3-1-.3-.5 0-.9.3-.4.2-.6.7v4.5h-1v-6.3h1Zm14.4 3.2q0 1.5-.7 2.4-.6.8-1.8.8-1.2 0-1.8-.8v.7h-1v-9h1v3.4q.7-.9 1.8-.9 1.2 0 1.8 1 .7.8.7 2.3v.1Zm-1-.1q0-1.1-.5-1.7-.5-.6-1.2-.6-1.1 0-1.6 1v2.7q.5 1 1.6 1 .7 0 1.2-.6.4-.6.4-1.8Zm6.5 3.2-.1-.7q-.8.8-1.8.8t-1.6-.5q-.6-.5-.6-1.4 0-1 .8-1.5.7-.5 2.1-.5h1v-.5q0-.6-.3-1-.3-.3-1-.3-.6 0-1 .3-.3.3-.3.7h-1.1q0-.5.3-.9t1-.7q.5-.3 1.2-.3 1 0 1.7.6.6.5.7 1.5v3q0 .8.2 1.3v.1h-1.2Zm-1.8-.8q.6 0 1-.3.5-.3.7-.7v-1.3h-.9q-2 0-2 1.2 0 .5.4.8.3.3.8.3Zm8.6-.9q0-.4-.3-.7l-1.2-.4-1.3-.4-.7-.6q-.2-.3-.2-.8 0-.8.6-1.3.7-.6 1.7-.6 1.1 0 1.8.6.6.6.6 1.4h-1q0-.4-.4-.7-.4-.4-1-.4t-1 .3q-.2.3-.2.7 0 .4.3.6.3.2 1 .3 1 .2 1.4.5.5.2.7.6.3.3.3.8 0 .9-.7 1.4-.7.5-1.7.5-.8 0-1.4-.2-.6-.3-1-.8l-.2-1h1q0 .5.5.8.4.3 1 .3.7 0 1-.2.4-.3.4-.7Zm3.5 1.7h-1v-6.3h1v6.3Zm-1.2-8q0-.3.2-.5t.5-.2q.3 0 .4.2.2.2.2.5l-.2.4q-.1.2-.4.2-.3 0-.5-.2l-.2-.4Zm5.6 7.2q.5 0 1-.3.4-.4.5-.9h1q0 .5-.4 1-.3.5-1 .8-.5.3-1.1.3-1.3 0-2.1-.8-.8-1-.8-2.4v-.2q0-1 .4-1.6.3-.8 1-1.1.6-.5 1.5-.5 1 0 1.7.7.7.6.8 1.6h-1q0-.6-.5-1-.4-.4-1-.4-.9 0-1.3.6-.5.6-.5 1.8v.2q0 1 .5 1.6.4.6 1.3.6Zm-65.1 13.1.2 1.1.2-1 1.7-6h1l1.6 6 .2 1 .2-1.1 1.4-5.8h1l-2 8.5h-1l-1.8-6.2-.1-.7-.1.7-1.8 6.2h-1l-2.1-8.5h1l1.4 5.8Zm11.7 2.8q-1.3 0-2.2-.8-.8-.9-.8-2.3v-.2q0-1 .4-1.7t1-1.1q.7-.5 1.4-.5 1.2 0 2 .9.6.8.6 2.3v.4H426q0 1 .6 1.6.5.5 1.3.5.6 0 1-.2t.7-.6l.6.5q-.8 1.2-2.3 1.2Zm-.2-5.7q-.6 0-1.1.5-.4.5-.5 1.4h3.1v-.1q0-.9-.4-1.3-.4-.5-1-.5Zm8.9 2.5q0 1.5-.7 2.4-.6.8-1.8.8-1.2 0-1.8-.8v.7h-1v-9h1v3.4q.7-.9 1.8-.9 1.2 0 1.8 1 .7.8.7 2.3v.1Zm-1-.1q0-1.1-.5-1.7-.5-.6-1.2-.6-1.1 0-1.6 1v2.7q.5 1 1.6 1 .7 0 1.2-.6.4-.6.4-1.8Zm9 2q-.3.7-1.1 1-.8.3-1.8.3t-1.9-.5q-.8-.5-1.2-1.4-.5-.9-.5-2v-.8q0-2 1-3 .8-1 2.4-1 1.4 0 2.2.6.8.7 1 2h-1.1q-.4-1.7-2-1.7-1.2 0-1.8.8-.5.8-.6 2.3v.7q0 1.4.7 2.3.7.8 1.8.8l1-.1q.6-.2.9-.5v-2h-2v-.9h3v3.2Zm3 .3h4v.9h-5.2V367h1.1v7.6Zm11.3-.8q0-.4-.3-.7l-1.2-.4-1.3-.4-.7-.6q-.2-.3-.2-.8 0-.8.6-1.3.7-.6 1.7-.6 1.1 0 1.8.6.6.6.6 1.4h-1q0-.4-.4-.7-.4-.4-1-.4t-1 .3q-.2.3-.2.7 0 .4.3.6.3.2 1 .3 1 .2 1.4.5.5.2.7.6.3.3.3.8 0 .9-.7 1.4-.7.5-1.7.5-.8 0-1.4-.2-.6-.3-1-.8l-.2-1h1q0 .5.5.8.4.3 1 .3.7 0 1-.2.4-.3.4-.7Zm3.4-3.9q.7-.9 1.9-.9 2 0 2 2.3v4.2h-1v-4.2q0-.7-.4-1-.3-.3-1-.3-.5 0-.9.3-.4.2-.6.7v4.5h-1v-9h1v3.4Zm9.8 5.6-.1-.7q-.8.8-1.8.8t-1.6-.5q-.6-.5-.6-1.4 0-1 .8-1.5.7-.5 2.1-.5h1v-.5q0-.6-.3-1-.3-.3-1-.3-.6 0-1 .3-.3.3-.3.7h-1.1q0-.5.3-.9t1-.7q.5-.3 1.2-.3 1 0 1.7.6.6.5.7 1.5v3q0 .8.2 1.3v.1H472Zm-1.8-.8q.6 0 1-.3.5-.3.7-.7v-1.3h-.9q-2 0-2 1.2 0 .5.4.8.3.3.8.3Zm4.7-2.4q0-1.5.6-2.4.7-.9 1.9-.9 1 0 1.7.8v-3.3h1.1v9h-1v-.7q-.7.8-1.9.8-1 0-1.8-.9-.6-.9-.6-2.3v-.1Zm1 .1q0 1 .5 1.7.4.6 1.2.6 1 0 1.5-1V371q-.5-1-1.5-1-.8 0-1.2.7-.5.6-.5 1.8Zm8.9 3.2q-1.3 0-2.2-.8-.8-.9-.8-2.3v-.2q0-1 .4-1.7t1-1.1q.7-.5 1.4-.5 1.2 0 2 .9.6.8.6 2.3v.4H483q0 1 .6 1.6.5.5 1.3.5.6 0 1-.2t.7-.6l.6.5q-.8 1.2-2.3 1.2Zm-.2-5.7q-.6 0-1.1.5-.4.5-.5 1.4h3.1v-.1q0-.9-.4-1.3-.4-.5-1-.5Zm6.6.2h-.5q-1.1 0-1.5.9v4.5h-1v-6.3h1v.7q.5-.9 1.5-.9l.5.1v1ZM422.2 387q0-1.3.3-2.5.4-1.2 1-2.2.8-1 1.6-1.4l.2.7q-.9.6-1.4 2-.6 1.3-.6 3v.5q0 2.3.8 4 .5 1 1.2 1.5l-.2.6q-.8-.4-1.5-1.4-1.4-2-1.4-4.8Zm8.5.6h1.2v1h-1.2v1.9h-1.1v-2h-3.9v-.6l3.8-6h1.2v5.7Zm-3.8 0h2.7v-4.1l-.1.2-2.6 4Zm11.6-.7q0 1.9-.7 2.8-.6 1-2 1t-2-1q-.7-.9-.7-2.7v-1.4q0-2 .6-2.8.7-1 2-1 1.4 0 2 1 .7.8.8 2.7v1.4Zm-1.1-1.5q0-1.4-.4-2-.4-.7-1.2-.7-.9 0-1.3.7-.3.6-.3 1.9v1.7q0 1.4.4 2 .4.7 1.2.7.8 0 1.2-.6.4-.6.4-2v-1.7Zm8 1.5q0 1.9-.6 2.8-.6 1-2 1t-2-1q-.7-.9-.7-2.7v-1.4q0-2 .6-2.8.7-1 2-1 1.4 0 2 1 .7.8.8 2.7v1.4Zm-1-1.5q0-1.4-.4-2-.4-.7-1.2-.7-.9 0-1.3.7-.3.6-.3 1.9v1.7q0 1.4.4 2 .4.7 1.2.7.8 0 1.2-.6.4-.6.4-2v-1.7Zm8 1 1.4-2.2h1.2l-2 3.1 2 3.2h-1.2l-1.4-2.4-1.5 2.4h-1.3l2.2-3.2-2-3.1h1.2l1.4 2.3Zm8.3-.7h.8q.8 0 1.2-.4.4-.4.4-1 0-1.6-1.5-1.6-.7 0-1 .4-.5.4-.5 1.1h-1q0-1 .7-1.7t1.8-.7q1.3 0 2 .7.6.6.6 1.8 0 .5-.3 1-.4.6-1 .8.7.2 1 .8.5.5.5 1.2 0 1.2-.8 1.9-.7.6-2 .6-1.1 0-2-.6-.7-.7-.7-1.8h1.1q0 .7.5 1.1.4.4 1.2.4.7 0 1.2-.4.4-.4.4-1.2 0-.7-.5-1-.4-.5-1.3-.5h-.8v-.9Zm10.8 1.2q0 1.9-.7 2.8-.6 1-2 1t-2-1q-.7-.9-.7-2.7v-1.4q0-2 .6-2.8.7-1 2-1 1.4 0 2 1 .7.8.8 2.7v1.4Zm-1.1-1.5q0-1.4-.4-2-.4-.7-1.2-.7-.9 0-1.3.7-.3.6-.3 1.9v1.7q0 1.4.4 2 .4.7 1.2.7.8 0 1.2-.6.4-.6.4-2v-1.7Zm8 1.5q0 1.9-.6 2.8-.6 1-2 1t-2-1q-.7-.9-.7-2.7v-1.4q0-2 .6-2.8.7-1 2-1 1.4 0 2 1 .7.8.8 2.7v1.4Zm-1-1.5q0-1.4-.4-2-.4-.7-1.2-.7-.9 0-1.3.7-.3.6-.3 1.9v1.7q0 1.4.4 2 .4.7 1.2.7.8 0 1.2-.6.4-.6.4-2v-1.7Zm5.3 1.7q0 1.3-.3 2.5-.4 1.2-1 2.2-.8 1-1.5 1.4l-.3-.6q1-.7 1.5-2.1.5-1.5.5-3.3v-.2q0-1.2-.2-2.3-.3-1-.8-1.9-.4-.8-1-1.3l.3-.6q.7.4 1.4 1.4.7 1 1 2.2.4 1.2.4 2.6Zm25.3-29.9v3.3h-1.2V352h3.1q1.4 0 2.2.7.8.7.8 1.9t-.8 1.9q-.7.7-2.2.7h-2Zm0-1h2q.8 0 1.3-.4t.5-1.2q0-.8-.5-1.2-.5-.5-1.3-.5h-2v3.3Zm9.2 4.4q-1.2 0-2-.8-.9-.9-.9-2.3v-.2q0-1 .4-1.7t1-1.1q.7-.5 1.4-.5 1.2 0 2 .9.6.8.6 2.3v.4h-4.3q0 1 .6 1.6.5.5 1.3.5.6 0 1-.2t.7-.6l.6.5q-.8 1.2-2.4 1.2Zm0-5.7q-.7 0-1.2.5-.4.5-.5 1.4h3.1v-.1q0-.9-.4-1.3-.4-.5-1-.5Zm6.5.2h-.5q-1.1 0-1.5.9v4.5h-1v-6.3h1v.7q.5-.9 1.5-.9l.5.1v1Zm2.1 5.4h-1v-9h1v9Zm3 0h-1v-6.3h1v6.3Zm-1.2-8q0-.3.2-.5t.5-.2q.3 0 .4.2.2.2.2.5l-.2.4q-.1.2-.4.2-.3 0-.5-.2l-.2-.4Zm4 1.7v.8q.8-1 2-1 2 0 2 2.3v4.2h-1v-4.2q0-.7-.4-1-.3-.3-1-.3-.5 0-.9.3-.4.2-.6.7v4.5h-1v-6.3h1Zm14.4 3.2q0 1.5-.7 2.4-.6.8-1.8.8-1.2 0-1.8-.8v.7h-1v-9h1v3.4q.7-.9 1.8-.9 1.2 0 1.8 1 .7.8.7 2.3v.1Zm-1-.1q0-1.1-.5-1.7-.5-.6-1.3-.6-1 0-1.5 1v2.7q.5 1 1.5 1 .8 0 1.3-.6.4-.6.4-1.8Zm6.5 3.2-.1-.7q-.8.8-1.8.8t-1.6-.5q-.6-.5-.6-1.4 0-1 .8-1.5.7-.5 2.1-.5h1v-.5q0-.6-.3-1-.3-.3-1-.3-.6 0-1 .3-.3.3-.3.7h-1.1q0-.5.3-.9t1-.7q.5-.3 1.2-.3 1 0 1.7.6.6.5.7 1.5v3q0 .8.2 1.3v.1h-1.2Zm-1.8-.8q.5 0 1-.3t.7-.7v-1.3h-.9q-2 0-2 1.2 0 .5.4.8.3.3.8.3Zm8.6-.9q0-.4-.3-.7l-1.2-.4-1.3-.4-.7-.6q-.2-.3-.2-.8 0-.8.6-1.3.7-.6 1.7-.6 1.1 0 1.8.6.6.6.6 1.4h-1q0-.4-.4-.7-.4-.4-1-.4t-1 .3q-.2.3-.2.7 0 .4.3.6.3.2 1 .3 1 .2 1.4.5.5.2.7.6.3.3.3.8 0 .9-.7 1.4-.7.5-1.7.5-.8 0-1.4-.2-.6-.3-1-.8l-.2-1h1q0 .5.5.8.4.3 1 .3.7 0 1-.2.4-.3.4-.7Zm3.5 1.7h-1v-6.3h1v6.3Zm-1.2-8q0-.3.2-.5t.5-.2q.3 0 .4.2.2.2.2.5l-.2.4q-.1.2-.4.2-.3 0-.5-.2l-.2-.4Zm5.6 7.2q.5 0 1-.3.4-.4.5-.9h1q0 .5-.4 1-.3.5-1 .8-.5.3-1.1.3-1.3 0-2.1-.8-.8-1-.8-2.4v-.2q0-1 .4-1.6.3-.8 1-1.1.6-.5 1.5-.5 1 0 1.7.7.7.6.8 1.6h-1q0-.6-.5-1-.4-.4-1-.4-.9 0-1.3.6-.5.6-.5 1.8v.2q0 1 .5 1.6.4.6 1.3.6Zm-65.1 13.1.2 1.1.2-1 1.7-6h1l1.6 6 .2 1 .2-1.1 1.4-5.8h1l-2 8.5h-1l-1.8-6.2-.1-.7-.1.7-1.9 6.2h-1l-2-8.5h1l1.4 5.8Zm11.6 2.8q-1.2 0-2-.8-.9-.9-.9-2.3v-.2q0-1 .4-1.7t1-1.1q.7-.5 1.4-.5 1.2 0 2 .9.6.8.6 2.3v.4H511q0 1 .6 1.6.5.5 1.3.5.6 0 1-.2t.7-.6l.6.5q-.8 1.2-2.4 1.2Zm0-5.7q-.7 0-1.2.5-.4.5-.5 1.4h3.1v-.1q0-.9-.4-1.3-.4-.5-1-.5Zm8.8 2.5q0 1.5-.7 2.4-.6.8-1.8.8-1.2 0-1.8-.8v.7h-1v-9h1v3.4q.7-.9 1.8-.9 1.2 0 1.8 1 .7.8.7 2.3v.1Zm-1-.1q0-1.1-.5-1.7-.5-.6-1.3-.6-1 0-1.5 1v2.7q.5 1 1.5 1 .8 0 1.3-.6.4-.6.4-1.8Zm9 2q-.3.7-1.1 1-.8.3-1.8.3t-1.9-.5q-.8-.5-1.2-1.4-.5-.9-.5-2v-.8q0-2 1-3 .8-1 2.4-1 1.4 0 2.2.6.8.7 1 2h-1.1q-.4-1.7-2-1.7-1.2 0-1.8.8-.5.8-.6 2.3v.7q0 1.4.7 2.3.7.8 1.8.8l1-.1q.6-.2.9-.5v-2h-2v-.9h3v3.2Zm3 .3h4v.9h-5.2V367h1.1v7.6Zm11.3-.8q0-.4-.3-.7l-1.2-.4-1.3-.4-.7-.6q-.2-.3-.2-.8 0-.8.6-1.3.7-.6 1.7-.6 1.1 0 1.8.6.6.6.6 1.4h-1q0-.4-.4-.7-.4-.4-1-.4t-1 .3q-.2.3-.2.7 0 .4.3.6.3.2 1 .3 1 .2 1.4.5.5.2.7.6.3.3.3.8 0 .9-.7 1.4-.7.5-1.7.5-.8 0-1.4-.2-.6-.3-1-.8l-.2-1h1q0 .5.5.8.4.3 1 .3.7 0 1-.2.4-.3.4-.7Zm3.4-3.9q.7-.9 1.9-.9 2 0 2 2.3v4.2h-1v-4.2q0-.7-.4-1-.3-.3-1-.3-.5 0-.9.3-.4.2-.6.7v4.5h-1v-9h1v3.4Zm9.8 5.6-.1-.7q-.8.8-1.8.8t-1.6-.5q-.6-.5-.6-1.4 0-1 .8-1.5.7-.5 2.1-.5h1v-.5q0-.6-.3-1-.3-.3-1-.3-.6 0-1 .3-.3.3-.3.7H553q0-.5.3-.9t1-.7q.5-.3 1.2-.3 1 0 1.7.6.6.5.7 1.5v3q0 .8.2 1.3v.1H557Zm-1.8-.8q.5 0 1-.3t.7-.7v-1.3h-.9q-2 0-2 1.2 0 .5.4.8.3.3.8.3Zm4.7-2.4q0-1.5.6-2.4.7-.9 1.9-.9 1 0 1.7.8v-3.3h1.1v9h-1v-.7q-.7.8-1.9.8-1 0-1.8-.9-.6-.9-.6-2.3v-.1Zm1 .1q0 1 .5 1.7.4.6 1.2.6 1 0 1.5-1V371q-.5-1-1.5-1-.8 0-1.2.7-.5.6-.5 1.8Zm8.8 3.2q-1.2 0-2-.8-.9-.9-.9-2.3v-.2q0-1 .4-1.7t1-1.1q.7-.5 1.4-.5 1.2 0 2 .9.6.8.6 2.3v.4H568q0 1 .6 1.6.5.5 1.3.5.6 0 1-.2t.7-.6l.6.5q-.8 1.2-2.4 1.2Zm0-5.7q-.7 0-1.2.5-.4.5-.5 1.4h3.1v-.1q0-.9-.4-1.3-.4-.5-1-.5Zm6.5.2h-.5q-1.1 0-1.5.9v4.5h-1v-6.3h1v.7q.5-.9 1.5-.9l.5.1v1ZM506.6 387q0-1.3.3-2.5.4-1.2 1-2.2.8-1 1.6-1.4l.2.7q-.9.6-1.4 2-.6 1.3-.6 3v.5q0 2.3.8 4 .5 1 1.2 1.5l-.2.6q-.8-.4-1.5-1.4-1.4-2-1.4-4.8Zm4.6 3.5V385h-1v-.8h1v-.7q0-1 .5-1.6.5-.5 1.5-.5h.8v1l-.7-.1q-.5 0-.8.3-.3.3-.3.9v.7h1.4v.8h-1.4v5.5h-1Zm7.3-.6q-.6.7-1.8.7-1 0-1.6-.6-.5-.6-.5-1.7v-4.1h1v4q0 1.5 1.2 1.5 1.3 0 1.7-1v-4.5h1v6.3h-1v-.6Zm4.3.6h-1v-9h1v9Zm3 0h-1v-9h1v9Zm8.5-1.7q0-.4-.3-.7l-1.2-.4-1.3-.4-.7-.6q-.2-.3-.2-.8 0-.8.6-1.3.7-.6 1.7-.6 1.1 0 1.8.6.6.6.6 1.4h-1q0-.4-.4-.7-.4-.4-1-.4t-1 .3q-.2.3-.2.7 0 .4.3.6.3.2 1 .3 1 .2 1.4.5.5.2.7.6.3.3.3.8 0 .9-.7 1.4-.7.5-1.7.5-.8 0-1.4-.2-.6-.3-1-.8l-.2-1h1q0 .5.5.8.4.3 1 .3.7 0 1-.2.4-.3.4-.7Zm4.9 1q.5 0 1-.4.4-.4.5-.9h1q0 .5-.4 1-.3.5-1 .8-.5.3-1.1.3-1.3 0-2.1-.8-.8-1-.8-2.4v-.2q0-1 .4-1.6.3-.8 1-1.1.6-.5 1.5-.5 1 0 1.7.7.7.6.8 1.6h-1q0-.6-.5-1-.4-.4-1-.4-.9 0-1.3.6-.5.6-.5 1.8v.2q0 1 .5 1.6.4.6 1.3.6Zm6.5-4.7h-.5q-1.1 0-1.5.9v4.5h-1v-6.3h1v.7q.5-.9 1.5-.9l.5.1v1Zm3.5 5.5q-1.2 0-2-.8-.9-.9-.9-2.3v-.2q0-1 .4-1.7t1-1.1q.7-.5 1.4-.5 1.2 0 2 .9.6.8.6 2.3v.4h-4.3q0 1 .6 1.6.5.5 1.3.5.6 0 1-.2t.7-.6l.6.5q-.8 1.2-2.4 1.2Zm0-5.7q-.7 0-1.2.5-.4.5-.5 1.4h3.1v-.1q0-.9-.4-1.3-.4-.5-1-.5Zm6 5.7q-1.2 0-2-.8-.9-.9-.9-2.3v-.2q0-1 .4-1.7t1-1.1q.7-.5 1.4-.5 1.2 0 2 .9.6.8.6 2.3v.4h-4.3q0 1 .6 1.6.5.5 1.3.5.6 0 1-.2t.7-.6l.6.5q-.8 1.2-2.4 1.2Zm0-5.7q-.7 0-1.2.5-.4.5-.5 1.4h3.1v-.1q0-.9-.4-1.3-.4-.5-1-.5Zm4.4-.7v.8q.8-1 2-1 2 0 2 2.3v4.2h-1v-4.2q0-.7-.4-1-.3-.3-1-.3-.5 0-.9.3-.4.2-.6.7v4.5h-1v-6.3h1Zm8.5 2.9q0 1.3-.3 2.5-.4 1.2-1 2.2-.8 1-1.6 1.4l-.2-.6q1-.7 1.5-2.1.5-1.5.5-3.3v-.2q0-1.2-.2-2.3-.3-1-.8-1.9-.4-.8-1-1.3l.2-.6q.8.4 1.5 1.4.7 1 1 2.2.4 1.2.4 2.6Zm25.2-27.5h4v.9h-5.1V352h1.1v7.6Zm5.9.9h-1v-6.3h1v6.3Zm-1.2-8q0-.3.2-.5t.5-.2q.3 0 .4.2.2.2.2.5l-.2.4q-.1.2-.4.2-.3 0-.5-.2l-.2-.4Zm4.5.1v1.6h1.2v.8h-1.2v4l.1.5q.2.2.6.2h.5v.8l-.8.1q-.8 0-1.1-.4-.4-.5-.4-1.3V355h-1.2v-.8h1.2v-1.6h1Zm4 0v1.6h1.2v.8h-1.2v4l.1.5q.2.2.6.2h.5v.8l-.8.1q-.8 0-1.1-.4-.4-.5-.4-1.3V355h-1.2v-.8h1.2v-1.6h1Zm3.7 7.9h-1v-9h1v9Zm4.4.1q-1.2 0-2-.8-.9-.9-.9-2.3v-.2q0-1 .4-1.7t1-1.1q.7-.5 1.4-.5 1.2 0 2 .9.6.8.6 2.3v.4h-4.3q0 1 .6 1.6.5.5 1.3.5.6 0 1-.2t.7-.6l.6.5q-.8 1.2-2.4 1.2Zm0-5.7q-.7 0-1.2.5-.4.5-.5 1.4h3.1v-.1q0-.9-.4-1.3-.4-.5-1-.5Zm12.5-2h-2.8v7.6h-1v-7.6h-2.8v-1h6.6v1Zm.6 4.4q0-1 .4-1.7.4-.8 1-1.1.7-.5 1.5-.5 1.3 0 2 1 1 .8 1 2.3v.1q0 1-.5 1.7-.3.7-1 1.1-.6.4-1.5.4-1.3 0-2-.9-.9-.9-.9-2.4Zm1.1.1q0 1 .5 1.7.5.6 1.3.6t1.3-.6q.5-.7.5-1.8 0-1-.5-1.7t-1.3-.7q-.8 0-1.3.7-.5.6-.5 1.8Zm8 .2-.7.7v2.2h-1v-9h1v5.4l.6-.6 2-2.1h1.3l-2.5 2.6 2.8 3.7H639l-2.2-3Zm6.3 1.3 1.5-4.7h1.1l-2.5 7.3q-.6 1.6-1.9 1.6h-.2l-.4-.1v-1l.3.1q.5 0 .8-.2.3-.2.6-.8l.2-.7-2.3-6.2h1.2l1.6 4.7Zm3.6-1.6q0-1 .4-1.7.4-.8 1-1.1.7-.5 1.5-.5 1.3 0 2 1 1 .8 1 2.3v.1q0 1-.5 1.7-.3.7-1 1.1-.6.4-1.5.4-1.3 0-2-.9-.9-.9-.9-2.4Zm1.1.1q0 1 .5 1.7.5.6 1.3.6t1.3-.6q.5-.7.5-1.8 0-1-.5-1.7t-1.3-.7q-.8 0-1.3.7-.5.6-.5 1.8Zm-59.3 15.4.2 1.1.2-1 1.7-6h1l1.6 6 .2 1 .2-1.1 1.4-5.8h1l-2 8.5h-1l-1.8-6.2-.1-.7-.1.7-1.9 6.2h-1l-2-8.5h1l1.4 5.8Zm11.6 2.8q-1.2 0-2-.8-.9-.9-.9-2.3v-.2q0-1 .4-1.7t1-1.1q.7-.5 1.4-.5 1.2 0 2 .9.6.8.6 2.3v.4h-4.3q0 1 .6 1.6.5.5 1.3.5.6 0 1-.2t.7-.6l.6.5q-.8 1.2-2.4 1.2Zm0-5.7q-.7 0-1.2.5-.4.5-.5 1.4h3.1v-.1q0-.9-.4-1.3-.4-.5-1-.5Zm8.8 2.5q0 1.5-.7 2.4-.6.8-1.8.8-1.2 0-1.8-.8v.7h-1v-9h1v3.4q.7-.9 1.8-.9 1.2 0 1.8 1 .7.8.7 2.3v.1Zm-1.1-.1q0-1.1-.4-1.7-.5-.6-1.3-.6-1 0-1.5 1v2.7q.5 1 1.5 1 .8 0 1.3-.6.4-.6.4-1.8Zm9.2 2q-.4.7-1.2 1-.8.3-1.8.3t-1.9-.5q-.8-.5-1.2-1.4-.5-.9-.5-2v-.8q0-2 .9-3 1-1 2.5-1 1.4 0 2.2.6.8.7 1 2h-1.1q-.4-1.7-2-1.7-1.2 0-1.8.8-.5.8-.6 2.3v.7q0 1.4.7 2.3.7.8 1.8.8l1-.1q.6-.2.9-.5v-2h-2v-.9h3v3.2Zm2.8.3h4v.9h-5.1V367h1.1v7.6Zm10.4-2.9q-1.4-.4-2.1-1-.7-.6-.7-1.5 0-1 .8-1.7t2.1-.7q1 0 1.6.4.7.3 1 1 .5.5.5 1.2h-1.2q0-.7-.5-1.2-.5-.4-1.4-.4-.8 0-1.3.4-.4.3-.4 1 0 .5.4.8.5.4 1.5.7 1 .3 1.7.7.6.3.9.8.3.5.3 1.1 0 1-.8 1.7-.9.6-2.2.6-.9 0-1.7-.3-.7-.4-1.1-1-.4-.5-.4-1.3h1q0 .8.7 1.3.5.4 1.5.4.9 0 1.4-.4.4-.3.4-1 0-.6-.4-1-.4-.3-1.6-.6Zm6.9 3q.5 0 1-.3.4-.4.5-.9h1q0 .5-.4 1-.3.5-1 .8-.5.3-1.1.3-1.3 0-2.1-.8-.8-1-.8-2.4v-.2q0-1 .4-1.6.3-.8 1-1.1.6-.5 1.5-.5 1 0 1.7.7.7.6.8 1.6h-1q0-.6-.5-1-.4-.4-1-.4-.9 0-1.3.6-.5.6-.5 1.8v.2q0 1 .5 1.6.4.6 1.3.6Zm6 1q-1.2 0-2-1-.9-.8-.9-2.2v-.2q0-1 .4-1.7t1-1.1q.7-.5 1.4-.5 1.2 0 2 .9.6.8.6 2.3v.4h-4.3q0 1 .6 1.6.5.5 1.3.5.6 0 1-.2t.7-.6l.6.5q-.8 1.2-2.4 1.2Zm0-5.8q-.7 0-1.2.5-.4.5-.5 1.4h3.1v-.1q0-.9-.4-1.3-.4-.5-1-.5Zm4.4-.7v.8q.8-1 2-1 2 0 2 2.3v4.2h-1v-4.2q0-.7-.4-1-.3-.3-1-.3-.5 0-.9.3-.4.2-.6.7v4.5h-1v-6.3h1Zm8.6 6.4q-1.2 0-2-.8-.9-.9-.9-2.3v-.2q0-1 .4-1.7t1-1.1q.7-.5 1.4-.5 1.2 0 2 .9.6.8.6 2.3v.4h-4.3q0 1 .6 1.6.5.5 1.3.5.6 0 1-.2t.7-.6l.6.5q-.8 1.2-2.4 1.2Zm0-5.7q-.7 0-1.2.5-.4.5-.5 1.4h3.1v-.1q0-.9-.4-1.3-.4-.5-1-.5Z"/><path fill="#ff6d01" d="M282.5 62.3c0-.5.4-1 1-1h10c.6 0 1 .5 1 1v10c0 .6-.4 1-1 1h-10a1 1 0 0 1-1-1Z"/><path fill="#1a1a1a" d="M308.2 68h-3.6v3.8h-1.1v-8.5h5.3v1h-4.2V67h3.6v1Zm3.3 3.8h-1v-6.3h1v6.3Zm-1.2-8 .2-.4q.2-.2.5-.2t.4.2l.2.4q0 .3-.2.5l-.4.1-.5-.1q-.2-.2-.2-.5Zm6 2.7h-.4q-1.1 0-1.5.8v4.5h-1v-6.3h1v.7q.5-.8 1.5-.8h.5v1ZM320 72q-1.3 0-2.2-.9-.8-.8-.8-2.3v-.2q0-1 .4-1.6.4-.8 1-1.2.7-.4 1.4-.4 1.2 0 2 .8.6.8.6 2.3v.5h-4.3q0 1 .6 1.5.5.6 1.3.6.6 0 1-.3.4-.2.7-.6l.6.5q-.8 1.3-2.3 1.3Zm-.2-5.7q-.6 0-1.1.5-.4.4-.5 1.3h3.1q0-1-.4-1.4-.4-.4-1-.4Zm4 5.5v-5.5h-1v-.8h1v-.7q0-1 .6-1.5.5-.6 1.5-.6l.8.1v.9h-.7q-.5 0-.8.2-.3.4-.3 1v.6h1.4v.8h-1.4v5.5h-1Zm3.2-3.2q0-1 .4-1.7t1-1.1q.7-.4 1.5-.4 1.3 0 2.1.9t.8 2.4q0 1-.3 1.7-.4.7-1 1.2-.7.4-1.6.4-1.3 0-2-1-.9-.8-.9-2.3v-.1Zm1.1.1q0 1 .5 1.7t1.3.7q.9 0 1.3-.7.5-.6.5-1.8 0-1-.5-1.7-.5-.6-1.3-.6t-1.3.6q-.5.6-.5 1.8Zm8.4-.9 1.4-2.3h1.2l-2 3.1 2 3.2H338l-1.4-2.3-1.5 2.3h-1.3l2.2-3.2-2-3.1h1.2l1.4 2.3Z"/><path fill="#34a853" d="M355.5 62.3c0-.5.4-1 1-1h10c.6 0 1 .5 1 1v10c0 .6-.4 1-1 1h-10a1 1 0 0 1-1-1Z"/><path fill="#1a1a1a" d="M382.8 69.1q-.2 1.4-1 2.1-.9.8-2.3.8-1.5 0-2.4-1.1-.9-1.1-.9-3v-.8q0-1.1.4-2 .4-1 1.2-1.4.8-.5 1.8-.5 1.4 0 2.2.7.8.8 1 2.1h-1.2q-.1-1-.6-1.4-.5-.5-1.4-.5-1 0-1.7.8-.6.8-.6 2.3v.8q0 1.4.6 2.2.6.8 1.6.8t1.5-.4q.5-.4.6-1.5h1.2Zm2.6-2.8q.7-1 1.9-1 2 0 2 2.3v4.2h-1v-4.2q0-.6-.4-1-.3-.3-1-.3-.5 0-.9.3t-.6.7v4.5h-1v-9h1v3.5Zm9 .2h-.5q-1.1 0-1.5.8v4.5h-1v-6.3h1v.7q.5-.8 1.5-.8h.5v1Zm.6 2.1q0-1 .4-1.7t1-1.1q.7-.4 1.5-.4 1.3 0 2.1.9t.8 2.4q0 1-.3 1.7-.4.7-1 1.2-.7.4-1.6.4-1.3 0-2-1-.9-.8-.9-2.3v-.1Zm1.1.1q0 1 .5 1.7t1.3.7q.9 0 1.3-.7.5-.6.5-1.8 0-1-.5-1.7-.5-.6-1.3-.6t-1.3.6q-.5.6-.5 1.8Zm7.2-3.2v.7q.8-.8 2-.8 1.3 0 1.8 1 .3-.5.8-.7.5-.3 1.2-.3 2 0 2.1 2.2v4.2h-1v-4.2q0-.6-.4-1-.3-.3-1-.3-.6 0-1 .4-.4.3-.5 1v4.1h-1v-4.1q0-1.4-1.4-1.4-1.1 0-1.5 1v4.5h-1v-6.3h1ZM416 72q-1.3 0-2.2-.9-.8-.8-.8-2.3v-.2q0-1 .4-1.6.4-.8 1-1.2.7-.4 1.4-.4 1.2 0 2 .8.6.8.6 2.3v.5h-4.3q0 1 .6 1.5.5.6 1.3.6.6 0 1-.3.4-.2.7-.6l.6.5q-.8 1.3-2.3 1.3Zm-.2-5.7q-.6 0-1.1.5-.4.4-.5 1.3h3.1q0-1-.4-1.4-.4-.4-1-.4Z"/><path fill="#757575" d="M31.2 34H25v5h7.2v1.5h-9V26.3H32v1.5h-7v4.6h6v1.5Zm4.4-4v1.3q1.2-1.6 3.2-1.6 3.4 0 3.4 3.8v7h-1.8v-7q0-1.1-.6-1.7-.5-.5-1.5-.5t-1.6.4q-.7.5-1 1.3v7.5h-1.8V29.9h1.7Zm13.6 10.7q-2 0-3.5-1.4-1.3-1.4-1.3-3.8v-.3q0-1.6.6-2.8.6-1.3 1.7-2 1-.7 2.3-.7 2 0 3.2 1.4 1.2 1.4 1.2 3.9v.7h-7.2q0 1.6 1 2.6.8 1 2.1 1 1 0 1.7-.5.6-.4 1.1-1l1.1.9q-1.3 2-4 2Zm-.2-9.5q-1 0-1.8.8-.7.8-1 2.3h5.4V34q-.1-1.4-.8-2.1-.6-.8-1.8-.8Zm12 .3h-1q-1.7 0-2.3 1.5v7.5h-1.8V29.9h1.7v1.3q1-1.5 2.6-1.5.5 0 .8.2v1.6Zm1.4 3.6q0-2.4 1.2-3.9 1.1-1.5 3-1.5 2 0 3 1.4l.1-1.2h1.7v10.4q0 2-1.3 3.2-1.2 1.2-3.2 1.2-1.2 0-2.3-.5-1-.5-1.6-1.4l1-1q1 1.4 2.8 1.4 1.3 0 2-.8.7-.7.7-2v-1q-1 1.3-3 1.3-1.8 0-3-1.5-1-1.5-1-4Zm1.9.2q0 1.8.7 2.8.7 1 2 1 1.8 0 2.5-1.5v-4.8q-.8-1.5-2.4-1.5-1.4 0-2.1 1-.8 1-.8 3Zm13 2.6 2.5-8h2l-4.3 12.2q-1 2.7-3.2 2.7H74l-.7-.2v-1.5h.5q1 0 1.4-.3.5-.4.9-1.3l.4-1.1-3.8-10.5h2l2.6 8Zm17 1.6q-1 1.2-3 1.2-1.7 0-2.6-1-.9-1-.9-2.9V30h1.8v6.9q0 2.4 2 2.4t2.7-1.6V30h1.9v10.6h-1.8v-1Zm10.7-1.8q0-.7-.5-1.1-.6-.4-2-.7-1.3-.3-2.1-.7-.8-.5-1.2-1-.4-.6-.4-1.4 0-1.3 1-2.2 1.2-.9 2.9-.9 1.8 0 3 1 1 .9 1 2.3H105q0-.7-.6-1.2-.6-.6-1.6-.6t-1.6.5q-.5.4-.5 1 0 .7.5 1 .5.4 1.9.7 1.3.3 2.2.7.8.4 1.2 1 .4.6.4 1.5 0 1.4-1.1 2.2-1.1.9-3 .9-1.2 0-2.2-.5-1-.4-1.5-1.2-.6-.8-.6-1.8h1.8q0 1 .8 1.5.6.5 1.8.5 1 0 1.6-.4.6-.4.6-1.1Zm10.4 2.8q-.2-.3-.3-1.1-1.2 1.3-3 1.3-1.5 0-2.5-.9t-1-2.2q0-1.7 1.2-2.6 1.3-1 3.5-1h1.8v-.7q0-1-.6-1.5-.5-.6-1.6-.6-1 0-1.7.5-.6.5-.6 1.2h-1.8q0-.8.5-1.6.6-.7 1.6-1.1 1-.5 2-.5 2 0 3 1 1 .9 1 2.5V38q0 1.5.4 2.3v.2h-2Zm-3-1.4q.8 0 1.6-.4.8-.5 1.1-1.2v-2.1h-1.4q-3.3 0-3.3 2 0 .8.5 1.3.6.4 1.5.4Zm7-4q0-2.4 1.2-3.9 1.1-1.5 3-1.5 2 0 3 1.4l.1-1.2h1.7v10.4q0 2-1.3 3.2-1.2 1.2-3.2 1.2-1.2 0-2.3-.5-1-.5-1.6-1.4l1-1q1 1.4 2.8 1.4 1.3 0 2-.8.7-.7.7-2v-1q-1 1.3-3 1.3-1.8 0-3-1.5-1-1.5-1-4Zm1.8.2q0 1.8.8 2.8.7 1 2 1 1.8 0 2.5-1.5v-4.8q-.8-1.5-2.4-1.5-1.4 0-2.1 1-.8 1-.8 3Zm14 5.4q-2 0-3.4-1.4t-1.4-3.8v-.3q0-1.6.6-2.8.6-1.3 1.7-2 1-.7 2.3-.7 2 0 3.2 1.4 1.2 1.4 1.2 3.9v.7h-7.2q0 1.6 1 2.6.8 1 2.1 1 1 0 1.7-.5.6-.4 1.1-1l1.1.9q-1.3 2-4 2Zm-.2-9.5q-1 0-1.8.8-.7.8-1 2.3h5.4V34q-.1-1.4-.8-2.1-.6-.8-1.8-.8Zm11.4 4q0-1.6.6-2.9.6-1.2 1.7-1.9 1-.7 2.5-.7 2.1 0 3.5 1.5 1.3 1.5 1.3 4v.1q0 1.6-.6 2.8-.6 1.2-1.7 2-1 .6-2.5.6-2.1 0-3.5-1.5-1.3-1.5-1.3-4Zm1.8.1q0 1.8.8 2.9.8 1 2.2 1 1.4 0 2.2-1 .8-1.1.8-3 0-1.8-.8-2.9-.9-1-2.2-1-1.4 0-2.2 1-.8 1-.8 3Zm10.6 5.2v-9.2H157V30h1.7v-1q0-1.7.9-2.7.9-.9 2.5-.9.7 0 1.3.2l-.1 1.4h-1q-.9 0-1.4.5-.4.5-.4 1.4V30h2.2v1.4h-2.2v9.2h-1.8Zm15.3-1.3q1 0 1.7-.6t.8-1.4h1.7q0 .9-.6 1.7-.6.8-1.6 1.3t-2 .5q-2.1 0-3.4-1.4-1.3-1.5-1.3-4V35q0-1.5.6-2.7.5-1.2 1.6-1.9 1-.7 2.5-.7 1.8 0 3 1.1 1.1 1 1.2 2.8h-1.7q0-1-.8-1.7-.7-.7-1.7-.7-1.4 0-2.1 1-.8 1-.8 2.9v.3q0 1.9.8 2.8.7 1 2.1 1Zm10.9-7.7h-1q-1.7 0-2.3 1.5v7.5h-1.8V29.9h1.7v1.3q1-1.5 2.6-1.5.5 0 .8.2v1.6Zm6.3 9.2q-2.2 0-3.6-1.4-1.3-1.4-1.3-3.8v-.3q0-1.6.6-2.8.6-1.3 1.7-2 1-.7 2.3-.7 2 0 3.2 1.4 1.2 1.4 1.2 3.9v.7h-7.2q0 1.6 1 2.6.8 1 2.1 1 1 0 1.7-.5.6-.4 1.1-1l1.1.9q-1.3 2-4 2Zm-.3-9.5q-1 0-1.8.8-.7.8-1 2.3h5.4V34q-.1-1.4-.8-2.1-.6-.8-1.8-.8Zm13.4 9.3q-.2-.3-.3-1.1-1.2 1.3-3 1.3-1.5 0-2.5-.9t-1-2.2q0-1.7 1.2-2.6 1.3-1 3.5-1h1.8v-.7q0-1-.6-1.5-.5-.6-1.6-.6-1 0-1.7.5-.6.5-.6 1.2h-1.8q0-.8.5-1.6.6-.7 1.6-1.1 1-.5 2-.5 2 0 3 1 1 .9 1 2.5V38q0 1.5.4 2.3v.2h-2Zm-3-1.4q.8 0 1.6-.4.8-.5 1.1-1.2v-2.1h-1.4q-3.3 0-3.3 2 0 .8.5 1.3.6.4 1.5.4Zm10-11.7v2.5h1.9v1.4h-2V38q0 .6.3 1 .2.3.9.3l.8-.2v1.5l-1.3.2q-1.3 0-1.9-.7-.6-.8-.6-2.1v-6.6h-2V30h2v-2.5h1.8Zm6.4 13.1H216V29.9h1.8v10.6Zm-2-13.4q0-.4.3-.7.3-.3.8-.3.6 0 .8.3.3.3.3.7 0 .5-.3.8-.2.3-.8.3-.5 0-.8-.3-.2-.3-.2-.8Zm8.6 11 2.6-8.2h1.8L225 40.5h-1.3l-3.9-10.6h1.9l2.7 8.1Zm10.8 2.6q-2 0-3.4-1.4t-1.4-3.8v-.3q0-1.6.6-2.8.6-1.3 1.7-2 1-.7 2.3-.7 2 0 3.2 1.4 1.2 1.4 1.2 3.9v.7h-7.2q0 1.6 1 2.6.8 1 2.1 1 1 0 1.7-.5.6-.4 1.1-1l1.1.9q-1.3 2-4 2Zm-.2-9.5q-1 0-1.8.8-.7.8-1 2.3h5.4V34q-.1-1.4-.8-2.1-.6-.8-1.8-.8Zm18.4 9.3q-.2-.3-.3-1.1-1.2 1.3-3 1.3-1.5 0-2.5-.9t-1-2.2q0-1.7 1.2-2.6 1.3-1 3.5-1h1.8v-.7q0-1-.6-1.5-.5-.6-1.6-.6-1 0-1.7.5-.6.5-.6 1.2h-1.8q0-.8.5-1.6.6-.7 1.6-1.1 1-.5 2-.5 2 0 3 1 1 .9 1 2.5V38q0 1.5.4 2.3v.2h-2Zm-3-1.4q.8 0 1.6-.4.8-.5 1.1-1.2v-2.1h-1.4q-3.3 0-3.3 2 0 .8.5 1.3.6.4 1.5.4Zm13.6-1.4q0-.7-.5-1.1-.6-.4-2-.7-1.3-.3-2.1-.7-.8-.5-1.2-1-.4-.6-.4-1.4 0-1.3 1-2.2 1.2-.9 2.9-.9 1.8 0 3 1 1 .9 1 2.3H264q0-.7-.6-1.2-.6-.6-1.6-.6t-1.6.5q-.5.4-.5 1 0 .7.5 1 .5.4 1.9.7 1.3.3 2.2.7.8.4 1.2 1 .4.6.4 1.5 0 1.4-1.1 2.2-1.1.9-3 .9-1.2 0-2.2-.5-1-.4-1.5-1.2-.6-.8-.6-1.8h1.8q0 1 .8 1.5.6.5 1.8.5 1 0 1.6-.4.6-.4.6-1.1Zm10 0q0-.7-.5-1.1-.6-.4-2-.7-1.3-.3-2.1-.7-.8-.5-1.2-1-.4-.6-.4-1.4 0-1.3 1-2.2 1.2-.9 2.9-.9 1.8 0 3 1 1 .9 1 2.3H274q0-.7-.6-1.2-.6-.6-1.6-.6t-1.6.5q-.5.4-.5 1 0 .7.5 1 .5.4 1.9.7 1.3.3 2.2.7.8.4 1.2 1 .4.6.4 1.5 0 1.4-1.1 2.2-1.1.9-3 .9-1.2 0-2.2-.5-1-.4-1.5-1.2-.6-.8-.6-1.8h1.8q0 1 .8 1.5.6.5 1.8.5 1 0 1.6-.4.6-.4.6-1.1Zm8.3 3q-2.2 0-3.6-1.4-1.3-1.4-1.3-3.8v-.3q0-1.6.6-2.8.6-1.3 1.7-2 1-.7 2.3-.7 2 0 3.2 1.4 1.2 1.4 1.2 3.9v.7h-7.2q0 1.6 1 2.6.8 1 2.1 1 1 0 1.7-.5.6-.4 1.1-1l1.1.9q-1.3 2-4 2Zm-.3-9.5q-1 0-1.8.8-.7.8-1 2.3h5.4V34q-.1-1.4-.8-2.1-.6-.8-1.8-.8Zm9.3-3.8v2.5h2v1.4h-2V38q0 .6.3 1 .2.3.9.3l.8-.2v1.5l-1.3.2q-1.3 0-1.9-.7-.6-.8-.6-2.1v-6.6h-2V30h2v-2.5h1.8ZM302 37.7q0-.7-.5-1.1-.6-.4-2-.7-1.3-.3-2.1-.7-.8-.5-1.2-1-.4-.6-.4-1.4 0-1.3 1-2.2 1.2-.9 2.9-.9 1.8 0 3 1 1 .9 1 2.3H302q0-.7-.6-1.2-.6-.6-1.6-.6t-1.6.5q-.5.4-.5 1 0 .7.5 1 .5.4 1.9.7 1.3.3 2.2.7.8.4 1.2 1 .4.6.4 1.5 0 1.4-1.1 2.2-1.1.9-3 .9-1.2 0-2.2-.5-1-.4-1.5-1.2-.6-.8-.6-1.8h1.8q0 1 .8 1.5.6.5 1.8.5 1 0 1.6-.4.6-.4.6-1.1Zm8.8-3q0-2.2.6-4.2t1.8-3.7q1.1-1.7 2.4-2.3l.4 1.1q-1.5 1.1-2.4 3.4-.9 2.2-1 5v.8q0 3.8 1.4 6.6.8 1.6 2 2.6l-.4 1q-1.3-.6-2.5-2.3-2.3-3.4-2.3-8Zm8.8-4.8v1.2q1.2-1.4 3.1-1.4 2.3 0 3 1.7.6-.7 1.4-1.2.9-.5 2-.5 3.5 0 3.6 3.7v7.1h-1.8v-7q0-1.1-.6-1.7-.5-.5-1.7-.5-1 0-1.7.6-.6.6-.7 1.6v7h-1.8v-7q0-2.2-2.3-2.2-1.8 0-2.4 1.5v7.7h-1.8V29.9h1.7Zm19.6 6.1.3 1.9.4-1.7 2.8-10h1.6l2.7 10 .4 1.7.3-1.9 2.2-9.7h2l-3.5 14.2h-1.7l-3-10.4-.2-1-.2 1-3 10.4h-1.8l-3.4-14.2h1.9l2.2 9.7Zm18.8-1.2q0 2.2-.5 4.2-.6 2-1.8 3.7-1.2 1.7-2.4 2.4l-.4-1.1q1.5-1.2 2.4-3.6.9-2.4 1-5.4v-.3q0-2-.5-3.8-.4-1.8-1.2-3.2-.8-1.4-1.7-2.1l.4-1.1q1.2.7 2.4 2.3 1.2 1.7 1.8 3.7.5 2 .5 4.3Z"/></svg>