<svg fill="none" stroke-linecap="square" stroke-miterlimit="10" xmlns="http://www.w3.org/2000/svg" viewBox="0 0 701 430"><path fill="#fff" d="M0 0h701v430H0V0Z"/><path stroke="#333" stroke-linecap="butt" d="M55.5 388.5h624"/><path stroke="#ccc" stroke-linecap="butt" d="M55.5 315.5h624m-624-74h624m-624-73h624m-624-73h624"/><clipPath id="a"><path d="M55.5 95.2h624v293.3h-624V95.2Z"/></clipPath><path clip-path="url(#a)" d="M172 389H96V109h76Z"/><path fill="#4285f4" clip-path="url(#a)" d="M172 389H96V109h76Z"/><path clip-path="url(#a)" d="M289 389h-76v-20h76Z"/><path fill="#4285f4" clip-path="url(#a)" d="M289 389h-76v-20h76Z"/><path clip-path="url(#a)" d="M406 389h-76v-15h76Z"/><path fill="#4285f4" clip-path="url(#a)" d="M406 389h-76v-15h76Z"/><path clip-path="url(#a)" d="M522 389h-76v-21h76Z"/><path fill="#4285f4" clip-path="url(#a)" d="M522 389h-76v-21h76Z"/><path clip-path="url(#a)" d="M639 389h-76v-20h76Z"/><path fill="#4285f4" clip-path="url(#a)" d="M639 389h-76v-20h76Z"/><path clip-path="url(#a)" d="M172 109H96v-2c0-1.1.9-2 2-2h72a2 2 0 0 1 2 2Z"/><path fill="#ea4335" clip-path="url(#a)" d="M172 109H96v-2c0-1.1.9-2 2-2h72a2 2 0 0 1 2 2Z"/><path clip-path="url(#a)" d="M289 369h-76v-3c0-1.1.9-2 2-2h72a2 2 0 0 1 2 2Z"/><path fill="#ea4335" clip-path="url(#a)" d="M289 369h-76v-3c0-1.1.9-2 2-2h72a2 2 0 0 1 2 2Z"/><path clip-path="url(#a)" d="M406 374h-76v-1c0-.6.4-1 1-1h74c.6 0 1 .4 1 1Z"/><path fill="#ea4335" clip-path="url(#a)" d="M406 374h-76v-1c0-.6.4-1 1-1h74c.6 0 1 .4 1 1Z"/><path clip-path="url(#a)" d="M522 368h-76v-2c0-1.1.9-2 2-2h72a2 2 0 0 1 2 2Z"/><path fill="#ea4335" clip-path="url(#a)" d="M522 368h-76v-2c0-1.1.9-2 2-2h72a2 2 0 0 1 2 2Z"/><path clip-path="url(#a)" d="M639 369h-76v-1.5c0-.8.7-1.5 1.5-1.5h73c.8 0 1.5.7 1.5 1.5Z"/><path fill="#ea4335" clip-path="url(#a)" d="M639 369h-76v-1.5c0-.8.7-1.5 1.5-1.5h73c.8 0 1.5.7 1.5 1.5Z"/><path fill="#000" d="M43 388.3q0-1.6.3-2.5.3-1 1-1.4.6-.5 1.5-.5.7 0 1.2.3.5.2.9.8l.5 1.2q.2.8.2 2 0 1.6-.3 2.5-.3 1-1 1.4-.5.5-1.5.5-1.2 0-2-.9-.8-1-.8-3.4Zm1 0q0 2 .6 2.8.5.7 1.2.7t1.2-.7q.5-.7.5-2.8 0-2.2-.5-2.8-.5-.8-1.2-.8t-1.2.7q-.5.7-.5 2.9Zm-9.5-70.1v1H29v-.8l.8-1.1L31 316l1.9-1.8q.5-.7.5-1.3 0-.6-.5-1-.5-.5-1.2-.5t-1.2.5q-.4.4-.5 1.2h-1q0-1.3.8-2 .7-.6 2-.6 1.2 0 2 .7.6.7.6 1.7l-.2 1q-.2.5-.7 1l-1.6 1.6-1.2 1-.5.7h4.2Zm1.5-1.3h1.1q.1.7.6 1.1.4.4 1 .4.8 0 1.3-.5.6-.6.6-1.5 0-1-.5-1.5t-1.4-.5q-.5 0-.9.2l-.6.6-1-.1.8-4.4h4.3v1h-3.4l-.5 2.3q.8-.5 1.6-.5 1.1 0 2 .7.7.8.7 2t-.7 2q-.8 1.1-2.2 1.1-1.2 0-2-.6-.7-.7-.8-1.8Zm7-2q0-1.5.3-2.4.3-1 1-1.5.6-.5 1.5-.5.7 0 1.2.3t.9.8l.5 1.3q.2.8.2 2 0 1.5-.3 2.5-.3.9-1 1.4-.5.5-1.5.5-1.2 0-2-.9-.8-1-.8-3.5Zm1 0q0 2.1.6 2.8.5.7 1.2.7t1.2-.7q.5-.7.5-2.8 0-2-.5-2.8-.5-.7-1.2-.7t-1.2.6q-.5.8-.5 3Zm-15-71.3 1.1-.1q.1.8.6 1.2.4.4 1 .4.8 0 1.3-.6.6-.5.6-1.5 0-.9-.5-1.4-.5-.5-1.4-.5-.5 0-.9.2t-.6.6l-1-.1.8-4.4h4.3v1h-3.4l-.5 2.3q.8-.6 1.6-.6 1.1 0 2 .8.7.8.7 2t-.7 2q-.8 1-2.2 1-1.2 0-2-.6-.7-.6-.8-1.7Zm7-2q0-1.5.3-2.5.3-.9 1-1.4.6-.5 1.5-.5.7 0 1.2.3t.9.8q.3.5.5 1.3.2.7.2 2 0 1.5-.3 2.4-.3 1-1 1.5-.5.5-1.5.5-1.2 0-2-1t-.8-3.4Zm1 0q0 2.1.6 2.8.5.7 1.2.7t1.2-.7q.5-.7.5-2.8 0-2.1-.5-2.8-.5-.7-1.2-.7t-1.2.6q-.5.8-.5 2.9Zm6 0q0-1.5.3-2.5.3-.9 1-1.4.6-.5 1.5-.5.7 0 1.2.3t.9.8q.3.5.5 1.3.2.7.2 2 0 1.5-.3 2.4-.3 1-1 1.5-.5.5-1.5.5-1.2 0-2-1t-.8-3.4Zm1 0q0 2.1.6 2.8.5.7 1.2.7t1.2-.7q.5-.7.5-2.8 0-2.1-.5-2.8-.5-.7-1.2-.7t-1.2.6q-.5.8-.5 2.9ZM29 165v-1h5.6v.8q-.8 1-1.6 2.4t-1.2 3q-.4 1-.4 2.3h-1.1q0-1 .4-2.5.3-1.4 1-2.7l1.6-2.3H29Zm7 5.3 1.1-.1q.1.8.6 1.2.4.4 1 .4.8 0 1.3-.6.6-.6.6-1.5 0-1-.5-1.4-.5-.6-1.4-.6-.5 0-.9.3-.4.2-.6.6l-1-.2.8-4.4h4.3v1h-3.4l-.5 2.3q.8-.5 1.6-.5 1.1 0 2 .8.7.8.7 2t-.7 2q-.8 1-2.2 1-1.2 0-2-.6-.7-.7-.8-1.8Zm7-2q0-1.6.3-2.5.3-1 1-1.4.6-.5 1.5-.5.7 0 1.2.3.5.2.9.8l.5 1.2q.2.8.2 2 0 1.6-.3 2.5-.3 1-1 1.4-.5.5-1.5.5-1.2 0-2-.8-.8-1.1-.8-3.5Zm1 0q0 2 .6 2.8.5.7 1.2.7t1.2-.7q.5-.7.5-2.8 0-2.2-.5-2.8-.5-.8-1.2-.8t-1.2.7q-.5.7-.5 2.9ZM26 99.2h-1v-6.8l-1 .8-1.2.5v-1q.9-.4 1.5-1 .7-.6 1-1.2h.7v8.7Zm3-4.3q0-1.5.3-2.4.3-1 1-1.5.6-.5 1.5-.5.7 0 1.2.3t.9.8l.5 1.3q.2.8.2 2 0 1.5-.3 2.5-.3.9-1 1.4-.5.5-1.5.5-1.2 0-2-.9-.8-1-.8-3.5Zm1 0q0 2.1.6 2.8.5.7 1.2.7t1.2-.7q.5-.7.5-2.8 0-2-.5-2.8-.5-.7-1.2-.7t-1.2.6q-.5.8-.5 3Zm6 0q0-1.5.3-2.4.3-1 1-1.5.6-.5 1.5-.5.7 0 1.2.3t.9.8l.5 1.3q.2.8.2 2 0 1.5-.3 2.5-.3.9-1 1.4-.5.5-1.5.5-1.2 0-2-.9-.8-1-.8-3.5Zm1 0q0 2.1.6 2.8.5.7 1.2.7t1.2-.7q.5-.7.5-2.8 0-2-.5-2.8-.5-.7-1.2-.7t-1.2.6q-.5.8-.5 3Zm6 0q0-1.5.3-2.4.3-1 1-1.5.6-.5 1.5-.5.7 0 1.2.3t.9.8l.5 1.3q.2.8.2 2 0 1.5-.3 2.5-.3.9-1 1.4-.5.5-1.5.5-1.2 0-2-.9-.8-1-.8-3.5Zm1 0q0 2.1.6 2.8.5.7 1.2.7t1.2-.7q.5-.7.5-2.8 0-2-.5-2.8-.5-.7-1.2-.7t-1.2.6q-.5.8-.5 3Zm74.8 307.6 1.1.3q-.3 1.4-1.3 2.1-.9.7-2.2.7-1.4 0-2.3-.5-.9-.6-1.3-1.6-.5-1.1-.5-2.4 0-1.3.5-2.3.6-1 1.5-1.5 1-.5 2-.5 1.4 0 2.2.6 1 .7 1.3 1.9l-1.1.2q-.3-1-1-1.3-.5-.5-1.3-.5-1 0-1.7.5t-1 1.3l-.2 1.6q0 1.1.3 2 .3.8 1 1.2.7.4 1.5.4 1 0 1.6-.6.7-.5.9-1.6Zm2.7 3v-8.6h1v3q.8-.8 2-.8.6 0 1.1.3.6.3.8.8.2.4.2 1.4v3.9h-1v-4q0-.7-.4-1-.3-.5-1-.5-.4 0-.9.3-.4.2-.6.7l-.1 1v3.5h-1Zm7 0v-6.2h1v1q.3-.7.6-1 .3-.2.7-.2.5 0 1 .4l-.3 1q-.4-.3-.7-.3-.4 0-.7.2l-.4.6-.1 1.2v3.3h-1Zm3.6-3.1q0-1.7 1-2.6.8-.7 2-.7t2 .9q.9.8.9 2.3 0 1.2-.4 1.9t-1 1q-.7.4-1.6.4-1.3 0-2-.8-.9-.8-.9-2.4Zm1.1 0q0 1.2.5 1.8.6.6 1.3.6.8 0 1.4-.6.5-.6.5-1.8 0-1.2-.6-1.8-.5-.6-1.3-.6-.7 0-1.3.6-.5.6-.5 1.8Zm6.3 3.1v-6.2h1v.9q.3-.5.7-.8.5-.3 1.2-.3.6 0 1 .3.5.3.7.8.8-1 2-1 .9 0 1.3.5.5.5.5 1.5v4.3h-1v-4l-.1-.8q-.1-.3-.4-.5-.2-.2-.6-.2-.7 0-1.1.5-.4.4-.4 1.4v3.6h-1v-4q0-.8-.4-1-.2-.5-.8-.5-.4 0-.8.3-.4.2-.6.7l-.1 1.3v3.2h-1Zm15.3-2 1 .1q-.2 1-.9 1.5t-1.8.5q-1.3 0-2.1-.8t-.8-2.4q0-1.5.8-2.4.8-.9 2-.9 1.3 0 2.1.9.8.8.8 2.4v.3h-4.6q0 1 .5 1.5.6.6 1.3.6.6 0 1-.3t.7-1Zm-3.5-1.7h3.5q0-.8-.4-1.2-.5-.6-1.3-.6-.7 0-1.2.5t-.6 1.3Zm82.5 3.7v-8.6h5.8v1H235v2.7h4v1h-4v3.9h-1.2Zm6.9-7.4V397h1v1.2h-1Zm0 7.4v-6.2h1v6.2h-1Zm3 0v-6.2h.9v1l.7-1 .6-.2q.6 0 1.1.4l-.3 1q-.4-.3-.8-.3t-.6.2q-.3.2-.4.6l-.2 1.2v3.3h-1Zm8.2-2 1.1.1q-.2 1-1 1.5-.7.5-1.7.5-1.4 0-2.2-.8-.8-.8-.8-2.4 0-1.5.8-2.4.8-.9 2.1-.9t2 .9q.8.8.8 2.4v.3h-4.6q0 1 .6 1.5.5.6 1.3.6.5 0 1-.3.4-.3.6-1Zm-3.4-1.7h3.4q0-.8-.4-1.2-.5-.6-1.3-.6-.7 0-1.2.5t-.5 1.3Zm6.4 3.7v-5.4h-1v-.8h1v-.7l.1-1 .6-.6q.3-.2 1-.2h1l-.1 1h-.7l-.7.1-.1.8v.6h1.2v.8H256v5.4h-1Zm2.4-3.1q0-1.7 1-2.6.7-.7 1.9-.7 1.3 0 2 .9.9.8.9 2.3 0 1.2-.4 1.9-.3.7-1 1-.7.4-1.5.4-1.3 0-2.1-.8t-.8-2.4Zm1 0q0 1.2.6 1.8.5.6 1.3.6t1.3-.6q.5-.6.5-1.8 0-1.2-.5-1.8-.5-.6-1.3-.6t-1.3.6q-.6.6-.6 1.8Zm5.7 3.1 2.2-3.2-2-3h1.2l1 1.4.4.7.5-.6 1-1.5h1.3l-2.1 2.9 2.3 3.3h-1.3l-1.3-2-.3-.5-1.7 2.5H264Zm88-2.8h1.1q0 .6.4 1 .3.4.8.7.6.2 1.4.2.6 0 1.1-.2.5-.2.7-.5.3-.3.3-.7 0-.4-.3-.7-.2-.3-.7-.5l-1.6-.5-1.6-.5q-.6-.3-1-.8l-.2-1q0-.7.3-1.3.4-.6 1.1-.8.7-.3 1.6-.3 1 0 1.7.3t1.1.9q.4.6.4 1.3l-1 .1q-.2-.8-.7-1.2-.5-.4-1.5-.4t-1.5.3q-.4.4-.4 1 0 .4.3.7.3.3 1.7.6t2 .6q.7.3 1 .9.4.5.4 1.2t-.4 1.3q-.4.6-1.1 1-.8.2-1.7.2-1.2 0-2-.3-.7-.3-1.2-1-.4-.7-.5-1.6Zm12.4 2q-.6.5-1.2.7-.5.2-1.1.2-1 0-1.6-.5-.6-.5-.6-1.2 0-.5.2-.9t.6-.6l.8-.3.9-.2q1.3-.1 1.9-.4v-.2q0-.7-.3-1-.4-.3-1.2-.3-.8 0-1.1.3-.4.2-.6.9l-1-.2q.1-.6.5-1 .3-.4 1-.6.5-.3 1.3-.3t1.3.2l.8.5.3.7v4.3l.4.7h-1.1q-.2-.3-.2-.8Zm-.1-2.3-1.8.4q-.6 0-.9.2l-.4.3-.1.5q0 .4.3.7.3.3 1 .3.5 0 1-.3.5-.2.7-.7.2-.3.2-1v-.4Zm3.2 3.1v-5.4h-.9v-.8h1v-1.7l.6-.6q.4-.2 1-.2h1l-.1 1h-.6l-.7.1q-.2.2-.2.8v.6h1.2v.8h-1.2v5.4h-1Zm6.9-.8q-.6.5-1.2.7-.5.2-1.1.2-1 0-1.6-.5-.6-.5-.6-1.2 0-.5.2-.9t.6-.6l.8-.3.9-.2q1.3-.1 1.9-.4v-.2q0-.7-.3-1-.4-.3-1.2-.3-.8 0-1.1.3-.4.2-.6.9l-1-.2q.1-.6.5-1 .3-.4 1-.6.5-.3 1.3-.3t1.3.2l.8.5.3.7v4.3l.4.7h-1.1q-.2-.3-.2-.8Zm-.1-2.3-1.8.4q-.6 0-.9.2l-.4.3-.1.5q0 .4.3.7.3.3 1 .3.5 0 1-.3.5-.2.7-.7.2-.3.2-1v-.4Zm3 3.1v-6.2h1v1q.3-.7.6-1 .3-.2.7-.2.5 0 1 .4l-.3 1q-.4-.3-.8-.3l-.6.2q-.3.2-.4.6l-.2 1.2v3.3h-1Zm4-7.4V397h1v1.2h-1Zm0 7.4v-6.2h1v6.2h-1Zm89.3 0v-8.6h6.2v1h-5v2.6h4.7v1h-4.8v3h5.3v1h-6.4Zm11.9 0v-.8q-.6 1-1.8 1-.7 0-1.3-.5-.7-.4-1-1.1-.4-.8-.4-1.7 0-1 .4-1.7.3-.8.9-1.2.6-.4 1.4-.4.5 0 1 .3.4.2.7.6v-3h1v8.5h-1Zm-3.4-3.1q0 1.2.5 1.8.5.6 1.2.6t1.2-.6q.5-.6.5-1.7 0-1.3-.5-1.9-.5-.6-1.2-.6t-1.2.6q-.5.6-.5 1.8Zm6.1 3.6 1 .2q.1.4.4.7.4.3 1 .3.8 0 1.2-.3.4-.3.6-.9v-1.3q-.7.8-1.7.8-1.3 0-2-1-.7-.9-.7-2.1 0-1 .3-1.7.4-.7 1-1.2.6-.4 1.4-.4 1.1 0 1.8 1v-.8h1v5.4q0 1.4-.3 2-.3.6-1 1-.6.3-1.5.3-1.1 0-1.8-.5t-.7-1.5Zm.9-3.7q0 1.2.5 1.8.5.5 1.2.5t1.2-.5q.5-.6.5-1.8 0-1.1-.5-1.7-.5-.6-1.2-.6t-1.2.6q-.5.6-.5 1.7Zm10.6 1.2 1 .1q-.2 1-.9 1.5t-1.8.5q-1.3 0-2.1-.8t-.8-2.4q0-1.5.8-2.4.8-.9 2-.9 1.3 0 2.1.9.8.8.8 2.4v.3h-4.6q0 1 .5 1.5.6.6 1.3.6.6 0 1-.3t.7-1Zm-3.5-1.7h3.5q0-.8-.4-1.2-.5-.6-1.3-.6-.7 0-1.2.5t-.6 1.3Zm99.1 3.7 3.3-8.6h1.2l3.5 8.6H599l-1-2.6h-3.6l-1 2.6h-1.1Zm2.4-3.5h3l-1-2.4-.6-1.8-.4 1.7-1 2.5Zm5.4 3.5v-6.2h1v1q.3-.7.6-1l.6-.2q.6 0 1.1.4l-.3 1q-.4-.3-.8-.3t-.6.2q-.3.2-.4.6l-.2 1.2v3.3h-1Zm8-2.3 1 .2q-.1 1-.8 1.6-.7.6-1.7.6-1.3 0-2-.8-.9-.8-.9-2.4 0-1 .4-1.7.3-.8 1-1.2.7-.4 1.5-.4 1 0 1.6.6.7.5.9 1.4l-1 .2q-.2-.7-.6-1-.4-.3-.9-.3-.8 0-1.3.6-.5.5-.5 1.8 0 1.2.5 1.8.5.6 1.3.6.6 0 1-.4t.5-1.2Z"/><path fill="#ea4335" d="M296.5 61.8c0-.5.4-1 1-1h10c.6 0 1 .5 1 1v10c0 .6-.4 1-1 1h-10a1 1 0 0 1-1-1Z"/><path fill="#1a1a1a" d="M321.5 67.5v-1h3.6v3.1q-.9.7-1.7 1-1 .4-1.9.4-1.2 0-2.3-.6-1-.5-1.5-1.5-.6-1-.6-2.3 0-1.3.6-2.4.5-1 1.5-1.6 1-.5 2.2-.5 1 0 1.7.3.8.3 1.2.8l.7 1.4-1 .3-.6-1q-.2-.4-.8-.6-.5-.2-1.1-.2-.8 0-1.4.2-.6.2-1 .6l-.5.9q-.3.8-.3 1.7 0 1.2.4 2 .4.7 1.2 1 .7.5 1.6.5.7 0 1.4-.3t1-.6v-1.6h-2.4Zm5 3.3v-8.6h3.2l1.3.1q.6.1 1 .4.5.3.7.9.3.5.3 1.1 0 1.1-.7 1.9-.7.7-2.5.7h-2.2v3.5h-1.2Zm1-4.5h2.3q1 0 1.5-.4t.5-1.1q0-.6-.3-1-.2-.3-.7-.5h-3.2v3Zm12.6-4h1.1v5q0 1.2-.3 2-.3.7-1 1.2-.8.5-2 .5-1.3 0-2-.4-.8-.5-1.1-1.2-.4-.8-.4-2.2v-5h1.2v5q0 1.1.2 1.6.2.6.7.9.5.3 1.3.3 1.2 0 1.7-.6.6-.6.6-2.2v-5Z"/><path fill="#4285f4" d="M358.5 61.8c0-.5.4-1 1-1h10c.6 0 1 .5 1 1v10c0 .6-.4 1-1 1h-10a1 1 0 0 1-1-1Z"/><path fill="#1a1a1a" d="m385.6 67.8 1 .3q-.3 1.4-1.2 2.1-1 .8-2.3.8-1.4 0-2.2-.6-.9-.6-1.4-1.6-.4-1-.4-2.3 0-1.4.5-2.4t1.5-1.5q1-.5 2-.5 1.3 0 2.2.7.9.6 1.2 1.8l-1 .3q-.4-1-1-1.4-.5-.4-1.4-.4-1 0-1.6.5-.7.4-1 1.2-.2.8-.2 1.7 0 1 .3 1.9.3.8 1 1.2.6.4 1.4.4 1 0 1.7-.5.6-.6.9-1.7Zm2.8 3v-8.6h3.3l1.3.1q.6.1 1 .4.5.3.7.9.3.5.3 1.1 0 1.1-.7 1.9-.7.7-2.5.7h-2.2v3.5h-1.2Zm1.2-4.5h2.2q1 0 1.5-.4t.5-1.1q0-.6-.3-1-.2-.3-.7-.5h-3.2v3Zm12.5-4h1.1v5q0 1.2-.3 2-.3.7-1 1.2-.8.5-2 .5-1.3 0-2-.4-.8-.5-1.1-1.2-.4-.8-.4-2.2v-5h1.2v5q0 1.1.2 1.6.2.6.7.9.5.3 1.3.3 1.2 0 1.7-.6.6-.6.6-2.2v-5Z"/><path fill="#757575" d="m32.5 33.4 3.7-7.1h2.1l-4.9 8.9v5.3h-1.9v-5.3l-4.9-9h2.2l3.7 7.2Zm6.9 1.7q0-1.5.6-2.8.6-1.2 1.7-1.9 1-.7 2.5-.7 2.1 0 3.5 1.5 1.3 1.5 1.3 4v.1q0 1.6-.6 2.8-.6 1.2-1.7 2-1 .6-2.5.6-2.1 0-3.5-1.5-1.3-1.5-1.3-4Zm1.8.2q0 1.8.8 2.9.8 1 2.2 1 1.4 0 2.2-1 .8-1.1.8-3 0-1.8-.8-2.9-.9-1-2.2-1-1.4 0-2.2 1-.8 1-.8 3Zm16.2 4.2q-1 1.2-3.1 1.2-1.7 0-2.6-1-.9-1-.9-2.9V30h1.8v6.9q0 2.4 2 2.4t2.7-1.6V30h1.9v10.6h-1.8v-1ZM72 27.8h-4.6v12.7h-1.9V27.8H61v-1.5h11v1.5Zm8.4 11.7q-1 1.2-3.1 1.2-1.7 0-2.6-1-.9-1-.9-2.9V30h1.8v6.9q0 2.4 2 2.4t2.7-1.6V30h1.9v10.6h-1.8v-1Zm13.4-4.2q0 2.5-1.1 4-1.1 1.4-3 1.4-2 0-3-1.4l-.2 1.2H85v-15h1.8v5.6q1-1.4 3-1.4t3 1.5q1.1 1.4 1.1 4v.1Zm-1.8-.2q0-1.8-.7-2.8-.7-1-2-1-1.8 0-2.6 1.6v4.6q.8 1.7 2.6 1.7 1.3 0 2-1t.7-3Zm8.3 5.6q-2.2 0-3.5-1.4-1.4-1.4-1.4-3.8v-.3q0-1.6.6-2.8.6-1.3 1.7-2 1-.7 2.3-.7 2 0 3.2 1.4 1.2 1.4 1.2 3.9v.7h-7.2q0 1.6 1 2.6.8 1 2.1 1 1 0 1.7-.5.6-.4 1.1-1l1.1.9q-1.3 2-4 2Zm-.3-9.5q-1 0-1.8.8-.7.8-1 2.3h5.4V34q-.1-1.4-.8-2.1-.6-.8-1.8-.8Zm20.2 2.7H114v5h7.2v1.6h-9V26.3h8.9v1.5h-7v4.6h6v1.5Zm4.4-4v1.2q1.2-1.4 3.2-1.4 2.2 0 3 1.7.5-.7 1.3-1.2.9-.5 2-.5 3.5 0 3.6 3.7v7.1h-1.8v-7q0-1.1-.6-1.7-.5-.5-1.7-.5-1 0-1.7.6-.6.6-.7 1.6v7h-1.8v-7q0-2.2-2.3-2.2-1.8 0-2.4 1.5v7.7h-1.8V29.9h1.7Zm25.2 5.4q0 2.5-1.1 4-1.1 1.4-3 1.4-2 0-3-1.4l-.2 1.2H141v-15h1.8v5.6q1-1.4 3-1.4t3 1.5q1.1 1.4 1.1 4v.1Zm-1.8-.2q0-1.8-.7-2.8-.7-1-2-1-1.8 0-2.6 1.6v4.6q.8 1.7 2.6 1.7 1.3 0 2-1t.7-3Zm8.3 5.6q-2.2 0-3.6-1.4-1.3-1.4-1.3-3.8v-.3q0-1.6.6-2.8.6-1.3 1.7-2 1-.7 2.3-.7 2 0 3.2 1.4 1.2 1.4 1.2 3.9v.7h-7.2q0 1.6 1 2.6.8 1 2.1 1 1 0 1.7-.5.6-.4 1.1-1l1.1.9q-1.3 2-4 2Zm-.3-9.5q-1 0-1.8.8-.7.8-1 2.3h5.4V34q-.1-1.4-.8-2.1-.6-.8-1.8-.8Zm6.4 4q0-2.5 1.2-4 1.1-1.5 3-1.5t3 1.3v-5.5h1.7v15h-1.6l-.1-1.1q-1 1.3-3 1.3-1.8 0-3-1.5t-1.2-4Zm1.8.1q0 1.8.8 2.8.7 1 2 1 1.8 0 2.5-1.5v-4.8q-.8-1.5-2.5-1.5-1.3 0-2 1-.8 1-.8 3Zm23-1.4H181v5h7.2v1.6h-9V26.3h8.9v1.5h-7v4.6h6v1.5Zm4.4-4v1.4q1.2-1.6 3.2-1.6 3.4 0 3.4 3.8v7h-1.8v-7q0-1.1-.6-1.7-.5-.5-1.6-.5-.8 0-1.5.4-.7.5-1 1.3v7.5h-1.8V29.9h1.7Zm13.7 10.8q-2.2 0-3.6-1.4-1.3-1.4-1.3-3.8v-.3q0-1.6.6-2.8.6-1.3 1.7-2 1-.7 2.3-.7 2 0 3.2 1.4 1.2 1.4 1.2 3.9v.7h-7.2q0 1.6 1 2.6.8 1 2.1 1 1 0 1.7-.5.6-.4 1.1-1l1.1.9q-1.3 2-4 2Zm-.3-9.5q-1 0-1.8.8-.7.8-1 2.3h5.4V34q-.1-1.4-.8-2.1-.6-.8-1.8-.8Zm12 .3h-1q-1.7 0-2.3 1.5v7.5h-1.8V29.9h1.7v1.3q1-1.5 2.6-1.5.5 0 .8.2v1.6Zm1.4 3.6q0-2.4 1.2-3.9 1.1-1.5 3-1.5 2 0 3 1.4l.1-1.2h1.7v10.4q0 2-1.3 3.2-1.2 1.2-3.2 1.2-1.2 0-2.3-.5-1-.5-1.6-1.4l1-1q1 1.4 2.8 1.4 1.3 0 2-.8.7-.7.7-2v-1q-1 1.3-3 1.3-1.8 0-3-1.5-1-1.5-1-4Zm1.8.2q0 1.8.8 2.8.7 1 2 1 1.8 0 2.5-1.5v-4.8q-.8-1.5-2.4-1.5-1.4 0-2.1 1-.8 1-.8 3Zm13.1 2.6 2.5-8h2l-4.3 12.2q-1 2.7-3.2 2.7h-.3l-.7-.2v-1.5h.5q1 0 1.4-.3.6-.4.9-1.3l.4-1.1-3.8-10.5h2l2.6 8Zm20.9-11.6V36q0 2-1.3 3.2-1.3 1.3-3.4 1.5h-.5q-2.3 0-3.7-1.3-1.4-1.2-1.4-3.4v-9.7h1.8v9.6q0 1.6.9 2.4.8.9 2.4.9 1.6 0 2.4-.9.9-.8.9-2.4v-9.6h1.9Zm8.8 11.4q0-.7-.5-1.1-.6-.4-2-.7-1.3-.3-2.1-.7-.8-.5-1.2-1-.4-.6-.4-1.4 0-1.3 1-2.2 1.2-.9 2.9-.9 1.8 0 3 1 1 .9 1 2.3H263q0-.7-.6-1.2-.6-.6-1.6-.6t-1.6.5q-.5.4-.5 1 0 .7.5 1 .5.4 1.9.7 1.3.3 2.2.7.8.4 1.2 1 .4.6.4 1.5 0 1.4-1.1 2.2-1.1.9-3 .9-1.2 0-2.2-.5-1-.4-1.5-1.2-.6-.8-.6-1.8h1.8q0 1 .8 1.5.6.5 1.8.5 1 0 1.6-.4.6-.4.6-1.1Zm10.4 2.8q-.2-.3-.3-1.1-1.2 1.3-3 1.3-1.5 0-2.5-.9t-1-2.2q0-1.7 1.2-2.6 1.3-1 3.5-1h1.8v-.7q0-1-.6-1.5-.5-.6-1.6-.6-1 0-1.6.5-.7.5-.7 1.2h-1.8q0-.8.5-1.6.6-.7 1.6-1.1 1-.5 2-.5 2 0 3 1 1 .9 1 2.5V38q0 1.5.4 2.3v.2h-2Zm-3-1.4q.9 0 1.6-.4.8-.5 1.1-1.2v-2.1h-1.4q-3.3 0-3.3 2 0 .8.5 1.3.6.4 1.5.4Zm7-4q0-2.4 1.2-3.9 1.1-1.5 3-1.5 2 0 3 1.4l.1-1.2h1.7v10.4q0 2-1.3 3.2-1.2 1.2-3.2 1.2-1.2 0-2.3-.5-1-.5-1.6-1.4l1-1q1 1.4 2.8 1.4 1.3 0 2-.8.7-.7.7-2v-1q-1 1.3-3 1.3-1.8 0-3-1.5-1-1.5-1-4Zm1.9.2q0 1.8.7 2.8.7 1 2 1 1.8 0 2.5-1.5v-4.8q-.8-1.5-2.4-1.5-1.4 0-2.1 1-.8 1-.8 3Zm14 5.4q-2.2 0-3.6-1.4-1.3-1.4-1.3-3.8v-.3q0-1.6.6-2.8.6-1.3 1.7-2 1-.7 2.3-.7 2 0 3.2 1.4 1.2 1.4 1.2 3.9v.7h-7.2q0 1.6 1 2.6.8 1 2.1 1 1 0 1.7-.5.6-.4 1.1-1l1.1.9q-1.3 2-4 2Zm-.3-9.5q-1 0-1.8.8-.7.8-1 2.3h5.4V34q-.1-1.4-.8-2.1-.6-.8-1.8-.8Zm11.8 3.5q0-2.2.6-4.2t1.8-3.7q1.1-1.7 2.4-2.3l.4 1.1q-1.5 1.1-2.4 3.4-.9 2.2-1 5v.8q0 3.8 1.4 6.6.8 1.6 2 2.6l-.4 1q-1.3-.6-2.5-2.3-2.3-3.4-2.3-8Zm8.8-4.8v1.2q1.2-1.4 3.1-1.4 2.3 0 3 1.7.6-.7 1.4-1.2.9-.5 2-.5 3.5 0 3.6 3.7v7.1h-1.8v-7q0-1.1-.6-1.7-.5-.5-1.7-.5-1 0-1.7.6-.6.6-.7 1.6v7h-1.8v-7q0-2.2-2.3-2.2-1.8 0-2.4 1.5v7.7h-1.8V29.9h1.7Zm19.6 6.1.3 1.9.4-1.7 2.8-10h1.6l2.7 10 .4 1.7.3-1.9 2.2-9.7h2l-3.5 14.2h-1.7l-3-10.4-.2-1-.2 1-3 10.4h-1.8l-3.4-14.2h1.9l2.2 9.7Zm18.8-1.2q0 2.2-.5 4.2-.6 2-1.8 3.7-1.2 1.7-2.4 2.4l-.4-1.1q1.5-1.2 2.4-3.6.9-2.4 1-5.4v-.3q0-2-.5-3.8-.4-1.8-1.2-3.2-.8-1.4-1.7-2.1l.4-1.1q1.2.7 2.4 2.3 1.2 1.7 1.8 3.7.5 2 .5 4.3Z"/></svg>